<?xml version="1.0" encoding="UTF-8"?>
<svg width="47px" height="47px" viewBox="0 0 47 47" version="1.1" xmlns="http://www.w3.org/2000/svg" xmlns:xlink="http://www.w3.org/1999/xlink">
    <!-- Generator: Sketch 53.2 (72643) - https://sketchapp.com -->
    <title>Background check icon</title>
    <desc>Created with Sketch.</desc>
    <g id="Page-1" stroke="none" stroke-width="1" fill="none" fill-rule="evenodd">
        <g id="Management-Software" transform="translate(-560.000000, -4733.000000)" fill="#82C1C4" fill-rule="nonzero">
            <g id="Background-check-icon" transform="translate(560.000000, 4733.000000)">
                <path d="M44.2460938,0 L11.5664063,0 C10.0479023,0 8.8125,1.23540234 8.8125,2.75390625 L8.8125,5.875 C8.8125,6.38190234 9.22347461,6.79296875 9.73046875,6.79296875 C10.2374629,6.79296875 10.6484375,6.38190234 10.6484375,5.875 L10.6484375,2.75390625 C10.6484375,2.24773828 11.0602383,1.8359375 11.5664063,1.8359375 L44.2460938,1.8359375 C44.7522617,1.8359375 45.1640625,2.24773828 45.1640625,2.75390625 L45.1640625,44.2460938 C45.1640625,44.7522617 44.7522617,45.1640625 44.2460938,45.1640625 L11.5664063,45.1640625 C11.0602383,45.1640625 10.6484375,44.7522617 10.6484375,44.2460938 L10.6484375,41.2778418 C10.6484375,40.7709395 10.2374629,40.359873 9.73046875,40.359873 C9.22347461,40.359873 8.8125,40.7709395 8.8125,41.2778418 L8.8125,44.2460938 C8.8125,45.7645977 10.0479023,47 11.5664063,47 L44.2460938,47 C45.7645977,47 47,45.7645977 47,44.2460938 L47,2.75390625 C47,1.23540234 45.7645977,0 44.2460938,0 Z" id="Path"></path>
                <path d="M39.8300215,35.4335938 L17.7987715,35.4335938 C17.2917773,35.4335938 16.8808027,35.8446602 16.8808027,36.3515625 C16.8808027,36.8584648 17.2917773,37.2695313 17.7987715,37.2695313 L39.8300215,37.2695313 C40.3370156,37.2695313 40.7479902,36.8584648 40.7479902,36.3515625 C40.7479902,35.8446602 40.3370156,35.4335938 39.8300215,35.4335938 Z" id="Path"></path>
                <path d="M40.47875,40.4759961 C40.3080078,40.3051621 40.0720898,40.2070313 39.8297461,40.2070313 C39.5883203,40.2070313 39.3514844,40.3051621 39.1807422,40.4759961 C39.01,40.6468301 38.9117773,40.8835742 38.9117773,41.125 C38.9117773,41.3664258 39.01,41.6032617 39.1807422,41.7739121 C39.3514844,41.9446543 39.5883203,42.0429688 39.8297461,42.0429688 C40.0720898,42.0429688 40.3080078,41.9447461 40.47875,41.7739121 C40.6494922,41.6032617 40.7477148,41.3664258 40.7477148,41.125 C40.7477148,40.8835742 40.6494922,40.6467383 40.47875,40.4759961 Z" id="Path"></path>
                <path d="M36.0761719,40.2070313 L17.7987715,40.2070313 C17.2917773,40.2070313 16.8808027,40.6180977 16.8808027,41.125 C16.8808027,41.6319023 17.2917773,42.0429688 17.7987715,42.0429688 L36.0761719,42.0429688 C36.583166,42.0429688 36.9941406,41.6319023 36.9941406,41.125 C36.9941406,40.6180977 36.583166,40.2070313 36.0761719,40.2070313 Z" id="Path"></path>
                <path d="M24.2322637,8.05673633 C18.7696152,8.05673633 14.3253613,12.5009902 14.3253613,17.9637305 C14.3251777,20.7991523 15.5229434,23.359918 17.4386523,25.1674902 C17.4712402,25.202832 17.5063066,25.2360625 17.5446777,25.2661719 C19.3082793,26.882623 21.6569023,27.870541 24.2321719,27.870541 C26.8074414,27.870541 29.1559727,26.8825313 30.919666,25.2661719 C30.9580371,25.2360625 30.9931035,25.2027402 31.0256914,25.1674902 C32.9414004,23.359918 34.139166,20.7991523 34.139166,17.9637305 C34.139166,12.5009902 29.6949121,8.05673633 24.2322637,8.05673633 Z M24.2321719,26.0346035 C22.3463887,26.0346035 20.6098672,25.3844063 19.2343828,24.2966133 C20.2088984,22.4531484 22.1077168,21.2932949 24.2321719,21.2932949 C26.356627,21.2932949 28.2554453,22.4531484 29.2299609,24.2966133 C27.8544766,25.3844063 26.1179551,26.0346035 24.2321719,26.0346035 Z M22.2999395,17.5252168 L22.2999395,16.8125977 C22.2999395,15.7472031 23.1666855,14.8803652 24.2320801,14.8803652 C25.2974746,14.8803652 26.1642207,15.7471113 26.1642207,16.8125977 L26.1642207,17.5252168 C26.1642207,18.5905195 25.2974746,19.4573574 24.2320801,19.4573574 C23.1666855,19.4573574 22.2999395,18.5906113 22.2999395,17.5252168 Z M30.5726738,22.9520645 C29.732457,21.6119219 28.5030215,20.5898555 27.0641055,20.0068535 C27.6461895,19.3434375 28.00025,18.4751309 28.00025,17.5253086 L28.00025,16.8126895 C28.00025,14.7348672 26.3099023,13.0445195 24.2321719,13.0445195 C22.1544414,13.0445195 20.4640937,14.7348672 20.4640937,16.8126895 L20.4640937,17.5253086 C20.4640937,18.4751309 20.8181543,19.3434375 21.4002383,20.0068535 C19.9613223,20.5899473 18.7318867,21.6119219 17.8916699,22.9520645 C16.808375,21.5781406 16.161207,19.8451074 16.161207,17.9637305 C16.1611152,13.5133262 19.7817676,9.89267383 24.2321719,9.89267383 C28.6824844,9.89267383 32.3031367,13.5133262 32.3031367,17.9637305 C32.3031367,19.8451074 31.6559687,21.5781406 30.5726738,22.9520645 Z" id="Shape"></path>
                <path d="M24.2321719,3.671875 C16.3516855,3.671875 9.9404082,10.0831523 9.9404082,17.9636387 C9.9404082,22.519793 12.083498,26.5849258 15.4145313,29.203707 L4.76003516,39.8581113 C4.09221289,40.5259336 3.00552148,40.5259336 2.33760742,39.8581113 C2.01411523,39.5346191 1.8359375,39.104459 1.8359375,38.6469434 C1.8359375,38.1894277 2.01411523,37.7592676 2.33769922,37.4357754 L7.78676172,31.9867129 C8.14522852,31.6282461 8.14522852,31.0469883 7.78676172,30.6884297 C7.42829492,30.3300547 6.84703711,30.3300547 6.48857031,30.6884297 L1.03959961,36.1374922 C0.369115234,36.807793 0,37.6990488 0,38.6469434 C0,39.5948379 0.369115234,40.4860938 1.03941602,41.1563945 C1.73128906,41.8481758 2.64007813,42.1941582 3.54886719,42.1941582 C4.45765625,42.1941582 5.36644531,41.8481758 6.05831836,41.1563945 L16.95525,30.2594629 C19.0880586,31.5265352 21.5763965,32.2554941 24.2321719,32.2554941 C32.11275,32.2554941 38.5239355,25.8442168 38.5239355,17.9637305 C38.5239355,10.0832441 32.1126582,3.671875 24.2321719,3.671875 Z M24.2321719,30.4194648 C17.3640215,30.4194648 11.7762539,24.8318809 11.7762539,17.9636387 C11.7762539,11.0954883 17.3639297,5.5078125 24.2321719,5.5078125 C31.1004141,5.5078125 36.687998,11.0954883 36.687998,17.9636387 C36.687998,24.8317891 31.1003223,30.4194648 24.2321719,30.4194648 Z" id="Shape"></path>
                <path d="M10.6759766,27.7989395 C10.5052344,27.6281973 10.2693164,27.5298828 10.0269727,27.5298828 C9.78554688,27.5298828 9.54871094,27.6281055 9.37796875,27.7989395 C9.20722656,27.9695898 9.10900391,28.2064258 9.10900391,28.4478516 C9.10900391,28.6893691 9.20722656,28.9261133 9.37796875,29.0968555 C9.54871094,29.2675977 9.78554688,29.3658203 10.0269727,29.3658203 C10.2693164,29.3657285 10.5052344,29.2675977 10.6759766,29.0968555 C10.8476367,28.9261133 10.9449414,28.6893691 10.9449414,28.4478516 C10.9449414,28.2064258 10.8476367,27.9695898 10.6759766,27.7989395 Z" id="Path"></path>
            </g>
        </g>
    </g>
</svg>