<?xml version="1.0" encoding="UTF-8"?>
<svg width="47px" height="47px" viewBox="0 0 47 47" version="1.1" xmlns="http://www.w3.org/2000/svg" xmlns:xlink="http://www.w3.org/1999/xlink">
    <!-- Generator: Sketch 53.2 (72643) - https://sketchapp.com -->
    <title>Calender integration icon</title>
    <desc>Created with Sketch.</desc>
    <g id="Page-1" stroke="none" stroke-width="1" fill="none" fill-rule="evenodd">
        <g id="Management-Software" transform="translate(-968.000000, -5180.000000)" fill="#82C1C4" fill-rule="nonzero">
            <g id="Calender-integration-icon" transform="translate(968.000000, 5180.000000)">
                <path d="M43.0833333,6.26666667 L42.3,6.26666667 L42.3,2.35 C42.3,1.05436667 41.2456333,0 39.95,0 L38.3833333,0 C37.0877,0 36.0333333,1.05436667 36.0333333,2.35 L36.0333333,6.26666667 L10.9666667,6.26666667 L10.9666667,2.35 C10.9666667,1.05436667 9.9123,0 8.61666667,0 L7.05,0 C5.75436667,0 4.7,1.05436667 4.7,2.35 L4.7,6.26666667 L3.91666667,6.26666667 C1.75701667,6.26666667 0,8.02368333 0,10.1833333 L0,43.0833333 C0,45.2429833 1.75701667,47 3.91666667,47 L43.0833333,47 C45.2429833,47 47,45.2429833 47,43.0833333 L47,10.1833333 C47,8.02368333 45.2429833,6.26666667 43.0833333,6.26666667 Z M37.6,7.05 L37.6,2.35 C37.6,1.9176 37.9509333,1.56666667 38.3833333,1.56666667 L39.95,1.56666667 C40.3824,1.56666667 40.7333333,1.9176 40.7333333,2.35 L40.7333333,7.05 L40.7333333,10.1833333 C40.7333333,10.6157333 40.3824,10.9666667 39.95,10.9666667 L38.3833333,10.9666667 C37.9509333,10.9666667 37.6,10.6157333 37.6,10.1833333 L37.6,7.05 Z M6.26666667,7.05 L6.26666667,2.35 C6.26666667,1.9176 6.6176,1.56666667 7.05,1.56666667 L8.61666667,1.56666667 C9.04906667,1.56666667 9.4,1.9176 9.4,2.35 L9.4,7.05 L9.4,10.1833333 C9.4,10.6157333 9.04906667,10.9666667 8.61666667,10.9666667 L7.05,10.9666667 C6.6176,10.9666667 6.26666667,10.6157333 6.26666667,10.1833333 L6.26666667,7.05 Z M45.4333333,43.0833333 C45.4333333,44.3789667 44.3789667,45.4333333 43.0833333,45.4333333 L3.91666667,45.4333333 C2.62103333,45.4333333 1.56666667,44.3789667 1.56666667,43.0833333 L1.56666667,20.3666667 L45.4333333,20.3666667 L45.4333333,43.0833333 Z M45.4333333,18.8 L1.56666667,18.8 L1.56666667,10.1833333 C1.56666667,8.8877 2.62103333,7.83333333 3.91666667,7.83333333 L4.7,7.83333333 L4.7,10.1833333 C4.7,11.4789667 5.75436667,12.5333333 7.05,12.5333333 L8.61666667,12.5333333 C9.9123,12.5333333 10.9666667,11.4789667 10.9666667,10.1833333 L10.9666667,7.83333333 L36.0333333,7.83333333 L36.0333333,10.1833333 C36.0333333,11.4789667 37.0877,12.5333333 38.3833333,12.5333333 L39.95,12.5333333 C41.2456333,12.5333333 42.3,11.4789667 42.3,10.1833333 L42.3,7.83333333 L43.0833333,7.83333333 C44.3789667,7.83333333 45.4333333,8.8877 45.4333333,10.1833333 L45.4333333,18.8 Z" id="Shape"></path>
                <path d="M32.1166667,10.1833333 L14.8833333,10.1833333 C14.45015,10.1833333 14.1,10.5334833 14.1,10.9666667 L14.1,15.6666667 C14.1,16.09985 14.45015,16.45 14.8833333,16.45 L32.1166667,16.45 C32.54985,16.45 32.9,16.09985 32.9,15.6666667 L32.9,10.9666667 C32.9,10.5334833 32.54985,10.1833333 32.1166667,10.1833333 Z M31.3333333,14.8833333 L15.6666667,14.8833333 L15.6666667,11.75 L31.3333333,11.75 L31.3333333,14.8833333 Z" id="Shape"></path>
                <path d="M10.1833333,22.7166667 L5.48333333,22.7166667 C5.05015,22.7166667 4.7,23.0668167 4.7,23.5 L4.7,27.4166667 C4.7,27.84985 5.05015,28.2 5.48333333,28.2 L10.1833333,28.2 C10.6165167,28.2 10.9666667,27.84985 10.9666667,27.4166667 L10.9666667,23.5 C10.9666667,23.0668167 10.6165167,22.7166667 10.1833333,22.7166667 Z M9.4,26.6333333 L6.26666667,26.6333333 L6.26666667,24.2833333 L9.4,24.2833333 L9.4,26.6333333 Z" id="Shape"></path>
                <path d="M20.3666667,22.7166667 L15.6666667,22.7166667 C15.2334833,22.7166667 14.8833333,23.0668167 14.8833333,23.5 L14.8833333,27.4166667 C14.8833333,27.84985 15.2334833,28.2 15.6666667,28.2 L20.3666667,28.2 C20.79985,28.2 21.15,27.84985 21.15,27.4166667 L21.15,23.5 C21.15,23.0668167 20.79985,22.7166667 20.3666667,22.7166667 Z M19.5833333,26.6333333 L16.45,26.6333333 L16.45,24.2833333 L19.5833333,24.2833333 L19.5833333,26.6333333 Z" id="Shape"></path>
                <path d="M31.3333333,22.7166667 L26.6333333,22.7166667 C26.20015,22.7166667 25.85,23.0668167 25.85,23.5 L25.85,27.4166667 C25.85,27.84985 26.20015,28.2 26.6333333,28.2 L31.3333333,28.2 C31.7665167,28.2 32.1166667,27.84985 32.1166667,27.4166667 L32.1166667,23.5 C32.1166667,23.0668167 31.7665167,22.7166667 31.3333333,22.7166667 Z M30.55,26.6333333 L27.4166667,26.6333333 L27.4166667,24.2833333 L30.55,24.2833333 L30.55,26.6333333 Z" id="Shape"></path>
                <path d="M41.5166667,22.7166667 L36.8166667,22.7166667 C36.3834833,22.7166667 36.0333333,23.0668167 36.0333333,23.5 L36.0333333,27.4166667 C36.0333333,27.84985 36.3834833,28.2 36.8166667,28.2 L41.5166667,28.2 C41.94985,28.2 42.3,27.84985 42.3,27.4166667 L42.3,23.5 C42.3,23.0668167 41.94985,22.7166667 41.5166667,22.7166667 Z M40.7333333,26.6333333 L37.6,26.6333333 L37.6,24.2833333 L40.7333333,24.2833333 L40.7333333,26.6333333 Z" id="Shape"></path>
                <path d="M10.1833333,30.55 L5.48333333,30.55 C5.05015,30.55 4.7,30.90015 4.7,31.3333333 L4.7,35.25 C4.7,35.6831833 5.05015,36.0333333 5.48333333,36.0333333 L10.1833333,36.0333333 C10.6165167,36.0333333 10.9666667,35.6831833 10.9666667,35.25 L10.9666667,31.3333333 C10.9666667,30.90015 10.6165167,30.55 10.1833333,30.55 Z M9.4,34.4666667 L6.26666667,34.4666667 L6.26666667,32.1166667 L9.4,32.1166667 L9.4,34.4666667 Z" id="Shape"></path>
                <path d="M20.3666667,30.55 L15.6666667,30.55 C15.2334833,30.55 14.8833333,30.90015 14.8833333,31.3333333 L14.8833333,35.25 C14.8833333,35.6831833 15.2334833,36.0333333 15.6666667,36.0333333 L20.3666667,36.0333333 C20.79985,36.0333333 21.15,35.6831833 21.15,35.25 L21.15,31.3333333 C21.15,30.90015 20.79985,30.55 20.3666667,30.55 Z M19.5833333,34.4666667 L16.45,34.4666667 L16.45,32.1166667 L19.5833333,32.1166667 L19.5833333,34.4666667 Z" id="Shape"></path>
                <path d="M31.3333333,30.55 L26.6333333,30.55 C26.20015,30.55 25.85,30.90015 25.85,31.3333333 L25.85,35.25 C25.85,35.6831833 26.20015,36.0333333 26.6333333,36.0333333 L31.3333333,36.0333333 C31.7665167,36.0333333 32.1166667,35.6831833 32.1166667,35.25 L32.1166667,31.3333333 C32.1166667,30.90015 31.7665167,30.55 31.3333333,30.55 Z M30.55,34.4666667 L27.4166667,34.4666667 L27.4166667,32.1166667 L30.55,32.1166667 L30.55,34.4666667 Z" id="Shape"></path>
                <path d="M41.5166667,30.55 L36.8166667,30.55 C36.3834833,30.55 36.0333333,30.90015 36.0333333,31.3333333 L36.0333333,35.25 C36.0333333,35.6831833 36.3834833,36.0333333 36.8166667,36.0333333 L41.5166667,36.0333333 C41.94985,36.0333333 42.3,35.6831833 42.3,35.25 L42.3,31.3333333 C42.3,30.90015 41.94985,30.55 41.5166667,30.55 Z M40.7333333,34.4666667 L37.6,34.4666667 L37.6,32.1166667 L40.7333333,32.1166667 L40.7333333,34.4666667 Z" id="Shape"></path>
                <path d="M10.1833333,38.3833333 L5.48333333,38.3833333 C5.05015,38.3833333 4.7,38.7334833 4.7,39.1666667 L4.7,43.0833333 C4.7,43.5165167 5.05015,43.8666667 5.48333333,43.8666667 L10.1833333,43.8666667 C10.6165167,43.8666667 10.9666667,43.5165167 10.9666667,43.0833333 L10.9666667,39.1666667 C10.9666667,38.7334833 10.6165167,38.3833333 10.1833333,38.3833333 Z M9.4,42.3 L6.26666667,42.3 L6.26666667,39.95 L9.4,39.95 L9.4,42.3 Z" id="Shape"></path>
                <path d="M20.3666667,38.3833333 L15.6666667,38.3833333 C15.2334833,38.3833333 14.8833333,38.7334833 14.8833333,39.1666667 L14.8833333,43.0833333 C14.8833333,43.5165167 15.2334833,43.8666667 15.6666667,43.8666667 L20.3666667,43.8666667 C20.79985,43.8666667 21.15,43.5165167 21.15,43.0833333 L21.15,39.1666667 C21.15,38.7334833 20.79985,38.3833333 20.3666667,38.3833333 Z M19.5833333,42.3 L16.45,42.3 L16.45,39.95 L19.5833333,39.95 L19.5833333,42.3 Z" id="Shape"></path>
                <path d="M31.5150667,37.882 L28.1475167,41.9232167 L26.4038167,40.1795167 L25.2961833,41.28715 L27.6461833,43.63715 C27.7926667,43.7852 27.9924167,43.8666667 28.2,43.8666667 C28.21175,43.8666667 28.2235,43.8666667 28.23525,43.8658833 C28.4553667,43.8557 28.6606,43.7538667 28.8023833,43.58545 L32.71905,38.88545 L31.5150667,37.882 Z" id="Path"></path>
                <path d="M40.9150667,37.882 L37.5475167,41.9232167 L35.8038167,40.1795167 L34.6961833,41.28715 L37.0461833,43.63715 C37.1926667,43.7852 37.3924167,43.8666667 37.6,43.8666667 C37.61175,43.8666667 37.6235,43.8666667 37.63525,43.8658833 C37.8553667,43.8557 38.0606,43.7538667 38.2023833,43.58545 L42.11905,38.88545 L40.9150667,37.882 Z" id="Path"></path>
            </g>
        </g>
    </g>
</svg>