<?xml version="1.0" encoding="UTF-8"?>
<svg width="45px" height="45px" viewBox="0 0 45 45" version="1.1" xmlns="http://www.w3.org/2000/svg" xmlns:xlink="http://www.w3.org/1999/xlink">
    <!-- Generator: Sketch 53.2 (72643) - https://sketchapp.com -->
    <title>Credit check icon</title>
    <desc>Created with Sketch.</desc>
    <g id="Page-1" stroke="none" stroke-width="1" fill="none" fill-rule="evenodd">
        <g id="Management-Software" transform="translate(-120.000000, -4735.000000)" fill="#82C1C4" fill-rule="nonzero">
            <g id="Credit-check-icon" transform="translate(120.000000, 4735.000000)">
                <path d="M44.3832169,8.16664947 C43.7579157,7.90860407 29.0004216,1.82804742 22.7392793,0.0349233772 C22.5778238,-0.0116411924 22.4066888,-0.0116411924 22.2456206,0.0349233772 C15.9840911,1.82804742 1.22698407,7.90860407 0.601682907,8.16664947 C0.265220584,8.30556705 0.0456876872,8.63384722 0.0456876872,8.99860311 C0.0456876872,40.4261951 22.1039114,44.9351976 22.326929,44.9771057 C22.4365019,44.9976717 22.5483979,44.9976717 22.6575837,44.9771057 C22.8809884,44.9351976 44.938825,40.4261951 44.938825,8.99860311 C44.938825,8.63384722 44.7192921,8.30556705 44.3832169,8.16664947 Z M22.4972897,43.1723406 C20.5695038,42.7183361 2.10666469,37.611367 1.84415442,9.60161424 C4.6074821,8.47087132 16.8819693,3.48613411 22.4922563,1.83697232 C28.1025434,3.48613411 40.3774177,8.47087132 43.1407455,9.60161424 C42.8836557,37.8379812 24.6167315,42.7039787 22.4972897,43.1723406 Z" id="Shape"></path>
                <path d="M5.17276982,11.1623034 C4.81733544,11.3054895 4.59199477,11.6593802 4.61174115,12.0431498 C5.71792401,33.5505485 18.3745612,39.1134624 22.2274229,40.3059034 C22.4001067,40.3594526 22.5847932,40.3594526 22.7570898,40.3059034 C26.6103387,39.1134624 39.2669758,33.5505485 40.3727715,12.0427618 C40.3925179,11.6589922 40.1671772,11.3051015 39.8117428,11.1615273 C35.458253,9.40526702 27.4547856,6.23499586 22.7636719,4.74337748 C22.5871162,4.68711199 22.3973964,4.68711199 22.2204537,4.74337748 C17.5138525,6.24081646 9.51929029,9.4075952 5.17276982,11.1623034 Z M38.542943,12.5902836 C37.316346,31.9320416 26.3029151,37.2427307 22.4922563,38.5015263 C18.6815976,37.2427307 7.66855388,31.9320416 6.4415697,12.5906716 C10.7780234,10.8452763 18.0214499,7.98970411 22.4922563,6.54542632 C26.9491241,7.98543566 34.2002943,10.8433361 38.542943,12.5902836 Z" id="Shape"></path>
                <path d="M13.7767587,24.9322227 L20.0619063,31.2312448 C20.230331,31.3996534 20.4583821,31.4947227 20.6964999,31.4947227 C20.7162462,31.4947227 20.7359926,31.4943347 20.7561261,31.4923945 C21.0143774,31.4753207 21.2528824,31.3472682 21.4100788,31.1416081 L33.0821087,15.8439828 C33.232723,15.6464714 33.2950595,15.3950227 33.2544053,15.1497826 C33.2137511,14.9045426 33.0735906,14.6868532 32.8668348,14.5487117 L30.1732,12.7489911 C29.7805961,12.4862893 29.2517037,12.5735979 28.9636392,12.9492188 L20.6086093,23.835239 L17.7399676,20.9602649 C17.3895667,20.6087025 16.8207943,20.6087025 16.4703934,20.9602649 L13.7767587,23.6598458 C13.4259705,24.0110203 13.4259705,24.5810482 13.7767587,24.9322227 L13.7767587,24.9322227 Z M17.1053741,22.8690242 L20.0619063,25.832083 C20.2442697,26.015237 20.4971005,26.1106943 20.7545774,26.0940087 C21.0124415,26.0773231 21.2505592,25.9500466 21.4081429,25.7447744 L29.8750688,14.7132398 L31.0737885,15.5137624 L20.6062861,29.2320726 L15.6813136,24.2958402 L17.1053741,22.8690242 Z" id="Shape"></path>
            </g>
        </g>
    </g>
</svg>