<?xml version="1.0" encoding="UTF-8"?>
<svg width="59px" height="51px" viewBox="0 0 59 51" version="1.1" xmlns="http://www.w3.org/2000/svg" xmlns:xlink="http://www.w3.org/1999/xlink">
    <!-- Generator: Sketch 53.2 (72643) - https://sketchapp.com -->
    <title>Directory listing icon</title>
    <desc>Created with Sketch.</desc>
    <g id="Page-1" stroke="none" stroke-width="1" fill="none" fill-rule="evenodd">
        <g id="Management-Software" transform="translate(-120.000000, -4167.000000)">
            <g id="Directory-listing-icon" transform="translate(120.000000, 4167.000000)">
                <g id="house-2" transform="translate(2.684211, 0.000000)" fill="#82C1C4" fill-rule="nonzero">
                    <path d="M41.1622635,29.9675678 L36.5802323,29.9675678 C35.9327714,29.9675678 35.4058902,30.494449 35.4058902,31.1419099 L35.4058902,41.2575041 C35.4058902,41.905402 35.9327714,42.4318462 36.5802323,42.4318462 L41.1622635,42.4318462 C41.8097245,42.4318462 42.3366056,41.905402 42.3366056,41.2575041 L42.3366056,31.1419099 C42.3366056,30.494449 41.8097245,29.9675678 41.1622635,29.9675678 Z M40.658974,40.7542146 L37.0835217,40.7542146 L37.0835217,31.6451994 L40.658974,31.6451994 L40.658974,40.7542146 Z" id="Shape"></path>
                    <path d="M15.851434,29.9675678 L11.2694028,29.9675678 C10.6219418,29.9675678 10.0950607,30.494449 10.0950607,31.1419099 L10.0950607,41.2575041 C10.0950607,41.905402 10.6219418,42.4318462 11.2694028,42.4318462 L15.851434,42.4318462 C16.4993319,42.4318462 17.0257761,41.905402 17.0257761,41.2575041 L17.0257761,31.1419099 C17.0257761,30.494449 16.4993319,29.9675678 15.851434,29.9675678 Z M15.3481446,40.7542146 L11.7726923,40.7542146 L11.7726923,31.6451994 L15.3481446,31.6451994 L15.3481446,40.7542146 Z" id="Shape"></path>
                    <path d="M22.8420025,34.3914474 C22.3784694,34.3914474 22.0031867,34.7671669 22.0031867,35.2302632 L22.0031867,38.1381579 C22.0031867,38.601691 22.3784694,38.9769737 22.8420025,38.9769737 C23.3050987,38.9769737 23.6808183,38.601691 23.6808183,38.1381579 L23.6808183,35.2302632 C23.6808183,34.7671669 23.3050987,34.3914474 22.8420025,34.3914474 Z" id="Path"></path>
                    <path d="M51.7881373,21.755037 C51.7483809,21.4387336 51.5810546,21.1460217 51.3302837,20.9516087 L41.2509508,13.1265934 C40.8848427,12.8426192 40.3579615,12.9090255 40.0739875,13.2746967 C39.7900133,13.6408049 39.8564196,14.167686 40.2220908,14.4516602 L49.9340049,21.9913908 L48.7094212,23.5895097 L26.7302632,6.52616154 C26.4275031,6.29111842 26.0041632,6.29111842 25.7014031,6.52616154 L3.72967205,23.5847039 L2.5339227,21.9638671 L25.6074733,4.05034439 C25.7865954,3.91141547 25.9914936,3.8410773 26.2160516,3.8410773 C26.4410464,3.8410773 26.6455079,3.91141547 26.8241931,4.05034439 L37.090075,12.020405 C37.4561832,12.3043791 37.9830643,12.2379729 38.2670385,11.8723016 C38.5510125,11.5061934 38.4846063,10.9793123 38.118935,10.6953382 L27.853053,2.72484064 C27.3799085,2.35785873 26.8137079,2.16344572 26.2160516,2.16344572 C25.6183954,2.16344572 25.0526316,2.35785873 24.5790502,2.72527761 L20.8751542,5.60084293 L20.8751542,1.39802632 C20.8751542,0.626927454 20.2477898,0 19.4771279,0 L7.40560755,0 C6.63450858,0 6.00758124,0.626927454 6.00758124,1.39802632 L6.00758124,6.26141036 C6.00758124,7.03250922 6.63450858,7.65943668 7.40560755,7.65943668 L7.94646893,7.65943668 L7.94646893,15.6377981 L1.10313011,20.950735 C0.849737842,21.1468956 0.686780428,21.4308697 0.643965816,21.7546002 C0.588918586,22.189299 0.830078125,22.492059 0.933182566,22.6213765 L2.67066712,24.9753033 C2.67372533,24.9796721 2.67722039,24.983604 2.68027861,24.9879729 C2.91051609,25.2881117 3.25914885,25.4602436 3.63705281,25.4602436 C3.90224095,25.4602436 4.16437089,25.3702457 4.37538551,25.2068513 L5.64933699,24.2177477 L5.64933699,49.0951891 C5.64933699,49.8658512 6.2767013,50.4932155 7.04736331,50.4932155 L13.1672235,50.4932155 C13.6307566,50.4932155 14.0060393,50.1174959 14.0060393,49.6543997 C14.0060393,49.1908666 13.6307566,48.8155839 13.1672235,48.8155839 L7.32696857,48.8155839 L7.32696857,22.9153988 L26.2160516,8.25053965 L45.1046977,22.9153988 L45.1046977,48.8155839 L32.6037212,48.8155839 L32.6037212,35.0065789 C32.6037212,34.5430459 32.2280016,34.1677632 31.7649054,34.1677632 C31.3013724,34.1677632 30.9260896,34.5430459 30.9260896,35.0065789 L30.9260896,48.8155839 L21.5060135,48.8155839 L21.5060135,25.7118883 L30.9260896,25.7118883 L30.9260896,30.9802632 C30.9260896,31.4437962 31.3013724,31.8190789 31.7649054,31.8190789 C32.2280016,31.8190789 32.6037212,31.4437962 32.6037212,30.9802632 L32.6037212,25.4322831 C32.6037212,24.6616211 31.9763569,24.0342568 31.2056949,24.0342568 L21.2264082,24.0342568 C20.4553094,24.0342568 19.8283819,24.6616211 19.8283819,25.4322831 L19.8283819,48.8155839 L17.1376182,48.8155839 C16.674522,48.8155839 16.2988025,49.1908666 16.2988025,49.6543997 C16.2988025,50.1174959 16.674522,50.4932155 17.1376182,50.4932155 L45.38474,50.4932155 C46.155402,50.4932155 46.7827663,49.8658512 46.7827663,49.0951891 L46.7827663,24.2177477 L48.0571546,25.2072882 C48.2677323,25.3702457 48.5294253,25.4602436 48.7950503,25.4602436 C49.1729543,25.4602436 49.5215872,25.2881117 49.7522615,24.987536 L51.549599,22.6419099 C51.744449,22.3863332 51.8287674,22.0700298 51.7881373,21.755037 Z M17.2586349,8.40869143 L9.62410051,14.3354492 L9.62410051,7.65943668 L17.2586349,7.65943668 L17.2586349,8.40869143 Z M7.68521282,5.9818051 L7.68521282,1.67763158 L19.1975227,1.67763158 L19.1975227,5.9818051 L7.68521282,5.9818051 Z" id="Shape"></path>
                </g>
                <rect id="Rectangle" stroke="#82C1C4" x="0.5" y="49.2631579" width="57.1578947" height="1" rx="0.5"></rect>
            </g>
        </g>
    </g>
</svg>