<?xml version="1.0" encoding="UTF-8"?>
<svg width="46px" height="43px" viewBox="0 0 46 43" version="1.1" xmlns="http://www.w3.org/2000/svg" xmlns:xlink="http://www.w3.org/1999/xlink">
    <!-- Generator: Sketch 53.2 (72643) - https://sketchapp.com -->
    <title>Expense Manager Icon</title>
    <desc>Created with Sketch.</desc>
    <g id="Page-1" stroke="none" stroke-width="1" fill="none" fill-rule="evenodd">
        <g id="Management-Software" transform="translate(-120.000000, -3698.000000)" fill="#82C1C4" fill-rule="nonzero">
            <g id="Expense-Manager-Icon" transform="translate(120.000000, 3698.000000)">
                <path d="M19.2881055,34.8198397 C17.057375,34.8198397 15.2425313,36.6523291 15.2425313,38.9047489 C15.2425313,41.1571688 17.057375,42.9896582 19.2881055,42.9896582 C21.5188359,42.9896582 23.3336797,41.1571688 23.3336797,38.9047489 C23.3335898,36.6523291 21.5187461,34.8198397 19.2881055,34.8198397 Z M19.2881055,40.7086624 C18.3028789,40.7086624 17.5013828,39.8992827 17.5013828,38.9045675 C17.5013828,37.9097616 18.3029687,37.1004726 19.2881055,37.1004726 C20.2732422,37.1004726 21.0748281,37.9098523 21.0748281,38.9045675 C21.0748281,39.8994641 20.2732422,40.7086624 19.2881055,40.7086624 Z" id="Shape"></path>
                <path d="M33.4784766,34.8198397 C31.2477461,34.8198397 29.4329023,36.6523291 29.4329023,38.9047489 C29.4329023,41.1571688 31.2477461,42.9896582 33.4784766,42.9896582 C35.709207,42.9896582 37.5240508,41.1571688 37.5240508,38.9047489 C37.5239609,36.6523291 35.7091172,34.8198397 33.4784766,34.8198397 Z M33.4784766,40.7086624 C32.49325,40.7086624 31.6917539,39.8992827 31.6917539,38.9045675 C31.6917539,37.9097616 32.4933398,37.1004726 33.4784766,37.1004726 C34.4637031,37.1004726 35.2651992,37.9098523 35.2651992,38.9045675 C35.2651992,39.8994641 34.4636133,40.7086624 33.4784766,40.7086624 Z" id="Shape"></path>
                <path d="M34.4744844,13.3132173 L18.2892227,13.3132173 C17.6654375,13.3132173 17.1597969,13.8237743 17.1597969,14.4536245 C17.1597969,15.0834747 17.6655273,15.5940316 18.2892227,15.5940316 L34.4744844,15.5940316 C35.0982695,15.5940316 35.6039102,15.0834747 35.6039102,14.4536245 C35.6039102,13.8236835 35.0982695,13.3132173 34.4744844,13.3132173 Z" id="Path"></path>
                <path d="M33.5935664,19.2352426 L19.1702305,19.2352426 C18.5464453,19.2352426 18.0408047,19.7457996 18.0408047,20.3756498 C18.0408047,21.0055 18.5464453,21.516057 19.1702305,21.516057 L33.5934766,21.516057 C34.2172617,21.516057 34.7229023,21.0055 34.7229023,20.3756498 C34.7229023,19.7458903 34.2172617,19.2352426 33.5935664,19.2352426 Z" id="Path"></path>
                <path d="M45.4915742,8.23205063 C45.0608633,7.69827004 44.4226133,7.39218987 43.7406094,7.39218987 L8.56013281,7.39218987 L7.84964844,3.90964346 C7.70131641,3.18317932 7.21058984,2.5731962 6.53667188,2.27772996 L1.57936328,0.105050633 C1.00705859,-0.145964135 0.341945313,0.119202532 0.0937070313,0.696890295 C-0.154800781,1.27475949 0.1078125,1.94643038 0.679847656,2.19708228 L5.63724609,4.36985232 L11.102082,31.1551329 C11.3173477,32.2099937 12.2477695,32.9756477 13.3144844,32.9756477 L40.3723672,32.9756477 C40.9961523,32.9756477 41.501793,32.4650907 41.501793,31.8352405 C41.501793,31.2053903 40.9961523,30.6948333 40.3723672,30.6948333 L13.3145742,30.6948333 L12.6498203,27.4366308 L40.5815234,27.4366308 C41.6481484,27.4366308 42.5786602,26.6709768 42.7938359,25.616116 L45.9530117,10.1329409 C46.0905625,9.45872996 45.922375,8.76574051 45.4915742,8.23205063 Z M40.5815234,25.1559979 L12.1845195,25.1559979 L9.02552344,9.6729135 L43.7405195,9.6729135 L40.5815234,25.1559979 Z" id="Shape"></path>
            </g>
        </g>
    </g>
</svg>