<?xml version="1.0" encoding="UTF-8"?>
<svg width="100px" height="100px" viewBox="0 0 100 100" version="1.1" xmlns="http://www.w3.org/2000/svg" xmlns:xlink="http://www.w3.org/1999/xlink">
    <!-- Generator: Sketch 53.2 (72643) - https://sketchapp.com -->
    <title>Group 6</title>
    <desc>Created with Sketch.</desc>
    <g id="Page-1" stroke="none" stroke-width="1" fill="none" fill-rule="evenodd">
        <g id="Landing-Page" transform="translate(-670.000000, -3179.000000)">
            <g id="Group-6" transform="translate(670.000000, 3179.000000)">
                <circle id="Oval" fill="#F0DE91" cx="32" cy="31" r="14"></circle>
                <circle id="Oval" fill="#F0DE91" cx="81" cy="46" r="6"></circle>
                <g id="settings-(2)" fill="#000000" fill-rule="nonzero">
                    <path d="M30.3486275,13.4330078 C21.0756863,13.4330078 13.5313725,20.9478516 13.5313725,30.1845703 C13.5313725,39.4212891 21.0756863,46.9361328 30.3486275,46.9361328 C39.6215686,46.9361328 47.1658824,39.4212891 47.1658824,30.1845703 C47.1658824,20.9478516 39.6215686,13.4330078 30.3486275,13.4330078 Z M30.3486275,44.0515625 C22.6723529,44.0515625 16.4272549,37.8308594 16.4272549,30.1845703 C16.4272549,22.5382813 22.6723529,16.3175781 30.3486275,16.3175781 C38.024902,16.3175781 44.27,22.5382813 44.27,30.1845703 C44.27,37.8310547 38.0247059,44.0515625 30.3486275,44.0515625 Z" id="Shape"></path>
                    <path d="M60.6519608,35.6769531 L60.6519608,24.6923828 L54.2080392,24.6923828 C53.6003922,22.0546875 52.5641176,19.565625 51.1160784,17.265625 L55.674902,12.7246094 L47.8770588,4.95703125 L43.3180392,9.49824219 C41.0092157,8.05585938 38.5103922,7.02382813 35.8623529,6.41835938 L35.8623529,0 L24.8347059,0 L24.8347059,6.41875 C22.1866667,7.02402344 19.6878431,8.05625 17.3788235,9.49863281 L12.8201961,4.95703125 L5.02235294,12.7246094 L9.58137255,17.265625 C8.13333333,19.565625 7.0972549,22.0546875 6.48941176,24.6923828 L0.0456862745,24.6923828 L0.0456862745,35.6769531 L6.48960784,35.6769531 C7.09745098,38.3146484 8.13352941,40.8037109 9.58156863,43.1035156 L5.02254902,47.6449219 L12.8205882,55.4123047 L17.3794118,50.8712891 C19.6884314,52.3134766 22.1872549,53.3455078 24.8352941,53.9509766 L24.8352941,60.3697266 L35.8627451,60.3697266 L35.8627451,53.9509766 C38.5107843,53.3455078 41.0096078,52.3134766 43.3184314,50.8710938 L47.877451,55.4121094 L55.6752941,47.6447266 L51.1164706,43.1035156 C52.5645098,40.8037109 53.6005882,38.3146484 54.2084314,35.6769531 L60.6519608,35.6769531 Z M51.6,33.9816406 C51.0519608,37.0462891 49.8637255,39.9005859 48.0684314,42.465625 L47.374902,43.45625 L51.5794118,47.6445312 L47.8770588,51.3324219 L43.6723529,47.1443359 L42.6778431,47.8351562 C40.1027451,49.6234375 37.2370588,50.8068359 34.1605882,51.3529297 L32.9664706,51.5648437 L32.9664706,57.4847656 L27.7305882,57.4847656 L27.7305882,51.5648437 L26.5364706,51.3529297 C23.46,50.8070312 20.5943137,49.6234375 18.0190196,47.8351562 L17.0245098,47.1443359 L12.8198039,51.3326172 L9.11764706,47.6447266 L13.3223529,43.4564453 L12.6288235,42.4658203 C10.8335294,39.9007813 9.6454902,37.0462891 9.0972549,33.9818359 L8.88470588,32.7923828 L2.94156863,32.7923828 L2.94156863,27.5767578 L8.88470588,27.5767578 L9.0972549,26.3875 C9.64529412,23.3228516 10.8335294,20.4685547 12.6288235,17.9033203 L13.3223529,16.9126953 L9.11784314,12.7246094 L12.8201961,9.03652344 L17.024902,13.225 L18.0194118,12.5341797 C20.5947059,10.7458984 23.4603922,9.5625 26.5368627,9.01640625 L27.7309804,8.80449219 L27.7309804,2.88457031 L32.9668627,2.88457031 L32.9668627,8.80449219 L34.1609804,9.01640625 C37.2376471,9.56230469 40.1031373,10.7458984 42.6782353,12.5341797 L43.6727451,13.225 L47.877451,9.03671875 L51.5798039,12.7248047 L47.3752941,16.9128906 L48.0688235,17.9035156 C49.8641176,20.46875 51.0521569,23.3232422 51.6003922,26.3876953 L51.8131373,27.5769531 L57.7562745,27.5769531 L57.7562745,32.7923828 L51.8131373,32.7923828 L51.6,33.9816406 Z" id="Shape"></path>
                    <path d="M79.9323529,36.2912109 C75.0503922,36.2912109 71.0786275,40.2472656 71.0786275,45.1099609 C71.0786275,49.9728516 75.0501961,53.9291016 79.9323529,53.9291016 C84.8141176,53.9291016 88.7856863,49.9730469 88.7856863,45.1099609 C88.7856863,40.2472656 84.8141176,36.2912109 79.9323529,36.2912109 Z M79.9323529,51.0445312 C76.6472549,51.0445312 73.9747059,48.3822266 73.9747059,45.1101562 C73.9747059,41.8380859 76.647451,39.1759766 79.9323529,39.1759766 C83.2172549,39.1759766 85.8898039,41.8380859 85.8898039,45.1101562 C85.8898039,48.3822266 83.2172549,51.0445312 79.9323529,51.0445312 Z" id="Shape"></path>
                    <path d="M95.6960784,41.0607422 C95.3166667,39.5863281 94.7331373,38.184375 93.9521569,36.8716797 L96.9647059,33.8708984 L91.2156863,28.1443359 L88.2031373,31.1451172 C86.8852941,30.3671875 85.4778431,29.7859375 83.9976471,29.4080078 L83.9976471,25.1662109 L75.8672549,25.1662109 L75.8672549,29.4080078 C74.3870588,29.7859375 72.9796078,30.3671875 71.6617647,31.1451172 L68.6494118,28.1443359 L62.9003922,33.8708984 L65.9129412,36.8716797 C65.1317647,38.1845703 64.5482353,39.5865234 64.1688235,41.0607422 L59.9105882,41.0607422 L59.9105882,49.159375 L64.1688235,49.159375 C64.5482353,50.6335937 65.1317647,52.0355469 65.9129412,53.3484375 L62.9003922,56.3490234 L68.6494118,62.0755859 L71.6615686,59.075 C72.9796078,59.853125 74.3870588,60.434375 75.8670588,60.8123047 L75.8670588,65.0539062 L83.997451,65.0539062 L83.997451,60.8123047 C85.477451,60.434375 86.884902,59.853125 88.2029412,59.075 L91.2154902,62.0757812 L96.9645098,56.3492187 L93.9519608,53.3486328 C94.7329412,52.0359375 95.3164706,50.6339844 95.6958824,49.1595703 L99.9545098,49.1595703 L99.9545098,49.159375 L99.9545098,41.0607422 L95.6960784,41.0607422 Z M97.0584314,46.2746094 L93.3164706,46.2746094 L93.3164706,46.2748047 L93.1037255,47.4640625 C92.7641176,49.3630859 92.0278431,51.1318359 90.915098,52.7214844 L90.2215686,53.7121094 L92.8688235,56.3490234 L91.2152941,57.9960937 L88.5680392,55.3591797 L87.5735294,56.05 C85.9772549,57.1583984 84.2015686,57.8919922 82.2956863,58.2300781 L81.1013725,58.4419922 L81.1013725,62.1693359 L78.7627451,62.1693359 L78.7627451,58.4419922 L77.5684314,58.2300781 C75.662549,57.8919922 73.8866667,57.1585937 72.2905882,56.05 L71.2960784,55.3591797 L68.6490196,57.9960938 L66.9954902,56.3490234 L69.6427451,53.7121094 L68.9492157,52.7214844 C67.8364706,51.1314453 67.1,49.3626953 66.7605882,47.4642578 L66.5478431,46.2746094 L62.8058824,46.2746094 L62.8058824,43.9451172 L66.5478431,43.9451172 L66.7605882,42.7554688 C67.1,40.8570313 67.8362745,39.0880859 68.9492157,37.4982422 L69.6427451,36.5076172 L66.9954902,33.8707031 L68.6490196,32.2234375 L71.2962745,34.8603516 L72.2907843,34.1695312 C73.8868627,33.0613281 75.6623529,32.3277344 77.5688235,31.9894531 L78.7629412,31.7775391 L78.7629412,28.0501953 L81.1015686,28.0501953 L81.1015686,31.7775391 L82.2956863,31.9894531 C84.2021569,32.3277344 85.9778431,33.0611328 87.5737255,34.1695312 L88.5682353,34.8603516 L91.2154902,32.2234375 L92.8690196,33.8707031 L90.2217647,36.5076172 L90.9152941,37.4982422 C92.0278431,39.0880859 92.7643137,40.8566406 93.1039216,42.7556641 L93.3166667,43.9451172 L97.0586275,43.9451172 L97.0586275,46.2746094 L97.0584314,46.2746094 Z" id="Shape"></path>
                    <path d="M44.0254902,69.6244141 C38.5192157,69.6244141 34.0396078,74.0865234 34.0396078,79.5712891 C34.0396078,85.0558594 38.5192157,89.5181641 44.0254902,89.5181641 C49.5317647,89.5181641 54.0113725,85.0560547 54.0113725,79.5712891 C54.0113725,74.0865234 49.5317647,69.6244141 44.0254902,69.6244141 Z M44.0254902,86.6333984 C40.1160784,86.6333984 36.9354902,83.4652344 36.9354902,79.5710937 C36.9354902,75.6769531 40.1162745,72.5087891 44.0254902,72.5087891 C47.934902,72.5087891 51.1154902,75.6769531 51.1154902,79.5710937 C51.1154902,83.4654297 47.934902,86.6333984 44.0254902,86.6333984 Z" id="Shape"></path>
                    <path d="M64.5345098,83.6890625 L64.5345098,75.4537109 L60.1731373,75.4537109 C59.782549,73.9242187 59.1776471,72.4710937 58.3652941,71.1109375 L61.4505882,68.0375 L55.6047059,62.2144531 L52.5194118,65.2876953 C51.1543137,64.4787109 49.695098,63.8757812 48.1596078,63.4869141 L48.1596078,59.1425781 L39.8921569,59.1425781 L39.8921569,63.4869141 C38.3566667,63.8759766 36.897451,64.4787109 35.5323529,65.2876953 L32.4468627,62.2144531 L26.6007843,68.0375 L29.6860784,71.1109375 C28.8739216,72.4707031 28.2688235,73.9242187 27.8782353,75.4535156 L23.5168627,75.4535156 L23.5168627,83.6888672 L27.8782353,83.6888672 C28.2688235,85.2181641 28.8739216,86.6714844 29.6860784,88.0314453 L26.6007843,91.1048828 L32.4468627,96.9279297 L35.5323529,93.8546875 C36.8972549,94.6636719 38.3566667,95.2664062 39.8921569,95.6554687 L39.8921569,100 L48.1596078,100 L48.1596078,95.6556641 C49.695098,95.2667969 51.1541176,94.6638672 52.5194118,93.8548828 L55.6047059,96.928125 L61.4505882,91.1050781 L58.3652941,88.0316406 C59.1776471,86.671875 59.7827451,85.2183594 60.1731373,83.6890625 L64.5345098,83.6890625 Z M57.7923529,80.8044922 L57.5796078,81.9941406 C57.2301961,83.9478516 56.4727451,85.7681641 55.327451,87.4041016 L54.6339216,88.3947266 L57.354902,91.1052734 L55.6045098,92.8488281 L52.8835294,90.1384766 L51.8890196,90.8292969 C50.2466667,91.9699219 48.4192157,92.7242187 46.457451,93.0726562 L45.2635294,93.2845703 L45.2635294,97.115625 L42.7878431,97.115625 L42.7878431,93.284375 L41.5937255,93.0724609 C39.6315686,92.7242187 37.8043137,91.9695312 36.1621569,90.8291016 L35.1676471,90.1382812 L32.4466667,92.8486328 L30.6960784,91.1050781 L33.4170588,88.3945312 L32.7235294,87.4039062 C31.5784314,85.7679687 30.8209804,83.9476562 30.4715686,81.99375 L30.2588235,80.8042969 L26.4127451,80.8042969 L26.4127451,78.3380859 L30.2588235,78.3380859 L30.4715686,77.1486328 C30.8209804,75.1947266 31.5786275,73.3744141 32.7235294,71.7384766 L33.4170588,70.7478516 L30.6960784,68.0373047 L32.4466667,66.29375 L35.1676471,69.0041016 L36.1621569,68.3132813 C37.8043137,67.1728516 39.6317647,66.4183594 41.5937255,66.0699219 L42.7878431,65.8580078 L42.7878431,62.0269531 L45.2635294,62.0269531 L45.2635294,65.8580078 L46.457451,66.0699219 C48.4192157,66.4181641 50.2466667,67.1726563 51.8890196,68.3132813 L52.8835294,69.0041016 L55.6045098,66.29375 L57.354902,68.0373047 L54.6339216,70.7478516 L55.327451,71.7384766 C56.4727451,73.3744141 57.23,75.1949219 57.5796078,77.1484375 L57.7923529,78.3380859 L61.6386275,78.3380859 L61.6386275,80.8044922 L57.7923529,80.8044922 L57.7923529,80.8044922 Z" id="Shape"></path>
                    <rect id="Rectangle" x="61.5103922" y="4.06152344" width="2.89588235" height="3.146875"></rect>
                    <rect id="Rectangle" x="84.7723529" y="1.44238281" width="2.89588235" height="3.146875"></rect>
                    <rect id="Rectangle" x="68.1864706" y="18.3519531" width="2.89588235" height="3.146875"></rect>
                    <rect id="Rectangle" x="78.2429412" y="10.1582031" width="2.89588235" height="3.14707031"></rect>
                    <rect id="Rectangle" x="95.2362745" y="11.7283203" width="2.89588235" height="3.146875"></rect>
                    <rect id="Rectangle" x="88.7203922" y="68.2480469" width="2.89588235" height="3.146875"></rect>
                    <rect id="Rectangle" x="92.0778431" y="92.6365234" width="2.89588235" height="3.146875"></rect>
                    <rect id="Rectangle" x="70.8372549" y="89.4884766" width="2.89588235" height="3.14707031"></rect>
                    <rect id="Rectangle" x="73.912549" y="73.2884766" width="2.89588235" height="3.14707031"></rect>
                    <rect id="Rectangle" x="85.6488235" y="81.8980469" width="2.89588235" height="3.146875"></rect>
                    <rect id="Rectangle" x="3.02980392" y="95.2039062" width="2.89588235" height="3.14707031"></rect>
                    <rect id="Rectangle" x="8.36039216" y="84.2576172" width="2.89588235" height="3.14707031"></rect>
                    <rect id="Rectangle" x="6.18843137" y="66.675" width="2.89588235" height="3.146875"></rect>
                    <rect id="Rectangle" x="18.627451" y="87.9154297" width="2.89588235" height="3.146875"></rect>
                    <rect id="Rectangle" x="17.0482353" y="65.1019531" width="2.89588235" height="3.146875"></rect>
                </g>
            </g>
        </g>
    </g>
</svg>