<?xml version="1.0" encoding="UTF-8"?>
<svg width="103px" height="100px" viewBox="0 0 103 100" version="1.1" xmlns="http://www.w3.org/2000/svg" xmlns:xlink="http://www.w3.org/1999/xlink">
    <!-- Generator: Sketch 53.2 (72643) - https://sketchapp.com -->
    <title>Group 5</title>
    <desc>Created with Sketch.</desc>
    <g id="Page-1" stroke="none" stroke-width="1" fill="none" fill-rule="evenodd">
        <g id="Landing-Page" transform="translate(-1079.000000, -3179.000000)">
            <g id="Group-5" transform="translate(1079.000000, 3179.000000)">
                <circle id="Oval" fill="#F0DED7" cx="41.5" cy="36.5" r="22.5"></circle>
                <g id="analysis" fill="#000000" fill-rule="nonzero">
                    <path d="M58.2446895,17.7004032 C53.316582,12.7616935 46.7648164,10.0415323 39.795418,10.0415323 C32.8262207,10.0415323 26.2740527,12.7614919 21.3459453,17.7004032 C11.1732871,27.8955645 11.1732871,44.4844758 21.3459453,54.6798387 C26.2740527,59.6185484 32.8260195,62.3387097 39.795418,62.3387097 C46.7646152,62.3387097 53.316582,59.61875 58.2446895,54.6798387 C63.1725957,49.741129 65.8866055,43.1745968 65.8866055,36.190121 C65.8866055,29.2056452 63.1725957,22.6393145 58.2446895,17.7004032 Z M23.4471855,19.80625 C27.8138223,15.4300403 33.6198437,13.0197581 39.7952168,13.0197581 C45.9705898,13.0197581 51.7764102,15.4300403 56.1430469,19.80625 C59.5895234,23.2600806 61.8126738,27.6129032 62.597043,32.3366935 L54.4980645,40.2739919 C53.7309961,39.840121 52.8466445,39.5915323 51.904959,39.5915323 C50.0716797,39.5915323 48.4534531,40.5304435 47.502916,41.9532258 L35.5989727,38.209879 C35.5995762,38.1754032 35.6015879,38.1409274 35.6015879,38.10625 C35.6015879,35.1802419 33.2263516,32.7995968 30.306543,32.7995968 C27.3869355,32.7995968 25.011498,35.1802419 25.011498,38.10625 C25.011498,39.0627016 25.266584,39.9602823 25.7103691,40.7362903 L19.4645859,47.2247984 C14.7253789,38.4427419 16.0517051,27.2179435 23.4471855,19.80625 Z M54.2286953,44.8979839 C54.2286953,46.1818548 53.1862227,47.2266129 51.9051602,47.2266129 C50.6240977,47.2266129 49.581625,46.1818548 49.581625,44.8979839 C49.581625,43.6141129 50.6240977,42.5693548 51.9051602,42.5693548 C53.1862227,42.5693548 54.2286953,43.6139113 54.2286953,44.8979839 Z M32.6302793,38.1058468 C32.6302793,39.3897177 31.5878066,40.4344758 30.3067441,40.4344758 C29.0254805,40.4344758 27.9830078,39.3897177 27.9830078,38.1058468 C27.9830078,36.8219758 29.0254805,35.7772177 30.3067441,35.7772177 C31.5878066,35.7774194 32.6302793,36.8219758 32.6302793,38.1058468 Z M56.143248,52.5741935 C51.7766113,56.9504032 45.970791,59.3606855 39.795418,59.3606855 C33.6200449,59.3606855 27.8140234,56.9506048 23.4473867,52.5741935 C22.5801348,51.7050403 21.7969727,50.7828629 21.0964922,49.81875 L27.8488262,42.8040323 C28.5839082,43.1919355 29.4199785,43.4125 30.3067441,43.4125 C32.1400234,43.4125 33.75825,42.4735887 34.7087871,41.0508065 L46.6127305,44.7941532 C46.612127,44.828629 46.6101152,44.8631048 46.6101152,44.8977823 C46.6101152,47.8237903 48.9853516,50.2044355 51.9051602,50.2044355 C54.8247676,50.2044355 57.2002051,47.8237903 57.2002051,44.8977823 C57.2002051,43.9961694 56.9738867,43.1467742 56.5765723,42.4024194 L62.9150957,36.1905242 C62.9148945,42.3794355 60.5098848,48.1979839 56.143248,52.5741935 Z" id="Shape"></path>
                    <path d="M26.6379727,20.9997984 L28.5873281,23.247379 C33.1949688,19.2336694 39.655,17.9961694 45.447543,20.0181452 L46.4250371,17.2058468 C39.6298535,14.8336694 32.0478867,16.2875 26.6379727,20.9997984 Z" id="Path"></path>
                    <path d="M50.2386523,19.0104839 L48.6928477,21.5538306 C49.4792285,22.033871 50.2340254,22.5842742 50.9361152,23.1895161 L52.8740039,20.9316532 C52.0496016,20.2211694 51.1628359,19.5747984 50.2386523,19.0104839 Z" id="Path"></path>
                    <path d="M43.3499238,52.9469758 C40.0066484,53.6532258 36.570834,53.3560484 33.4128379,52.0881048 L32.3078008,54.8524194 C34.7023496,55.8139113 37.2320859,56.2997984 39.7805313,56.2997984 C41.1756582,56.2997984 42.5762168,56.1540323 43.9628945,55.8610887 L43.3499238,52.9469758 Z" id="Path"></path>
                    <path d="M77.0154336,60.1139113 L74.8580664,62.2760081 L69.5056875,56.5423387 C75.8405898,47.2618952 77.3656738,35.6518145 74.0793301,25.2495968 L78.3258672,21.0877016 C79.0728184,21.4921371 79.9269941,21.7219758 80.8340781,21.7219758 C83.7536855,21.7219758 86.129123,19.3413306 86.129123,16.4153226 C86.129123,15.5487903 85.919502,14.7308468 85.5503516,14.0074597 L94.6666563,5.0733871 L94.6666563,9.69112903 L97.638166,9.69112903 L97.638166,0.045766129 L88.0141035,0.045766129 L88.0141035,3.02379032 L92.5078809,3.02379032 L83.511877,11.8399194 C82.7256973,11.3760081 81.8107676,11.1084677 80.8342793,11.1084677 C77.9146719,11.1084677 75.5392344,13.4891129 75.5392344,16.415121 C75.5392344,17.3514113 75.783457,18.23125 76.2099414,18.9957661 L72.9553828,22.1852823 C71.203377,18.0038306 68.6338086,14.0877016 65.2416484,10.6881048 C51.2103125,-3.37379032 28.3805234,-3.3733871 14.3493887,10.6881048 C1.85037891,23.2145161 0.485830078,42.7381048 10.2545352,56.7925403 L7.75276172,59.3915323 C7.01767969,59.003629 6.18160937,58.7830645 5.29484375,58.7830645 C2.37523633,58.7828629 0,61.1635081 0,64.0895161 C0,67.0155242 2.37523633,69.3961694 5.29504492,69.3961694 C8.21485352,69.3961694 10.5900898,67.0155242 10.5900898,64.0895161 C10.5900898,63.1328629 10.3350039,62.2354839 9.89101758,61.4594758 L12.07675,59.1887097 C12.7888984,60.0495968 13.5449023,60.8856855 14.3491875,61.6919355 C21.3648555,68.7227823 30.5801367,72.2381048 39.795418,72.2381048 C46.8694258,72.2381048 53.9426289,70.1639113 60.0216406,66.0207661 L65.3866934,71.7681452 L63.1556973,74.0040323 L89.1398613,99.9542339 L103,86.0641129 L77.0154336,60.1139113 Z M80.8342793,14.0866935 C82.1153418,14.0866935 83.1578145,15.1314516 83.1578145,16.4153226 C83.1578145,17.6991935 82.1153418,18.7439516 80.8342793,18.7439516 C79.5530156,18.7439516 78.5107441,17.6991935 78.5107441,16.4153226 C78.5107441,15.1314516 79.5530156,14.0866935 80.8342793,14.0866935 Z M5.29504492,66.4179435 C4.01398242,66.4179435 2.97150977,65.3731855 2.97150977,64.0893145 C2.97150977,62.8054435 4.01398242,61.7606855 5.29504492,61.7606855 C6.57630859,61.7606855 7.61858008,62.8054435 7.61858008,64.0893145 C7.61837891,65.3733871 6.57610742,66.4179435 5.29504492,66.4179435 Z M16.4504277,59.5862903 C3.57804297,46.6856855 3.57804297,25.6949597 16.4504277,12.7939516 C22.8865195,6.34354839 31.3407676,3.11875 39.7952168,3.11875 C48.249666,3.11875 56.7041152,6.34395161 63.140207,12.7939516 C76.0125918,25.6945565 76.0125918,46.6854839 63.140207,59.5862903 C50.2682246,72.4866935 29.3224102,72.4866935 16.4504277,59.5862903 Z M62.4232305,64.2342742 C63.3958965,63.4449597 64.3371797,62.5981855 65.2416484,61.6919355 C66.1155391,60.816129 66.9347109,59.9060484 67.6995664,58.9663306 L72.7560215,64.3826613 L67.4891406,69.6610887 L62.4232305,64.2342742 Z M89.1364414,95.746371 L67.362,74.0002016 L77.019457,64.3215726 L98.7938984,86.0675403 L89.1364414,95.746371 Z" id="Shape"></path>
                    <polygon id="Path" points="77.0176465 68.6447581 72.7656777 72.9058468 74.8671191 75.0116935 77.0176465 72.85625 85.2186191 81.0752016 87.3196582 78.9695565"></polygon>
                    <polygon id="Rectangle" transform="translate(89.917771, 83.673738) rotate(-45.000000) translate(-89.917771, -83.673738) " points="88.4321091 82.1165038 91.4068475 82.1132466 91.4034338 85.2309723 88.4286953 85.2342295"></polygon>
                    <rect id="Rectangle" x="16.0993828" y="73.7637097" width="2.97150977" height="3.24455645"></rect>
                    <rect id="Rectangle" x="16.0993828" y="91.9491935" width="2.97150977" height="3.24455645"></rect>
                    <rect id="Rectangle" x="40.5723438" y="80.021371" width="2.97150977" height="3.24435484"></rect>
                    <rect id="Rectangle" x="83.1576133" y="53.2375" width="2.97150977" height="3.24455645"></rect>
                    <rect id="Rectangle" x="86.5290527" y="27.3965726" width="2.97150977" height="3.24455645"></rect>
                    <rect id="Rectangle" x="96.3766172" y="41.0794355" width="2.97150977" height="3.24455645"></rect>
                </g>
            </g>
        </g>
    </g>
</svg>