<?xml version="1.0" encoding="UTF-8"?>
<svg width="93px" height="82px" viewBox="0 0 93 82" version="1.1" xmlns="http://www.w3.org/2000/svg" xmlns:xlink="http://www.w3.org/1999/xlink">
    <!-- Generator: Sketch 53.2 (72643) - https://sketchapp.com -->
    <title>Group 4</title>
    <desc>Created with Sketch.</desc>
    <g id="Page-1" stroke="none" stroke-width="1" fill="none" fill-rule="evenodd">
        <g id="Landing-Page" transform="translate(-264.000000, -3188.000000)">
            <g id="Group-4" transform="translate(264.000000, 3188.000000)">
                <circle id="Oval" fill="#B0D8DA" cx="35" cy="42" r="6"></circle>
                <rect id="Rectangle" fill="#B0D8DA" x="4" y="4" width="87" height="8"></rect>
                <g id="browser-(1)" fill="#000000" fill-rule="nonzero">
                    <g id="Group" transform="translate(5.664047, 5.883408)">
                        <rect id="Rectangle" x="18.9736444" y="0.123735426" width="62.5312633" height="2.75784753"></rect>
                        <polygon id="Path" points="53.8749548 24.8314753 73.8341434 24.8314753 71.8107996 26.8675022 73.7486346 28.8176682 79.0803301 23.4525516 73.7486346 18.087435 71.8107996 20.0376009 73.8341434 22.0736278 53.8749548 22.0736278"></polygon>
                        <polygon id="Path" points="77.1423124 59.9515605 77.1423124 57.193713 57.1831238 57.193713 59.2064676 55.1575022 57.2686326 53.2075202 51.9369371 58.5726368 57.2686326 63.9375695 59.2064676 61.9874036 57.1831238 59.9515605"></polygon>
                        <rect id="Rectangle" x="62.6001454" y="39.6335785" width="2.90839686" height="2.75784753"></rect>
                        <rect id="Rectangle" x="74.2339155" y="39.6335785" width="2.90839686" height="2.75784753"></rect>
                        <polygon id="Path" points="0.152746562 26.3793632 2.89341454 26.3793632 2.89341454 14.588278 5.88567583 14.588278 5.88567583 11.8304305 0.152746562 11.8304305"></polygon>
                        <polygon id="Path" points="78.6803752 67.4369103 69.8713202 67.4369103 69.8713202 70.1947578 81.4210432 70.1947578 81.4210432 64.4258924 78.6803752 64.4258924"></polygon>
                    </g>
                    <g id="Group">
                        <polygon id="Path" points="40.6342397 0.153704036 40.6342397 2.91155157 90.1613988 2.91155157 90.1613988 11.8603991 2.74066798 11.8603991 2.74066798 2.91155157 36.2714617 2.91155157 36.2714617 0.153704036 0 0.153704036 0 81.9314215 24.6376916 81.9314215 24.6376916 79.173574 2.74066798 79.173574 2.74066798 14.6182466 90.1613988 14.6182466 90.1613988 79.173574 29.0004695 79.173574 29.0004695 81.9314215 92.9020668 81.9314215 92.9020668 0.153704036"></polygon>
                        <rect id="Rectangle" x="5.73292927" y="6.0071435" width="2.90839686" height="2.75784753"></rect>
                        <rect id="Rectangle" x="11.549723" y="6.0071435" width="2.90839686" height="2.75784753"></rect>
                        <path d="M33.3630648,71.6882242 C40.4292377,71.6882242 47.1643379,68.6305067 51.8411965,63.2992197 L49.786609,61.4740762 C45.6297466,66.2126099 39.6435796,68.9303767 33.3630648,68.9303767 C21.2889607,68.9303767 11.4658585,59.0456996 11.4658585,46.8959103 C11.4658585,34.7461211 21.2889607,24.8616278 33.3630648,24.8616278 C45.437169,24.8616278 55.2600884,34.7463049 55.2600884,46.8960942 C55.2600884,50.6355516 54.3140098,54.3281256 52.5239882,57.5744798 L54.9204283,58.9124036 C56.9355501,55.257704 58.0005737,51.1023632 58.0005737,46.8960942 C58.0005737,33.2256278 46.9481906,22.1037803 33.3628821,22.1037803 C19.7775737,22.1037803 8.72519057,33.2254439 8.72519057,46.8959103 C8.72519057,60.5663767 19.7777564,71.6882242 33.3630648,71.6882242 Z" id="Path"></path>
                        <path d="M23.2673576,57.1392915 L23.2673576,57.7103498 L25.524389,59.9815291 L41.2017407,59.9815291 L43.4585894,57.7103498 L43.4585894,57.1392915 C43.4585894,53.306435 41.3376778,49.9633722 38.2153261,48.2338341 C40.5004951,46.6675605 42.004391,44.0286682 42.004391,41.0426547 C42.004391,36.247861 38.1278075,32.3471614 33.3630648,32.3471614 C28.5983222,32.3471614 24.7217387,36.2480448 24.7217387,41.0426547 C24.7217387,44.0286682 26.2256346,46.6673767 28.5108035,48.2338341 C25.3882692,49.9633722 23.2673576,53.306435 23.2673576,57.1392915 Z M27.4624067,41.0426547 C27.4624067,37.7685381 30.1095265,35.105009 33.3630648,35.105009 C36.6166031,35.105009 39.263723,37.768722 39.263723,41.0426547 C39.263723,44.3165874 36.6166031,46.9803004 33.3630648,46.9803004 C30.1095265,46.9803004 27.4624067,44.3167713 27.4624067,41.0426547 Z M33.3630648,49.738148 C37.2343497,49.738148 40.4168134,52.7636906 40.6978232,56.5882735 L40.0663733,57.2236816 L26.6595737,57.2236816 L26.0281238,56.5882735 C26.3093163,52.7636906 29.49178,49.738148 33.3630648,49.738148 Z" id="Shape"></path>
                        <rect id="Rectangle" x="15.912501" y="46.9803004" width="2.90839686" height="2.75784753"></rect>
                        <rect id="Rectangle" x="47.9052318" y="46.9803004" width="2.90839686" height="2.75784753"></rect>
                        <rect id="Rectangle" x="44.996835" y="49.9071121" width="2.90839686" height="2.75784753"></rect>
                        <rect id="Rectangle" x="18.8208978" y="44.0536726" width="2.90839686" height="2.75784753"></rect>
                        <rect id="Rectangle" x="62.4473988" y="45.5169865" width="2.90839686" height="2.75784753"></rect>
                        <rect id="Rectangle" x="74.081169" y="45.5169865" width="2.90839686" height="2.75784753"></rect>
                        <rect id="Rectangle" x="14.4583026" y="17.7138386" width="2.90839686" height="2.75784753"></rect>
                        <rect id="Rectangle" x="69.718391" y="73.3203184" width="2.90839686" height="2.75784753"></rect>
                        <rect id="Rectangle" x="63.9015972" y="73.3203184" width="2.90839686" height="2.75784753"></rect>
                    </g>
                </g>
            </g>
        </g>
    </g>
</svg>