<?xml version="1.0" encoding="UTF-8"?>
<svg width="9px" height="12px" viewBox="0 0 9 12" version="1.1" xmlns="http://www.w3.org/2000/svg" xmlns:xlink="http://www.w3.org/1999/xlink">
    <!-- Generator: Sketch 53.2 (72643) - https://sketchapp.com -->
    <title>Location Icon</title>
    <desc>Created with Sketch.</desc>
    <g id="Page-1" stroke="none" stroke-width="1" fill="none" fill-rule="evenodd">
        <g id="Landing-Page" transform="translate(-1158.000000, -1364.000000)" fill="#FFFFFF" fill-rule="nonzero">
            <g id="Venice-Beach-Text-and-Icon" transform="translate(1158.000000, 1362.000000)">
                <g id="Location-Icon" transform="translate(0.000000, 2.000000)">
                    <path d="M8.06906879,2.98668489 C8.02773273,2.82659673 7.94379163,2.6560183 7.88169303,2.5066715 C7.13861584,0.661333185 5.51500758,0 4.20402524,0 C2.44903795,0 0.516124678,1.21603393 0.258064516,3.72256593 L0.258064516,4.23466391 C0.258064516,4.25603504 0.265192355,4.4480125 0.275317126,4.54404308 C0.419979853,5.73859428 1.33215421,7.00813972 2.0134028,8.20269092 C2.74632822,9.48253133 3.50684701,10.7415307 4.26031897,12 C4.72492445,11.1787461 5.18785598,10.3466949 5.64187771,9.54670052 C5.76561591,9.31192501 5.90925266,9.07728899 6.03312586,8.85319904 C6.11568999,8.70399174 6.27342042,8.55478444 6.34548179,8.41595581 C7.07838021,7.02937135 8.25806452,5.63207343 8.25806452,4.25600714 L8.25806452,3.69070454 C8.25809152,3.54152513 8.07913956,3.01885319 8.06906879,2.98668489 Z M4.23615451,5.55741398 C3.72027718,5.55741398 3.15561196,5.29086077 2.87689727,4.55472864 C2.8353722,4.43755013 2.83872013,4.20271882 2.83872013,4.18120819 L2.83872013,3.8505416 C2.83872013,2.91210914 3.60982268,2.48535617 4.28064951,2.48535617 C5.10650682,2.48535617 5.74523137,3.16811629 5.74523137,4.02151063 C5.74523137,4.87487707 5.06201183,5.55741398 4.23615451,5.55741398 Z"></path>
                </g>
            </g>
        </g>
    </g>
</svg>