<?xml version="1.0" encoding="UTF-8"?>
<svg width="41px" height="51px" viewBox="0 0 41 51" version="1.1" xmlns="http://www.w3.org/2000/svg" xmlns:xlink="http://www.w3.org/1999/xlink">
    <!-- Generator: Sketch 53.2 (72643) - https://sketchapp.com -->
    <title>Invoice Manager Icon</title>
    <desc>Created with Sketch.</desc>
    <g id="Page-1" stroke="none" stroke-width="1" fill="none" fill-rule="evenodd">
        <g id="Management-Software" transform="translate(-550.000000, -3690.000000)" fill="#82C1C4" fill-rule="nonzero">
            <g id="Invoice-Manager-Icon" transform="translate(550.000000, 3690.000000)">
                <path d="M40.6969565,10.1011875 L30.9224179,0.269841797 C30.7506932,0.0971191406 30.5175676,0 30.2745386,0 L0.950922705,0 C0.444859903,0 0.0345628019,0.412582031 0.0345628019,0.921685547 L0.0345628019,50.0783145 C0.0345628019,50.587418 0.444859903,51 0.950922705,51 L40.0489783,51 C40.5550411,51 40.9653382,50.587418 40.9653382,50.0783145 L40.9653382,10.7530312 C40.9654372,10.5085898 40.8688792,10.274209 40.6969565,10.1011875 Z M31.1908986,3.14675977 L37.8368599,9.8313457 L31.1908986,9.8313457 L31.1908986,3.14675977 Z M39.1327174,49.1566289 L1.86728261,49.1566289 L1.86728261,1.84337109 L29.3580797,1.84337109 L29.3580797,10.7530313 C29.3580797,11.2621348 29.7683768,11.6747168 30.2744396,11.6747168 L39.1326184,11.6747168 L39.1327174,49.1566289 L39.1327174,49.1566289 Z" id="Shape"></path>
                <path d="M7.36544203,23.0421387 C7.36544203,23.5512422 7.77573913,23.9638242 8.28180193,23.9638242 L31.4963188,23.9638242 C32.0023816,23.9638242 32.4126787,23.5512422 32.4126787,23.0421387 C32.4126787,22.5330352 32.0023816,22.1204531 31.4963188,22.1204531 L8.28180193,22.1204531 C7.77573913,22.1204531 7.36544203,22.5330352 7.36544203,23.0421387 Z" id="Path"></path>
                <path d="M7.36544203,26.7288809 C7.36544203,27.2379844 7.77573913,27.6505664 8.28180193,27.6505664 L32.718099,27.6505664 C33.2241618,27.6505664 33.6344589,27.2379844 33.6344589,26.7288809 C33.6344589,26.2197773 33.2241618,25.8071953 32.718099,25.8071953 L8.28190097,25.8071953 C7.77573913,25.8071953 7.36544203,26.2197773 7.36544203,26.7288809 Z" id="Path"></path>
                <path d="M8.28190097,31.3373086 L20.5,31.3373086 C21.0060628,31.3373086 21.4163599,30.9247266 21.4163599,30.415623 C21.4163599,29.9065195 21.0060628,29.4939375 20.5,29.4939375 L8.28190097,29.4939375 C7.77583816,29.4939375 7.36554106,29.9065195 7.36554106,30.415623 C7.36544203,30.9248262 7.77573913,31.3373086 8.28190097,31.3373086 Z" id="Path"></path>
                <path d="M8.28190097,36.2530313 L31.4964179,36.2530313 C32.0024807,36.2530313 32.4127778,35.8404492 32.4127778,35.3313457 C32.4127778,34.8222422 32.0024807,34.4096602 31.4964179,34.4096602 L8.28190097,34.4096602 C7.77583816,34.4096602 7.36554106,34.8222422 7.36554106,35.3313457 C7.36554106,35.8404492 7.77573913,36.2530313 8.28190097,36.2530313 Z" id="Path"></path>
                <path d="M32.718099,38.0964023 L8.28190097,38.0964023 C7.77583816,38.0964023 7.36554106,38.5089844 7.36554106,39.0180879 C7.36554106,39.5271914 7.77583816,39.9397734 8.28190097,39.9397734 L32.7181981,39.9397734 C33.2242609,39.9397734 33.634558,39.5271914 33.634558,39.0180879 C33.634558,38.5088848 33.2242609,38.0964023 32.718099,38.0964023 Z" id="Path"></path>
                <path d="M20.5,41.7831445 L8.28190097,41.7831445 C7.77583816,41.7831445 7.36554106,42.1957266 7.36554106,42.7048301 C7.36554106,43.2139336 7.77583816,43.6265156 8.28190097,43.6265156 L20.5,43.6265156 C21.0060628,43.6265156 21.4163599,43.2139336 21.4163599,42.7048301 C21.4163599,42.1957266 21.0060628,41.7831445 20.5,41.7831445 Z" id="Path"></path>
                <path d="M11.5495871,11.1279826 C10.2431767,10.615811 9.86574463,10.3060979 9.86574463,9.74680646 C9.86574463,9.29922873 10.212371,8.77633165 11.1896527,8.77633165 C12.0540622,8.77633165 12.717002,9.10966498 12.7229167,9.11255724 C12.7926609,9.14895155 12.8709075,9.16835382 12.9484148,9.16835382 C13.1375621,9.16835382 13.304899,9.05639913 13.3742735,8.88310436 L13.6117243,8.28946734 C13.6944069,8.07315016 13.5689659,7.88467101 13.4090224,7.81706435 C12.8768222,7.59050374 11.8366968,7.41516028 11.8260996,7.41335262 C11.8093412,7.41046035 11.7510568,7.39828874 11.7510568,7.33164618 L11.7477297,6.47047481 C11.7477297,6.21113521 11.526298,6 11.254468,6 L10.828486,6 C10.5569025,6 10.335594,6.2110147 10.335594,6.47059532 L10.336703,7.37599422 C10.336703,7.44540853 10.2598118,7.47553627 10.231717,7.48192336 C8.91877577,7.78778019 8.09823371,8.72836828 8.09823371,9.91479875 C8.09823371,11.3938298 9.3483312,12.0621837 10.6981161,12.5638708 C11.77718,12.9781875 12.2173326,13.3982887 12.2173326,14.0144613 C12.2173326,14.6849843 11.5939474,15.1532899 10.700827,15.1532899 C9.93819977,15.1532899 8.9060838,14.6805254 8.89585629,14.675705 C8.82980875,14.6450952 8.75981808,14.6296698 8.68785584,14.6296698 C8.49143835,14.6296698 8.32040481,14.7458424 8.25201603,14.9257652 L8.02528569,15.5261509 C7.94469784,15.7503013 8.06878341,15.9322728 8.22761788,16.0132562 C8.86147706,16.3361051 10.088039,16.5253073 10.1426267,16.5336226 C10.1572903,16.5356712 10.2319634,16.5613401 10.2319634,16.6281032 L10.2319634,17.5295252 C10.2319634,17.7888648 10.4533952,18 10.7253484,18 L11.165501,18 C11.4375774,18 11.6590092,17.7889853 11.6590092,17.5295252 L11.6590092,16.5808629 C11.6590092,16.4921668 11.7259193,16.4843336 11.7397202,16.4810798 C13.1384247,16.1737768 14,15.1729332 14,13.9162449 C13.9996303,12.6254519 13.2666998,11.7913955 11.5495871,11.1279826 Z" id="Path"></path>
            </g>
        </g>
    </g>
</svg>