<?xml version="1.0" encoding="UTF-8"?>
<svg width="85px" height="61px" viewBox="0 0 85 61" version="1.1" xmlns="http://www.w3.org/2000/svg" xmlns:xlink="http://www.w3.org/1999/xlink">
    <!-- Generator: Sketch 53.2 (72643) - https://sketchapp.com -->
    <title>Kndrd-Logo</title>
    <desc>Created with Sketch.</desc>
    <defs>
        <linearGradient x1="-0.0322586375%" y1="50.0115263%" x2="99.9932917%" y2="50.0115263%" id="linearGradient-1">
            <stop stop-color="#B0D8DA" offset="0%"></stop>
            <stop stop-color="#82C1C4" offset="100%"></stop>
        </linearGradient>
        <linearGradient x1="-0.00757882689%" y1="49.9718121%" x2="100.013995%" y2="49.9718121%" id="linearGradient-2">
            <stop stop-color="#B0D8DA" offset="0%"></stop>
            <stop stop-color="#82C1C4" offset="100%"></stop>
        </linearGradient>
        <linearGradient x1="-0.00394714773%" y1="50.0204723%" x2="100.032961%" y2="50.0204723%" id="linearGradient-3">
            <stop stop-color="#B0D8DA" offset="0%"></stop>
            <stop stop-color="#82C1C4" offset="100%"></stop>
        </linearGradient>
        <linearGradient x1="-0.0087671398%" y1="50.0001855%" x2="100.000925%" y2="50.0001855%" id="linearGradient-4">
            <stop stop-color="#B0D8DA" offset="0%"></stop>
            <stop stop-color="#82C1C4" offset="100%"></stop>
        </linearGradient>
    </defs>
    <g id="Page-1" stroke="none" stroke-width="1" fill="none" fill-rule="evenodd">
        <g id="Landing-Page" transform="translate(-121.000000, -5172.000000)">
            <g id="Kndrd-Logo" transform="translate(121.000000, 5172.000000)">
                <path d="M50.3348577,5.65982955 L53.410061,1.43835227 C53.748093,1.00341772 54.1902429,0.661247802 54.6954268,0.443636364 C55.2023486,0.193073359 55.7578659,0.0570204384 56.3228659,0.0450568182 C56.8411585,0.0450568182 57.186687,0.176761364 57.3473577,0.443636364 C57.5080285,0.710511364 57.4579268,1.03977273 57.1745935,1.43835227 L54.090752,5.65982955 C53.7567109,6.09120685 53.3209275,6.43244891 52.8226626,6.6528125 C52.3254946,6.90644994 51.7771206,7.04277952 51.2194106,7.05139205 C50.7011179,7.05139205 50.3555894,6.92142045 50.1724593,6.6528125 C49.9893293,6.38420455 50.0497967,6.05321023 50.3348577,5.65982955 L50.3348577,5.65982955 Z" id="Path" fill="#E2BFB2"></path>
                <path d="M38.4815041,52.5917045 C37.6114704,51.8213073 36.9730569,50.8226319 36.6381098,49.7080682 C36.246823,48.5083479 36.0207161,47.2606446 35.9660569,45.9995455 C35.9764228,45.6616193 35.9936992,45.3063636 36.0178862,44.9597727 C36.0420732,44.6131818 36.0593496,44.2527273 36.0697154,43.92 C36.1215447,43.5826515 36.1670393,43.2551231 36.2061992,42.9374148 C36.2442073,42.6202841 36.2753049,42.3135511 36.3012195,42.0172159 C36.3843197,41.5464543 36.4000268,41.066207 36.3478659,40.5909943 C36.2994919,40.0202746 35.9643293,39.5003883 35.342378,39.0313352 C34.9311992,38.6939867 34.5326897,38.546108 34.1468496,38.5876989 C33.7964784,38.6220967 33.4530437,38.7079274 33.1275407,38.8424432 C33.0669006,38.9298342 32.972027,38.9871854 32.8666667,39.000142 C32.7603862,39.0130421 32.6647477,39.0711066 32.604065,39.1595739 C31.8423814,39.5667662 31.1482591,40.0899817 30.5464431,40.7105682 C29.9986593,41.2757586 29.4901179,41.8779258 29.0243902,42.5128409 C28.6454333,43.0207098 28.3129528,43.5618544 28.0309959,44.1296875 C27.8006436,44.6149148 27.6497629,44.9424432 27.5783537,45.1122727 C27.5887195,44.9008523 27.6042683,44.6998295 27.6232724,44.5092045 C27.6422764,44.3185795 27.6578252,44.1192898 27.6699187,43.9078693 C27.7200203,43.3151989 27.7839431,42.7675852 27.8634146,42.2598295 C27.9245591,41.8321935 28.0110951,41.4085994 28.122561,40.9913068 C28.2506095,40.5086764 28.0985083,39.9947601 27.7286585,39.6603977 C27.4591573,39.3752338 27.1596837,39.12016 26.8354675,38.8996307 C26.6278871,38.7638169 26.4080947,38.647781 26.1789634,38.5530398 C26.0061992,38.4889205 25.8748984,38.4369318 25.7764228,38.3953409 C25.4759759,38.2684586 25.1598514,38.1827726 24.8365854,38.1405966 C24.364939,38.0556818 24.0833333,38.1839205 23.988313,38.5218466 C23.8155488,39.4923011 23.6710027,40.3899716 23.5546748,41.214858 C23.4383469,42.0397443 23.3525407,42.864053 23.2972561,43.6877841 C23.2430088,44.5539464 23.2557162,45.423022 23.3352642,46.2872159 C23.4170393,47.1975947 23.5546748,48.1796023 23.7481707,49.2332386 C23.8605146,49.6867571 24.0312593,50.1236695 24.2560976,50.5329545 C24.5049592,50.9633335 24.847487,51.3317945 25.2581301,51.6108523 C25.7902153,51.9702054 26.3669818,52.2580188 26.9736789,52.4669318 C27.8452622,52.7548773 28.7464606,52.9432285 29.6601626,53.0284091 C29.7167195,53.0700154 29.7936463,53.0700154 29.8502033,53.0284091 C29.9673259,52.9059516 30.0460217,52.7516916 30.0765244,52.5847727 C30.0672738,52.3883544 30.0227955,52.195218 29.9452236,52.0146307 C29.8565379,51.760464 29.7615176,51.4219602 29.6601626,50.9991193 C29.5588076,50.5762784 29.4620596,50.1141572 29.3699187,49.6127557 C29.2317073,48.470161 29.3123306,47.477178 29.6117886,46.6338068 C29.7710488,46.0725262 30.029072,45.5443292 30.3736789,45.0741477 C30.6823718,44.6575082 31.0231879,44.2658131 31.3929878,43.9026705 C31.4206301,43.8593466 31.4845528,43.8593466 31.5830285,43.9026705 L31.6262195,44.0291761 C31.549046,44.3836741 31.5039441,44.7444383 31.4914634,45.1070739 C31.4793699,45.445 31.4828252,45.7621307 31.5001016,46.056733 C31.5007554,47.3935386 31.6714424,48.7247982 32.0080285,50.018267 C32.2236585,50.8252812 32.4855439,51.6191391 32.792378,52.3958807 C32.8874931,52.5157749 32.9735391,52.6426341 33.0497967,52.7753977 C33.1803671,52.9713744 33.3645242,53.1254108 33.5801829,53.2190341 C34.1203071,53.4931716 34.6977993,53.6858717 35.2940041,53.7909091 C35.773929,53.8712909 36.2606773,53.9032213 36.7469512,53.8862216 C37.1325559,53.8727693 37.51474,53.8086819 37.8837398,53.6955966 C38.2050813,53.5893087 38.4774729,53.4939962 38.7009146,53.4096591 C38.7792027,53.3897668 38.8418193,53.3309377 38.8667258,53.2538772 C38.8916323,53.1768167 38.8753378,53.0923258 38.8235772,53.030142 C38.7287652,52.869889 38.6137975,52.7225342 38.4815041,52.5917045 Z" id="Path" fill="url(#linearGradient-1)"></path>
                <path d="M52.6481707,53.7319886 C51.7350818,52.8825895 51.0682407,51.8011051 50.7183943,50.6022727 C50.3716128,49.4186248 50.1742719,48.1960062 50.1309959,46.9630682 C49.9941768,45.060881 50.047423,43.1497353 50.289939,41.2581818 C50.4935712,39.6199908 50.8134205,37.998453 51.2470528,36.4059091 C51.5607489,35.2067438 52.01118,34.0478383 52.5894309,32.9521307 C53.0858401,32.064858 53.564397,31.5576799 54.0251016,31.4305966 C54.085088,31.3920864 54.1543256,31.3705328 54.2255081,31.3682102 C54.2877033,31.3682102 54.3464431,31.3248864 54.3982724,31.2399716 C54.4273403,31.1803831 54.4273403,31.110668 54.3982724,31.0510795 L54.3550813,30.9228409 C54.1022613,30.3567252 53.734505,29.8497267 53.2753049,29.434233 C52.8959273,29.0999752 52.4706067,28.8221706 52.0123984,28.6093466 C51.6244385,28.4309338 51.2112193,28.3140114 50.7875,28.2627557 C50.4432788,28.2240028 50.0972858,28.2031794 49.7509146,28.2003693 C49.2447154,28.2003693 48.9648374,28.2419602 48.9095528,28.326875 C48.3636179,28.4539583 47.9161585,28.9293655 47.5671748,29.7530966 C47.1767425,30.7139542 46.8844282,31.71204 46.6947154,32.7320455 C46.4511534,33.96771 46.2781077,35.2163128 46.1764228,36.4717614 C46.0612466,37.8026705 45.9978997,39.0596402 45.9863821,40.2426705 C45.8071805,40.0363359 45.6624876,39.8022428 45.5579268,39.5494886 C45.4527251,39.297065 45.3080931,39.0630702 45.1294715,38.8563068 C44.934166,38.6481542 44.7037257,38.4762592 44.4487805,38.3485511 C44.1657674,38.1557747 43.8502707,38.0160361 43.5175813,37.936108 C43.2221545,37.8737216 42.9837398,37.82 42.8006098,37.7784091 L42.1095528,37.7784091 C40.9174797,37.8639015 39.9240854,38.4993182 39.1293699,39.6846591 C38.311696,40.9276052 37.7702081,42.3324741 37.5416667,43.803892 C37.2790971,45.3819761 37.3183801,46.9957698 37.6574187,48.5591193 C38.0029472,50.1638352 38.733164,51.4312027 39.8480691,52.3612216 C39.9278223,52.4180392 40.0024022,52.4818301 40.070935,52.5518466 C40.1281349,52.6085189 40.1971778,52.6517295 40.2730691,52.6783523 L40.4458333,52.804858 C40.5118453,52.8309746 40.5754375,52.8628685 40.635874,52.9001705 C40.6964067,52.9383865 40.7606607,52.970322 40.8276423,52.995483 L40.8898374,52.995483 C41.214784,53.2061385 41.5847666,53.3367729 41.9696138,53.376733 C43.2768631,53.6297443 44.2990515,53.4183239 45.0361789,52.7424716 C45.7699769,52.0720416 46.3504968,51.2503118 46.7379065,50.3336648 C47.0220421,51.2433176 47.5224655,52.0700089 48.1960366,52.7424716 C48.7418291,53.2770343 49.3650662,53.7257425 50.0446138,54.0733807 C50.7713621,54.4086507 51.5505422,54.6150384 52.347561,54.6833807 C52.8382114,54.7688731 53.0829607,54.684536 53.0818089,54.4303693 C53.0939024,54.3454545 53.0230691,54.1964205 52.8658537,53.986733 L52.6481707,53.7319886 Z M44.6077236,48.4395455 C44.0652439,48.8831818 43.5550136,49.0836269 43.0770325,49.0408807 C42.3976386,48.9712137 41.7802976,48.6136693 41.3804878,48.0582955 C40.954336,47.4875758 40.6566057,46.5899053 40.4872967,45.3652841 C40.4379533,44.8807398 40.4379533,44.3924136 40.4872967,43.9078693 C40.5320892,43.4775412 40.6188875,43.0526629 40.7464431,42.6393466 C40.8540089,42.2934385 41.006178,41.9631134 41.1990854,41.6567614 C41.328305,41.4314476 41.5157118,41.2452606 41.741565,41.1178125 C41.9338635,41.0090071 42.1336204,40.9140335 42.3393293,40.833608 C42.5961721,40.7273201 42.9226965,40.7590909 43.3189024,40.9289205 L43.3828252,40.9289205 C43.836035,41.2111121 44.2502023,41.5519716 44.6146341,41.9426989 C45.1260163,42.4487216 45.571748,43.3781629 45.9518293,44.7310227 C45.9247419,44.7673247 45.9176053,44.8148318 45.9328252,44.8575284 C45.9466373,44.9005846 45.9389196,44.9476787 45.9120935,44.9840341 C45.9368936,45.0444178 45.9486693,45.1093835 45.9466463,45.1746591 C45.9393998,45.2171564 45.9435742,45.2608232 45.9587398,45.3011648 C45.9587398,45.4276705 45.9587398,45.5559091 45.9587398,45.6824148 C45.9610489,45.7884122 45.9552733,45.8944315 45.9414634,45.9995455 L45.9881098,46.5055682 C46.0053862,46.6788636 46.020935,46.8434943 46.0364837,47.0133239 C45.608436,47.5349677 45.1298376,48.0127158 44.6077236,48.4395455 L44.6077236,48.4395455 Z" id="Shape" fill="url(#linearGradient-2)"></path>
                <path d="M64.0402439,45.6824148 C63.7743039,45.5863445 63.5639215,45.3778501 63.464939,45.1122727 C63.3733565,44.8259536 63.3347135,44.5252558 63.3509146,44.225 C63.3642547,43.8624338 63.409347,43.5017459 63.4856707,43.1471023 C63.5635727,42.769802 63.6212436,42.3885821 63.658435,42.0050852 C63.7415352,41.5343237 63.7572422,41.0540763 63.7050813,40.5788636 C63.6567073,40.0081439 63.3209688,39.4882576 62.6978659,39.0192045 C62.286687,38.6812784 61.8893293,38.5339773 61.5023374,38.5755682 C61.1525232,38.6099596 60.8096575,38.6957936 60.4847561,38.8303125 C60.4234218,38.917794 60.3279958,38.9750998 60.2221545,38.9880114 C60.1163506,39.0009507 60.0212617,39.0590638 59.9612805,39.1474432 C59.2340452,39.5232992 58.5963851,40.0523755 58.0919715,40.6984375 C57.6635266,41.2594683 57.3011947,41.8683131 57.0121951,42.5128409 C56.7757455,43.0322258 56.5911392,43.5738159 56.4610772,44.1296875 C56.3956082,44.462752 56.3078763,44.7910215 56.1984756,45.1122727 C56.2099932,44.9008523 56.225542,44.6998295 56.245122,44.5092045 C56.2623984,44.3185795 56.2779472,44.1192898 56.2900407,43.9078693 C56.3401423,43.3151989 56.404065,42.7675852 56.4835366,42.2598295 C56.5446811,41.8321935 56.6312171,41.4085994 56.7426829,40.9913068 C56.8707314,40.5086764 56.7186303,39.9947601 56.3487805,39.6603977 C56.0792792,39.3752338 55.7798056,39.12016 55.4555894,38.8996307 C55.248009,38.7638169 55.0282166,38.647781 54.7990854,38.5530398 C54.6263211,38.4889205 54.4950203,38.4369318 54.3965447,38.3953409 C54.0960979,38.2684586 53.7799734,38.1827726 53.4567073,38.1405966 C52.985061,38.0556818 52.7034553,38.1839205 52.608435,38.5218466 C52.4356707,39.4923011 52.2911247,40.3899716 52.1747967,41.214858 C52.0584688,42.0397443 51.9726626,42.864053 51.917378,43.6877841 C51.8640186,44.5539675 51.876725,45.4229747 51.9553862,46.2872159 C52.0360095,47.1975947 52.173645,48.1796023 52.3682927,49.2332386 C52.4814125,49.6865086 52.6521188,50.1233229 52.8762195,50.5329545 C53.1250812,50.9633335 53.4676089,51.3317945 53.878252,51.6108523 C54.4103373,51.9702054 54.9871037,52.2580188 55.5938008,52.4669318 C56.4676062,52.7554161 57.3711545,52.9437739 58.2871951,53.0284091 C58.3430234,53.0702891 58.4196798,53.0702891 58.4755081,53.0284091 C58.5934847,52.9065636 58.6723209,52.7520283 58.7018293,52.5847727 C58.7226422,52.3853577 58.6764282,52.1846847 58.5705285,52.0146307 C58.1409052,51.3771519 57.8592981,50.6511313 57.7464431,49.8900284 C57.6259813,49.1248768 57.6033392,48.3474347 57.679065,47.5765341 C57.7473501,46.8575136 57.8838767,46.1466692 58.0867886,45.4536648 C58.23533,44.9047935 58.4604193,44.3797203 58.7553862,43.8940057 C58.7830285,43.8506818 58.8452236,43.8506818 58.9436992,43.8940057 L58.9886179,44.0205114 C58.8573171,44.8644602 58.8935976,45.406875 59.1009146,45.637358 C59.3099673,45.8733003 59.5338671,46.0955732 59.7712398,46.3028125 C60.1085226,46.5893754 60.5127022,46.7855283 60.9460366,46.8729545 C61.3731855,46.9565176 61.8087676,46.9885158 62.2434959,46.968267 C62.6363793,46.9573981 63.026379,46.8974375 63.4044715,46.7897727 C63.75,46.6840625 64.029878,46.58875 64.2544715,46.5038352 C64.3327596,46.483943 64.3953762,46.4251138 64.4202827,46.3480533 C64.4451892,46.2709928 64.4288947,46.186502 64.3771341,46.1243182 C64.2841749,45.9631481 64.1709507,45.8146303 64.0402439,45.6824148 Z" id="Path" fill="url(#linearGradient-3)"></path>
                <path d="M84.6544715,25.5229545 L71.7161585,7.78789773 C71.537595,7.59500647 71.3703099,7.39191126 71.2151423,7.17963068 L68.2885163,3.16090909 C68.2786433,3.14939811 68.2715491,3.13575891 68.2677846,3.12105114 C68.2432265,3.04833073 68.2095557,2.97903522 68.1675813,2.91482955 C68.1018637,2.80508585 68.0149285,2.70963436 67.9118902,2.63409091 C67.9008499,2.62495369 67.8909843,2.61447567 67.8825203,2.60289773 L67.7097561,2.37241477 C67.6798692,2.33056606 67.6315004,2.30598384 67.5801829,2.3065625 L58.2388211,2.3065625 C58.2215447,2.33255682 58.2059959,2.35855114 58.1852642,2.38627841 L55.1117886,6.60602273 C54.6424034,7.22233964 54.0280517,7.71235519 53.3236789,8.03224432 C52.6402289,8.37631617 51.8873289,8.55889564 51.1226626,8.56599432 C49.8718496,8.56599432 49.2412602,8.01838068 48.9302846,7.55741477 C48.686687,7.19696023 48.2150407,6.21784091 49.1220528,4.97011364 L49.1220528,4.97011364 L51.0621951,2.30829545 L34.8085366,2.30829545 C34.7895325,2.33428977 34.7739837,2.36028409 34.7549797,2.38801136 L31.6797764,6.60775568 C31.2096295,7.22429829 30.5939511,7.71382939 29.8882114,8.03224432 C29.2047614,8.37631617 28.4518614,8.55889564 27.6871951,8.56599432 C26.4363821,8.56599432 25.804065,8.01838068 25.4948171,7.55741477 C25.2512195,7.19696023 24.7795732,6.21784091 25.6865854,4.97011364 L25.6865854,4.97011364 L27.6267276,2.30829545 L21.8564024,2.30829545 C20.9902178,2.31914892 20.1377954,2.52713249 19.3634146,2.9165625 C18.6186867,3.24553019 17.96605,3.7531765 17.4630081,4.39477273 L2.35132114,25.1469034 C1.95050813,25.69625 1.87794715,26.1866761 2.11117886,26.6043182 C2.34441057,27.0219602 2.85924797,27.2351136 3.64014228,27.2351136 L7.17662602,27.2351136 C7.48069106,30.7131534 7.4254065,39.0711932 7.3804878,40.0416477 C7.39767192,40.2203049 7.39767192,40.4002065 7.3804878,40.5788636 C7.36188206,40.8216969 7.36188206,41.0656043 7.3804878,41.3084375 C7.09945799,41.2229451 6.70152439,41.1074148 6.18668699,40.9618466 C5.63440268,40.8059596 5.07448084,40.6787077 4.50914634,40.5805966 C3.89320605,40.4742872 3.26673288,40.4428672 2.64329268,40.487017 C2.04699954,40.5159769 1.46661281,40.6896174 0.951930894,40.9930398 C0.443320226,41.2555478 0.123844911,41.7813927 0.124390244,42.355142 C0.103658537,42.968608 0.349559621,43.5918939 0.862093496,44.225 C1.37462737,44.8581061 2.17164634,45.4605966 3.25315041,46.0324716 C4.33350271,46.6031913 5.71561653,47.0150568 7.39949187,47.2680682 C7.45823171,48.7896023 7.55152439,50.2579924 7.67936992,51.6732386 C7.80721545,53.0884848 8.02950542,54.1346117 8.34623984,54.8116193 C9.02117209,56.2904072 9.73871951,57.061572 10.4988821,57.1251136 C11.2590447,57.1886553 12.4338415,56.7767898 14.0232724,55.889517 C14.1041778,55.8622372 14.1694821,55.8013774 14.2025452,55.7224452 C14.2356083,55.643513 14.2332374,55.5541308 14.1960366,55.4770739 C14.1528843,55.3286009 14.0838651,55.1889646 13.9921748,55.0646307 L13.9489837,54.938125 C13.5343496,54.3477652 13.2112805,53.4073485 12.9797764,52.116875 C12.7482724,50.8264015 12.4672425,49.2089773 12.136687,47.2646023 L12.1159553,47.2022159 C12.2570929,47.3144529 12.3856891,47.4417014 12.4994919,47.581733 C13.7341802,48.8525663 15.0448848,50.247017 16.4316057,51.7650852 C17.8183266,53.2831534 19.2096545,54.6989773 20.6055894,56.0125568 C21.8807641,57.2226661 23.2448392,58.3348918 24.6862805,59.3398295 C26.0096545,60.2502083 27.2334011,60.7469886 28.3575203,60.8301705 C29.2305556,60.9156629 29.9452236,60.7885795 30.5015244,60.4489205 C31.0408239,60.1293988 31.4953688,59.6841563 31.826626,59.1509375 C32.1480948,58.6328188 32.3816192,58.064781 32.5176829,57.4699716 C32.6379799,56.97015 32.7171418,56.4612608 32.7543699,55.9484375 C32.7215447,55.6105114 32.5971545,55.3990909 32.3794715,55.3159091 C32.1744416,55.2334923 31.9559292,55.190008 31.735061,55.1876705 C30.7034204,55.2173866 29.6710588,55.1646536 28.6477642,55.0299716 C27.3324526,54.8820928 25.9261518,54.4066856 24.4288618,53.60375 C22.8319718,52.6803627 21.303641,51.6425122 19.8557927,50.4982955 C18.1627033,49.1881818 16.4316057,47.8566951 14.6625,46.5038352 C15.8675252,46.0997445 16.9934091,45.4887485 17.989939,44.6980966 C18.8178979,44.0393312 19.5535825,43.2716567 20.1771341,42.4157955 C20.6723068,41.7419817 21.078776,41.0069224 21.3864837,40.2288068 C21.5892172,39.7132101 21.7554825,39.1839262 21.8840447,38.6448864 C21.9492501,38.203282 21.9445857,37.7541233 21.8702236,37.3139773 C21.8052031,36.8789297 21.6611512,36.4595422 21.4452236,36.0766477 C21.1550517,35.5658312 20.7839414,35.1057847 20.3464431,34.7145455 C19.916696,34.3336328 19.4587031,33.9860404 18.9764228,33.6747727 C18.5539793,33.3907042 18.0940017,33.1672995 17.6098577,33.0110511 C17.1871612,32.8828125 16.8462398,32.8718371 16.5870935,32.978125 C16.3296748,33.0838352 16.2087398,33.3472443 16.2277439,33.7700852 C16.2834213,34.4345562 16.3013026,35.1016699 16.2813008,35.7681818 C16.2597806,36.7962823 16.111812,37.817786 15.840752,38.809517 C15.5460027,39.9139056 15.073938,40.9627819 14.4430894,41.9149716 C13.7619478,42.9354856 12.7850671,43.7218126 11.6443089,44.1678125 C11.5916208,42.7729514 11.6187317,41.3762071 11.7255081,39.9844602 C12.3612805,36.6918466 12.6428862,31.1013352 12.416565,27.2420455 L48.6434959,27.2420455 L49.9409553,27.2420455 L53.2355691,27.2420455 C57.7740854,27.1727273 57.6462398,26.533267 60.7819106,21.9270739 L67.6268293,11.3092614 C67.6564395,11.2657229 67.7055872,11.2396762 67.7581301,11.2396762 C67.810673,11.2396762 67.8598207,11.2657229 67.8894309,11.3092614 L75.9212398,22.4001705 C74.3387195,22.9824432 73.9914634,25.2630114 73.6856707,26.7914773 C73.2105691,29.1621591 73.5871951,36.7473011 73.5440041,40.2461364 C73.3641161,40.0399803 73.2188277,39.8058676 73.1138211,39.5529545 C73.0097,39.2999743 72.8649649,39.0658128 72.6853659,38.8597727 C72.4914707,38.6507816 72.2614354,38.4787521 72.0064024,38.352017 C71.7230592,38.1598388 71.4076744,38.0201497 71.0752033,37.9395739 C70.7780488,37.8771875 70.5396341,37.8234659 70.3565041,37.781875 L69.6654472,37.781875 C68.4710705,37.8650568 67.4771003,38.5004735 66.6835366,39.688125 C65.865699,40.9308165 65.3247367,42.3358507 65.097561,43.807358 C64.8335346,45.3852688 64.8722354,46.9992317 65.2115854,48.5625852 C65.5571138,50.1673011 66.2873306,51.4346686 67.4022358,52.3646875 C67.4827287,52.4205465 67.5573957,52.4844118 67.6251016,52.5553125 C67.6825834,52.6120391 67.7515058,52.6557651 67.8272358,52.6835511 L68,52.8083239 C68.0664996,52.834587 68.1306533,52.8664727 68.1917683,52.9036364 C68.2514136,52.9423462 68.3151488,52.9743118 68.3818089,52.9989489 L68.4457317,52.9989489 C68.7697107,53.2099944 69.1393727,53.3401305 69.5237805,53.3784659 C70.8321816,53.6326326 71.8549458,53.4217898 72.5920732,52.7459375 C73.3249594,52.0750788 73.9048332,51.2534295 74.2920732,50.3371307 C74.5767708,51.2469264 75.0777879,52.0736189 75.7519309,52.7459375 C76.2966815,53.2809733 76.9194257,53.7297462 77.5987805,54.0768466 C78.3241607,54.4200635 79.1033267,54.6346558 79.9017276,54.711108 C80.3946816,54.7966004 80.6394309,54.7116856 80.6359756,54.4563636 C80.6497967,54.3731818 80.5772358,54.2241477 80.4200203,54.0144602 L80.2075203,53.7597159 C79.2849924,52.9041838 78.612438,51.8125658 78.2621951,50.6022727 C77.0943089,46.5818182 78.3744919,30.0650284 79.4715447,27.2333807 C79.486904,27.2400373 79.5032435,27.2441348 79.5199187,27.2455114 L83.7906504,27.2455114 C84.195209,27.244561 84.5649518,27.0157777 84.7473339,26.6535507 C84.9297161,26.2913236 84.8938263,25.8570454 84.6544715,25.5298864 L84.6544715,25.5229545 Z M5.61656504,44.3826989 C5.10614208,44.2254198 4.67831719,43.8722665 4.42621951,43.4001136 C4.11063686,42.8501894 4.24769648,42.5434564 4.83739837,42.4799148 C5.42710027,42.4163731 6.26443089,42.6173958 7.34939024,43.082983 C7.36753242,43.357644 7.36753242,43.6332083 7.34939024,43.9078693 C7.33145925,44.2036493 7.33781537,44.5004075 7.36839431,44.795142 C6.77234309,44.7158218 6.18555438,44.5776708 5.61656504,44.3826989 L5.61656504,44.3826989 Z M17.9018293,19.2947159 L15.9409553,21.8040341 C15.724894,22.0907314 15.3870534,22.2588875 15.0287602,22.2580682 L11.1329268,22.2580682 C10.7356832,22.2689637 10.3717825,22.0363666 10.2138211,21.6705966 C10.0509,21.2954069 10.1130861,20.8601069 10.3744919,20.5459091 L12.3370935,18.0383239 C12.5518943,17.7510343 12.8895571,17.5826478 13.247561,17.5842898 L17.145122,17.5842898 C17.5417264,17.5723676 17.9053821,17.8045589 18.0625,18.1700284 C18.2262563,18.5451045 18.1640048,18.9808624 17.9018293,19.2947159 Z M24.4668699,14.0715909 L26.4329268,11.5640057 C26.6475455,11.2762804 26.9851495,11.1072807 27.3433943,11.1082386 L31.2392276,11.1082386 C31.6366046,11.0968592 32.0007529,11.3296146 32.1583333,11.6957102 C32.3204263,12.0710117 32.2583047,12.5058594 31.9976626,12.8203977 L30.035061,15.327983 C29.8200824,15.6152755 29.4827099,15.7841593 29.1245935,15.78375 L25.2322154,15.78375 C24.8353267,15.7948955 24.471801,15.5621005 24.3148374,15.1962784 C24.1510811,14.8212023 24.2133326,14.3854444 24.4755081,14.0715909 L24.4668699,14.0715909 Z M27.4263211,19.2947159 L25.4637195,21.8040341 C25.2483798,22.0906737 24.9110647,22.2588868 24.553252,22.2580682 L20.6643293,22.2580682 C20.2677079,22.2682472 19.9046762,22.0357686 19.7469512,21.6705966 C19.5840301,21.2954069 19.6462162,20.8601069 19.907622,20.5459091 L21.8702236,18.0383239 C22.0853844,17.7514683 22.4228148,17.5831977 22.7806911,17.5842898 L26.678252,17.5842898 C27.0747231,17.5728535 27.4381298,17.8048858 27.5956301,18.1700284 C27.7585512,18.5452181 27.6963651,18.9805181 27.4349593,19.2947159 L27.4263211,19.2947159 Z M36.8713415,19.2947159 L34.9104675,21.8040341 C34.6947722,22.0902441 34.3576858,22.2583431 34,22.2580682 L30.1093496,22.2580682 C29.7127282,22.2682472 29.3496966,22.0357686 29.1919715,21.6705966 C29.0298786,21.2952951 29.0920001,20.8604474 29.3526423,20.5459091 L31.3152439,18.0383239 C31.5304048,17.7514683 31.8678351,17.5831977 32.2257114,17.5842898 L36.1232724,17.5842898 C36.5198768,17.5723676 36.8835325,17.8045589 37.0406504,18.1700284 C37.2044067,18.5451045 37.1421552,18.9808624 36.8799797,19.2947159 L36.8713415,19.2947159 Z M34.6685976,15.78375 C34.2718427,15.794411 33.9085649,15.5617748 33.7512195,15.1962784 C33.5891266,14.820977 33.6512481,14.3861293 33.9118902,14.0715909 L35.8831301,11.5640057 C36.0988368,11.2748048 36.4387141,11.1056301 36.7987805,11.1082386 L40.6963415,11.1082386 C41.0932302,11.0970932 41.4567559,11.3298882 41.6137195,11.6957102 C41.7766407,12.0708999 41.7144545,12.5061999 41.4530488,12.8203977 L39.4921748,15.327983 C39.2770173,15.6150602 38.9397598,15.7838865 38.5817073,15.78375 L34.6685976,15.78375 Z M46.5685976,19.2947159 L44.6077236,21.8040341 C44.3920283,22.0902441 44.0549419,22.2583431 43.6972561,22.2580682 L39.8066057,22.2580682 C39.4099843,22.2682472 39.0469527,22.0357686 38.8892276,21.6705966 C38.7271347,21.2952951 38.7892562,20.8604474 39.0498984,20.5459091 L41.0125,18.0383239 C41.2276609,17.7514683 41.5650912,17.5831977 41.9229675,17.5842898 L45.8205285,17.5842898 C46.2171329,17.5723676 46.5807886,17.8045589 46.7379065,18.1700284 C46.9016628,18.5451045 46.8394113,18.9808624 46.5772358,19.2947159 L46.5685976,19.2947159 Z M44.3658537,15.78375 C43.9690988,15.794411 43.605821,15.5617748 43.4484756,15.1962784 C43.2863827,14.820977 43.3485042,14.3861293 43.6091463,14.0715909 L45.571748,11.5640057 C45.7863667,11.2762804 46.1239707,11.1072807 46.4822154,11.1082386 L50.3797764,11.1082386 C50.7766652,11.0970932 51.1401909,11.3298882 51.2971545,11.6957102 C51.4611552,12.0716485 51.3996458,12.5082332 51.1382114,12.8238636 L49.1773374,15.3314489 C48.9621799,15.6185261 48.6249224,15.7873524 48.2668699,15.7872159 L44.3658537,15.78375 Z M56.2589431,19.2947159 L54.2980691,21.8040341 C54.0823738,22.0902441 53.7452874,22.2583431 53.3876016,22.2580682 L49.4969512,22.2580682 C49.1003298,22.2682472 48.7372982,22.0357686 48.5795732,21.6705966 C48.4174802,21.2952951 48.4796018,20.8604474 48.7402439,20.5459091 L50.7028455,18.0383239 C50.9180064,17.7514683 51.2554367,17.5831977 51.613313,17.5842898 L55.510874,17.5842898 C55.9074785,17.5723676 56.2711342,17.8045589 56.428252,18.1700284 C56.5920084,18.5451045 56.5297568,18.9808624 56.2675813,19.2947159 L56.2589431,19.2947159 Z M60.8354675,12.8238636 L58.8745935,15.3314489 C58.6596149,15.6187414 58.3222424,15.7876252 57.964126,15.7872159 L54.0648374,15.7872159 C53.668216,15.797395 53.3051844,15.5649164 53.1474593,15.1997443 C52.9853664,14.8244429 53.0474879,14.3895952 53.3081301,14.0750568 L55.2707317,11.5674716 C55.4857103,11.2801791 55.8230828,11.1112952 56.1811992,11.1117045 L60.0787602,11.1117045 C60.4756489,11.1005591 60.8391746,11.3333541 60.9961382,11.6991761 C61.1590594,12.0743658 61.0968732,12.5096659 60.8354675,12.8238636 Z M72.158435,48.4430114 C71.6159553,48.8866477 71.1057249,49.0870928 70.6277439,49.0443466 C69.9487775,48.9746683 69.3316501,48.6178779 68.9311992,48.0634943 C68.5038957,47.4916193 68.2061653,46.5933712 68.0380081,45.36875 C67.989536,44.8841616 67.989536,44.3959236 68.0380081,43.9113352 C68.0825095,43.4808157 68.169904,43.0558522 68.2988821,42.6428125 C68.4057724,42.2966439 68.5579814,41.9662322 68.7515244,41.6602273 C68.8796497,41.4346627 69.0665866,41.2483491 69.2922764,41.1212784 C69.4842086,41.0117657 69.6840178,40.9167673 69.8900407,40.8370739 C70.149187,40.730786 70.4762873,40.7625568 70.8713415,40.9323864 L70.9335366,40.9323864 C71.3866284,41.215471 71.8012566,41.556232 72.1670732,41.9461648 C72.6784553,42.4533428 73.124187,43.3827841 73.5042683,44.7344886 C73.4777091,44.7709567 73.4700133,44.8179171 73.4835366,44.8609943 C73.4970046,44.903845 73.489991,44.950533 73.4645325,44.9875 C73.4889988,45.0479387 73.5001946,45.1129558 73.4973577,45.178125 C73.4910291,45.2212242 73.4951781,45.2652192 73.5094512,45.3063636 L73.5094512,45.6858807 C73.5113321,45.7919254 73.5049782,45.8979561 73.4904472,46.0030114 C73.5059959,46.1763068 73.5232724,46.3409375 73.5388211,46.5090341 C73.5543699,46.6771307 73.5699187,46.8469602 73.5871951,47.0167898 C73.1589146,47.5371727 72.6803275,48.0137486 72.158435,48.4395455 L72.158435,48.4430114 Z" id="Shape" fill="url(#linearGradient-4)"></path>
                <path d="M29.9849593,1.43835227 C30.3203517,1.00719142 30.7564749,0.6655527 31.2547764,0.443636364 C31.75188,0.189825678 32.3002947,0.0534859861 32.8580285,0.0450568182 C33.3763211,0.0450568182 33.7218496,0.176761364 33.9049797,0.443636364 C34.0881098,0.710511364 34.0345528,1.03977273 33.7408537,1.43835227 L30.6656504,5.65982955 C30.3272583,6.09326097 29.885922,6.43466515 29.3820122,6.6528125 C28.8753816,6.90417813 28.3196834,7.04027536 27.7545732,7.05139205 C27.2362805,7.05139205 26.890752,6.92142045 26.7318089,6.6528125 C26.5728659,6.38420455 26.6246951,6.05321023 26.9045732,5.65982955 L29.9797764,1.43835227 L29.9849593,1.43835227 Z" id="Path" fill="#E2BFB2"></path>
            </g>
        </g>
    </g>
</svg>