<?xml version="1.0" encoding="UTF-8"?>
<svg width="89px" height="62px" viewBox="0 0 89 62" version="1.1" xmlns="http://www.w3.org/2000/svg" xmlns:xlink="http://www.w3.org/1999/xlink">
    <!-- Generator: Sketch 53.2 (72643) - https://sketchapp.com -->
    <title>Kndrd-Logo</title>
    <desc>Created with Sketch.</desc>
    <defs>
        <linearGradient x1="-0.0087671398%" y1="50.0001855%" x2="100.000925%" y2="50.0001855%" id="linearGradient-1">
            <stop stop-color="#111111" offset="0%"></stop>
            <stop stop-color="#111111" offset="100%"></stop>
        </linearGradient>
    </defs>
    <g id="Page-1" stroke="none" stroke-width="1" fill="none" fill-rule="evenodd">
        <g id="Landing-Page" transform="translate(-37.000000, -612.000000)">
            <g id="Kndrd-Logo" transform="translate(37.000000, 612.000000)">
                <path d="M52.7035569,5.75261364 L55.9234756,1.46193182 C56.277415,1.01986719 56.7403719,0.67208793 57.2693293,0.450909091 C57.8001062,0.196238496 58.3817655,0.0579551997 58.9733537,0.0457954545 C59.5160366,0.0457954545 59.8778252,0.179659091 60.0460569,0.450909091 C60.2142886,0.722159091 60.1618293,1.05681818 59.8651626,1.46193182 L56.6361992,5.75261364 C56.2864384,6.1910627 55.8301476,6.53789889 55.308435,6.761875 C54.7878708,7.01967043 54.2136909,7.15823493 53.6297358,7.16698864 C53.0870528,7.16698864 52.7252642,7.03488636 52.5335163,6.761875 C52.3417683,6.48886364 52.4050813,6.15244318 52.7035569,5.75261364 L52.7035569,5.75261364 Z" id="Path" fill="#111111"></path>
                <path d="M40.2923984,53.4538636 C39.381422,52.6708369 38.7129654,51.6557898 38.3622561,50.5229545 C37.9525558,49.3035668 37.7158086,48.0354092 37.6585772,46.7536364 C37.6694309,46.4101705 37.6875203,46.0490909 37.7128455,45.6968182 C37.7381707,45.3445455 37.7562602,44.9781818 37.7671138,44.64 C37.8213821,44.2971212 37.8690176,43.9642235 37.9100203,43.6413068 C37.9498171,43.3189773 37.982378,43.0072159 38.0095122,42.7060227 C38.096523,42.2275438 38.1129692,41.7394235 38.0583537,41.2564205 C38.0077033,40.6763447 37.6567683,40.1479356 37.0055488,39.6711932 C36.5750203,39.3283144 36.1577575,39.1780114 35.7537602,39.2202841 C35.3869009,39.2552458 35.0273046,39.3424836 34.6864837,39.4792045 C34.62299,39.5680282 34.5236518,39.6263196 34.4133333,39.6394886 C34.3020514,39.6526002 34.2019123,39.7116165 34.138374,39.8015341 C33.3408464,40.2154017 32.6140596,40.7471945 31.9839228,41.3779545 C31.4103609,41.9524104 30.8778882,42.5644492 30.3902439,43.2097727 C29.9934537,43.7259674 29.645327,44.2759832 29.3501016,44.853125 C29.1089092,45.3463068 28.9509282,45.6792045 28.8761585,45.8518182 C28.8870122,45.6369318 28.9032927,45.4326136 28.9231911,45.2388636 C28.9430894,45.0451136 28.9593699,44.8425568 28.9720325,44.6276705 C29.0244919,44.0252841 29.0914228,43.4686932 29.1746341,42.9526136 C29.238656,42.5179672 29.3292643,42.0874289 29.4459756,41.6632955 C29.5800499,41.172753 29.420791,40.6504119 29.0335366,40.3105682 C28.7513529,40.0207294 28.4377865,39.7614741 28.098313,39.5373295 C27.8809641,39.3992893 27.6508285,39.2813512 27.4109146,39.1850568 C27.2300203,39.1198864 27.0925407,39.0670455 26.9894309,39.0247727 C26.6748454,38.8958104 26.3438444,38.8087197 26.0053659,38.7658523 C25.5115244,38.6795455 25.2166667,38.8098864 25.1171748,39.1533523 C24.9362805,40.1397159 24.7849322,41.0521023 24.6631301,41.8905114 C24.5413279,42.7289205 24.4514837,43.5667424 24.3935976,44.4039773 C24.3367975,45.2843389 24.3501029,46.1676617 24.4333943,47.0460227 C24.5190176,47.9713258 24.6631301,48.9694318 24.8657317,50.0403409 C24.9833624,50.5012941 25.1621421,50.945369 25.397561,51.3613636 C25.6581338,51.798798 26.0167805,52.1732993 26.446748,52.4569318 C27.0038725,52.8221759 27.6077809,53.1147076 28.2430285,53.3270455 C29.1556275,53.6197114 30.0992352,53.8111503 31.055935,53.8977273 C31.1151534,53.9400157 31.1957003,53.9400157 31.2549187,53.8977273 C31.377553,53.7732623 31.4599521,53.6164734 31.4918902,53.4468182 C31.4822044,53.2471799 31.4356329,53.0508773 31.3544106,52.8673295 C31.2615515,52.6089962 31.1620596,52.2649432 31.055935,51.8351705 C30.9498103,51.4053977 30.8485095,50.9357008 30.7520325,50.4260795 C30.6073171,49.2647538 30.6917344,48.2554924 31.0052846,47.3982955 C31.1720393,46.8278135 31.4422048,46.2909575 31.8030285,45.8130682 C32.1262481,45.3895985 32.4831026,44.9914821 32.8703049,44.6223864 C32.899248,44.5783523 32.9661789,44.5783523 33.0692886,44.6223864 L33.1145122,44.7509659 C33.0337069,45.1112753 32.9864826,45.4779537 32.9734146,45.8465341 C32.960752,46.19 32.9643699,46.5123295 32.9824593,46.8117614 C32.9831439,48.1704818 33.1618632,49.5235654 33.5142886,50.8382386 C33.740066,51.6584825 34.0142753,52.4653545 34.3355488,53.2548295 C34.4351398,53.3766893 34.525235,53.5056281 34.6050813,53.6405682 C34.7417962,53.8397576 34.9346194,53.9963191 35.1604268,54.0914773 C35.7259686,54.3701089 36.3306369,54.5659679 36.9548984,54.6727273 C37.457408,54.7544268 37.9670621,54.7868807 38.4762195,54.7696023 C38.8799703,54.7559295 39.2801396,54.6907914 39.6665041,54.5758523 C40.0029675,54.467822 40.2881775,54.370947 40.5221341,54.2852273 C40.6041064,54.2650089 40.6696696,54.2052154 40.6957482,54.1268916 C40.7218268,54.0485678 40.7047654,53.9626918 40.6505691,53.8994886 C40.5512953,53.7366085 40.4309174,53.586838 40.2923984,53.4538636 Z" id="Path" fill="#000000"></path>
                <path d="M55.1257317,54.6128409 C54.1696739,53.7495172 53.471452,52.6503035 53.1051423,51.4318182 C52.7420417,50.2287662 52.5354141,48.9861046 52.4901016,47.7329545 C52.3468439,45.799584 52.4025958,43.857108 52.6565244,41.9345455 C52.8697393,40.2694988 53.2046403,38.6213785 53.6586789,37.0027273 C53.987137,35.7839035 54.4587649,34.6059996 55.0642276,33.4923295 C55.5839973,32.5905114 56.0850745,32.0750189 56.5674593,31.9458523 C56.6302686,31.9067108 56.7027644,31.8848039 56.7772967,31.8824432 C56.8424187,31.8824432 56.9039228,31.8384091 56.9581911,31.7521023 C56.9886269,31.6915369 56.9886269,31.620679 56.9581911,31.5601136 L56.9129675,31.4297727 C56.6482501,30.8543764 56.2631876,30.3390665 55.782378,29.9167614 C55.3851474,29.577024 54.9398117,29.2946652 54.4600407,29.0783523 C54.0538239,28.8970146 53.621159,28.7781755 53.1775,28.7260795 C52.8170801,28.6866913 52.4548052,28.6655266 52.0921341,28.6626705 C51.5621138,28.6626705 51.269065,28.7049432 51.2111789,28.79125 C50.6395528,28.9204167 50.1710366,29.4036174 49.8056301,30.2408523 C49.3968245,31.2174617 49.0907542,32.2319095 48.8921138,33.2686364 C48.63709,34.5245577 48.455901,35.7936294 48.3494309,37.0696591 C48.2288347,38.4223864 48.1625068,39.6999621 48.1504472,40.9023864 C47.9628125,40.6926693 47.8113106,40.4547386 47.7018293,40.1978409 C47.5916769,39.9412791 47.4402386,39.7034484 47.2532114,39.4932955 C47.048715,39.2817305 46.8074304,39.1070175 46.5404878,38.9772159 C46.2441565,38.7812792 45.9138129,38.6392498 45.5654675,38.5580114 C45.2561382,38.4946023 45.0065041,38.44 44.8147561,38.3977273 L44.0911789,38.3977273 C42.8430081,38.4846212 41.8028659,39.1304545 40.970752,40.3352273 C40.1145994,41.5985496 39.5476297,43.0264491 39.3083333,44.5219886 C39.0334075,46.1259429 39.0745392,47.7661923 39.4295325,49.3551705 C39.7913211,50.9861932 40.5559011,52.2743371 41.7232724,53.2196023 C41.8067786,53.2773513 41.8848682,53.3421879 41.956626,53.4133523 C42.0165177,53.4709536 42.0888097,53.5148726 42.1682724,53.5419318 L42.3491667,53.6705114 C42.4182851,53.6970561 42.4848699,53.7294729 42.5481504,53.7673864 C42.6115317,53.8062289 42.6788094,53.8386879 42.7489431,53.8642614 L42.814065,53.8642614 C43.1543032,54.0783703 43.5416968,54.2111462 43.9446545,54.2517614 C45.3134214,54.5089205 46.3837127,54.2940341 47.1555285,53.6071023 C47.9238582,52.9256816 48.5316967,52.0904809 48.9373374,51.1588068 C49.2348441,52.083372 49.7588168,52.9236156 50.4640854,53.6071023 C51.0355623,54.1504283 51.6881281,54.6064924 52.3996545,54.9598295 C53.1606027,55.3005958 53.9764501,55.5103669 54.8109756,55.5798295 C55.3247154,55.6667235 55.5809824,55.5810038 55.5797764,55.3226705 C55.592439,55.2363636 55.5182724,55.0848864 55.3536585,54.8717614 L55.1257317,54.6128409 Z M46.7069106,49.2336364 C46.1389024,49.6845455 45.6046612,49.8882765 45.104187,49.8448295 C44.3928215,49.7740205 43.7464293,49.4106147 43.3278049,48.8461364 C42.8815989,48.2660606 42.5698577,47.3536742 42.3925813,46.1089773 C42.3409158,45.6164897 42.3409158,45.120158 42.3925813,44.6276705 C42.4394816,44.1902878 42.5303645,43.7584443 42.6639228,43.3383523 C42.7765504,42.9867736 42.9358805,42.6510333 43.1378659,42.3396591 C43.2731665,42.1106517 43.4693924,41.9214124 43.705874,41.791875 C43.9072217,41.6812859 44.116379,41.5847554 44.3317683,41.5030114 C44.6006978,41.3949811 44.9425881,41.4272727 45.357439,41.5998864 L45.4243699,41.5998864 C45.8989073,41.8867041 46.3325647,42.2331515 46.7141463,42.6302841 C47.2495935,43.1446023 47.7163008,44.0892803 48.1142683,45.4643182 C48.0859063,45.5012153 48.0784338,45.5495011 48.0943699,45.5928977 C48.108832,45.6366597 48.1007511,45.6845259 48.0726626,45.7214773 C48.0986298,45.7828508 48.1109597,45.8488816 48.1088415,45.9152273 C48.1012539,45.9584213 48.1056247,46.0028039 48.1215041,46.0438068 C48.1215041,46.1723864 48.1215041,46.3027273 48.1215041,46.4313068 C48.1239218,46.5390419 48.1178743,46.6467993 48.1034146,46.7536364 L48.1522561,47.2679545 C48.1703455,47.4440909 48.186626,47.6114205 48.2029065,47.7840341 C47.7547154,48.3142295 47.2535947,48.7998095 46.7069106,49.2336364 L46.7069106,49.2336364 Z" id="Shape" fill="#000000"></path>
                <path d="M67.0539024,46.4313068 C66.7754476,46.3336616 66.5551648,46.1217493 66.4515244,45.8518182 C66.3556321,45.5608053 66.3151706,45.255178 66.3321341,44.95 C66.3461019,44.5814901 66.3933162,44.2148893 66.4732317,43.8544318 C66.5547997,43.4709463 66.6151845,43.0834769 66.654126,42.6936932 C66.7411368,42.2152142 66.757583,41.727094 66.7029675,41.2440909 C66.6523171,40.6640152 66.3007791,40.1356061 65.6483537,39.6588636 C65.2178252,39.3153977 64.8017683,39.1656818 64.396565,39.2079545 C64.030289,39.2429097 63.6712884,39.3301509 63.3310976,39.466875 C63.2668769,39.5557907 63.1669603,39.6140358 63.0561382,39.6271591 C62.9453554,39.6403105 62.8457917,39.6993763 62.7829878,39.7892045 C62.0215297,40.1712221 61.3538621,40.7089718 60.8257114,41.365625 C60.3771043,41.935853 59.9977215,42.5546789 59.695122,43.2097727 C59.4475452,43.7376721 59.2542516,44.2881408 59.1180691,44.853125 C59.0495192,45.1916496 58.9576587,45.5253006 58.8431098,45.8518182 C58.8551694,45.6369318 58.8714499,45.4326136 58.8919512,45.2388636 C58.9100407,45.0451136 58.9263211,44.8425568 58.9389837,44.6276705 C58.9914431,44.0252841 59.058374,43.4686932 59.1415854,42.9526136 C59.2056073,42.5179672 59.2962155,42.0874289 59.4129268,41.6632955 C59.5470012,41.172753 59.3877423,40.6504119 59.0004878,40.3105682 C58.7183041,40.0207294 58.4047377,39.7614741 58.0652642,39.5373295 C57.8479153,39.3992893 57.6177798,39.2813512 57.3778659,39.1850568 C57.1969715,39.1198864 57.0594919,39.0670455 56.9563821,39.0247727 C56.6417966,38.8958104 56.3107956,38.8087197 55.9723171,38.7658523 C55.4784756,38.6795455 55.1836179,38.8098864 55.084126,39.1533523 C54.9032317,40.1397159 54.7518835,41.0521023 54.6300813,41.8905114 C54.5082791,42.7289205 54.418435,43.5667424 54.3605488,44.4039773 C54.3046783,45.2843605 54.3179826,46.1676136 54.4003455,47.0460227 C54.4847629,47.9713258 54.6288753,48.9694318 54.8326829,50.0403409 C54.951126,50.5010416 55.1298655,50.9450167 55.3645122,51.3613636 C55.625085,51.798798 55.9837317,52.1732993 56.4136992,52.4569318 C56.9708237,52.8221759 57.5747321,53.1147076 58.2099797,53.3270455 C59.1249054,53.6202589 60.0709736,53.8117046 61.030122,53.8977273 C61.0885775,53.9402938 61.1688412,53.9402938 61.2272967,53.8977273 C61.3508252,53.7738843 61.4333713,53.6168156 61.4642683,53.4468182 C61.4860606,53.244134 61.4376719,53.0401713 61.3267886,52.8673295 C60.8769478,52.2194002 60.5820886,51.4814777 60.4639228,50.7078977 C60.3377922,49.9302026 60.3140845,49.1400156 60.393374,48.3564773 C60.4648725,47.6256696 60.6078238,46.903172 60.8202846,46.1988068 C60.9758161,45.6409377 61.2114979,45.1072567 61.5203455,44.6135795 C61.5492886,44.5695455 61.6144106,44.5695455 61.7175203,44.6135795 L61.7645528,44.7421591 C61.6270732,45.5999432 61.665061,46.15125 61.8821341,46.3855114 C62.1010246,46.6253216 62.3354609,46.8512384 62.5840041,47.061875 C62.9371589,47.3531356 63.3603588,47.5525042 63.8140854,47.6413636 C64.2613354,47.7262966 64.7174155,47.7588194 65.1726016,47.7382386 C65.5839736,47.7271915 65.9923262,47.666248 66.3882114,47.5568182 C66.75,47.449375 67.0430488,47.3525 67.2782114,47.2661932 C67.3601836,47.2459748 67.4257468,47.1861813 67.4518254,47.1078575 C67.477904,47.0295337 67.4608427,46.9436577 67.4066463,46.8804545 C67.3093126,46.7166423 67.1907601,46.5656898 67.0539024,46.4313068 Z" id="Path" fill="#000000"></path>
                <path d="M88.6382114,25.9413636 L75.0910366,7.91556818 C74.9040701,7.71951478 74.7289128,7.51309013 74.5664431,7.29732955 L71.5020935,3.21272727 C71.491756,3.20102759 71.4843278,3.1871648 71.4803862,3.17221591 C71.4546724,3.09830337 71.4194172,3.02787186 71.3754675,2.96261364 C71.3066573,2.85107087 71.215631,2.75405459 71.1077439,2.67727273 C71.096184,2.66798572 71.0858542,2.65733593 71.0769919,2.64556818 L70.8960976,2.41130682 C70.8648043,2.36877206 70.8141593,2.34378685 70.7604268,2.344375 L60.9794715,2.344375 C60.9613821,2.37079545 60.9451016,2.39721591 60.9233943,2.42539773 L57.7052846,6.71431818 C57.2138106,7.34073865 56.5705483,7.83878724 55.8330285,8.16392045 C55.1174161,8.51363283 54.3290855,8.6992054 53.528435,8.70642045 C52.2187602,8.70642045 51.5584959,8.14982955 51.2328862,7.68130682 C50.9778252,7.31494318 50.4839837,6.31977273 51.4336789,5.05159091 L51.4336789,5.05159091 L53.465122,2.34613636 L36.4465854,2.34613636 C36.426687,2.37255682 36.4104065,2.39897727 36.3905081,2.42715909 L33.1705894,6.71607955 C32.6783179,7.34272941 32.0336665,7.8402856 31.2947154,8.16392045 C30.5791031,8.51363283 29.7907725,8.6992054 28.990122,8.70642045 C27.6804472,8.70642045 27.018374,8.14982955 26.6945732,7.68130682 C26.4395122,7.31494318 25.9456707,6.31977273 26.8953659,5.05159091 L26.8953659,5.05159091 L28.9268089,2.34613636 L22.884939,2.34613636 C21.9779928,2.35716776 21.0854563,2.56856089 20.2746341,2.964375 C19.4948602,3.2987356 18.8115111,3.81470398 18.2847967,4.46681818 L2.46197154,25.5591477 C2.04229675,26.1175 1.96632114,26.6159659 2.21052846,27.0404545 C2.45473577,27.4649432 2.99380081,27.6815909 3.81144309,27.6815909 L7.51434959,27.6815909 C7.83272358,31.2166477 7.7748374,39.7117045 7.72780488,40.6980682 C7.74579766,40.8796542 7.74579766,41.0625049 7.72780488,41.2440909 C7.70832357,41.490905 7.70832357,41.7388109 7.72780488,41.985625 C7.43355014,41.8987311 7.01689024,41.7813068 6.4778252,41.6333523 C5.89955104,41.4749098 5.31327993,41.3455718 4.72134146,41.2458523 C4.07641574,41.1378001 3.42046149,41.105865 2.76768293,41.1507386 C2.14332893,41.1801732 1.53562989,41.3566603 0.996727642,41.6650568 C0.464182354,41.9318683 0.129672907,42.4663336 0.130243902,43.0494886 C0.108536585,43.6730114 0.366009485,44.3065152 0.902662602,44.95 C1.43931572,45.5934848 2.27384146,46.2058523 3.40623984,46.7871023 C4.53743225,47.367178 5.98458672,47.7857955 7.74770325,48.0429545 C7.80920732,49.5894318 7.90689024,51.0818939 8.04075203,52.5203409 C8.17461382,53.9587879 8.4073645,55.0220644 8.73900407,55.7101705 C9.44569783,57.2132008 10.1970122,57.9970076 10.9929472,58.0615909 C11.7888821,58.1261742 13.0189634,57.7075568 14.6831911,56.8057386 C14.7679038,56.7780116 14.8362812,56.7161541 14.8709003,56.6359279 C14.9055193,56.5557017 14.9030368,56.4648543 14.8640854,56.3865341 C14.8189024,56.2356271 14.7466352,56.0937017 14.6506301,55.9673295 L14.6054065,55.83875 C14.1712602,55.2387121 13.8329878,54.2828788 13.5905894,52.97125 C13.3481911,51.6596212 13.0539363,50.0156818 12.7078252,48.0394318 L12.6861179,47.9760227 C12.8338973,48.0900997 12.9685451,48.2194342 13.0877033,48.3617614 C14.3804946,49.653428 15.7528794,51.0707386 17.2048577,52.6136932 C18.656836,54.1566477 20.1136382,55.5956818 21.5752642,56.9307955 C22.9104471,58.1607425 24.338714,59.2912015 25.8479878,60.3126136 C27.2336382,61.2379167 28.5149729,61.7428409 29.6919919,61.8273864 C30.6061111,61.9142803 31.3544106,61.7851136 31.9368902,61.4398864 C32.5015686,61.1151266 32.9775038,60.6625851 33.3243496,60.120625 C33.6609463,59.5940126 33.9054601,59.0166627 34.0479268,58.4121023 C34.1738849,57.9040868 34.256772,57.3868552 34.295752,56.865625 C34.2613821,56.5221591 34.1311382,56.3072727 33.9032114,56.2227273 C33.688533,56.1389594 33.4597377,56.0947622 33.2284756,56.0923864 C32.1482872,56.1225896 31.0673439,56.0689922 29.9958943,55.9321023 C28.6186856,55.7817992 27.146206,55.2985985 25.5784553,54.4825 C23.9064175,53.5439752 22.3061653,52.4891108 20.7901829,51.3261364 C19.0174187,49.9945455 17.2048577,48.6412311 15.3525,47.2661932 C16.6142323,46.855478 17.7930989,46.2344657 18.8365244,45.4308523 C19.703446,44.7612874 20.4737511,43.9810281 21.1266463,43.1111364 C21.6451212,42.4262765 22.0707184,41.6791671 22.3929065,40.8882955 C22.6051804,40.3642464 22.77927,39.8262856 22.9138821,39.2784091 C22.982156,38.8295653 22.9772721,38.3730434 22.8994106,37.9256818 C22.8313303,37.4835023 22.6804995,37.0572396 22.4544106,36.6680682 C22.1505835,36.1488776 21.7620093,35.6812894 21.3039228,35.2836364 C20.8539523,34.8964792 20.3744068,34.5431886 19.8694309,34.2268182 C19.4271077,33.9380928 18.9454841,33.7110257 18.4385569,33.5522159 C17.9959688,33.421875 17.6390041,33.4107197 17.3676626,33.51875 C17.0981301,33.6261932 16.9715041,33.8939205 16.9914024,34.3236932 C17.0497,34.9990571 17.0684228,35.6771071 17.0474797,36.3545455 C17.0249468,37.3995 16.8700149,38.4377497 16.5861992,39.4457386 C16.2775793,40.5682319 15.7832998,41.634303 15.1227642,42.6021023 C14.4095689,43.639346 13.3867173,44.4385636 12.1922764,44.891875 C12.1371088,43.4741473 12.1654955,42.0545056 12.2772967,40.6399432 C12.9429878,37.2933523 13.2378455,31.6111932 13.000874,27.6886364 L50.9326016,27.6886364 L52.2911179,27.6886364 L55.7407724,27.6886364 C60.4928659,27.6181818 60.3590041,26.9682386 63.6422358,22.2865341 L70.8092683,11.4946591 C70.8402719,11.4504069 70.8917324,11.4239332 70.946748,11.4239332 C71.0017635,11.4239332 71.053224,11.4504069 71.0842276,11.4946591 L79.4940041,22.7673864 C77.8370122,23.3592045 77.4734146,25.6771591 77.1532317,27.2306818 C76.6557724,29.6402273 77.050122,37.3497159 77.0048984,40.9059091 C76.8165451,40.6963734 76.6644196,40.4584228 76.5544715,40.2013636 C76.4454506,39.9442362 76.2939044,39.706236 76.1058537,39.4968182 C75.902834,39.2844009 75.6619736,39.1095513 75.394939,38.9807386 C75.098262,38.7854099 74.7680356,38.6434309 74.4199187,38.5615341 C74.1087805,38.498125 73.8591463,38.4435227 73.6673984,38.40125 L72.9438211,38.40125 C71.6932385,38.4857955 70.6524932,39.1316288 69.8215854,40.33875 C68.9652613,41.6018135 68.3988419,43.0298811 68.1609756,44.5255114 C67.8845245,46.1292896 67.9250465,47.7697109 68.2803659,49.3586932 C68.6421545,50.9897159 69.4067344,52.2778598 70.5741057,53.223125 C70.6583865,53.2798997 70.7365673,53.344812 70.8074593,53.416875 C70.8676462,53.4745316 70.9398119,53.5189744 71.0191057,53.5472159 L71.2,53.6740341 C71.269629,53.7007278 71.3368017,53.7331361 71.4007927,53.7709091 C71.4632448,53.8102535 71.5299794,53.8427432 71.5997764,53.8677841 L71.6667073,53.8677841 C72.0059323,54.0822894 72.3929903,54.2145589 72.7954878,54.2535227 C74.1654607,54.5118561 75.236355,54.2975568 76.0081707,53.610625 C76.7755457,52.9287686 77.3827077,52.0936496 77.7881707,51.1623295 C78.0862659,52.08704 78.6108603,52.9272848 79.3167276,53.610625 C79.8871135,54.1544319 80.5391634,54.6105617 81.2504878,54.9633523 C82.0100036,55.3121956 82.8258362,55.5303059 83.6618089,55.6080114 C84.1779607,55.6949053 84.4342276,55.6085985 84.4306098,55.3490909 C84.4450813,55.2645455 84.3691057,55.1130682 84.2044919,54.8999432 L83.9819919,54.6410227 C83.0160508,53.7714655 82.3118469,52.6619521 81.945122,51.4318182 C80.7222764,47.3454545 82.0627033,30.5578977 83.2113821,27.6798295 C83.2274642,27.6865953 83.2445726,27.6907599 83.2620325,27.6921591 L87.7337398,27.6921591 C88.1573364,27.6911932 88.5444789,27.4586594 88.7354438,27.0904941 C88.9264086,26.7223289 88.8888299,26.2809314 88.6382114,25.9484091 L88.6382114,25.9413636 Z M5.88087398,45.1102841 C5.34643112,44.9504266 4.89847329,44.591484 4.6345122,44.1115909 C4.30407859,43.5526515 4.44758808,43.2408902 5.06504065,43.1763068 C5.68249322,43.1117235 6.55922764,43.3160417 7.6952439,43.7892614 C7.71423982,44.068425 7.71423982,44.3485068 7.6952439,44.6276705 C7.6764691,44.9282992 7.68312433,45.2299224 7.71514228,45.5294886 C7.09104159,45.4488681 6.4766393,45.3084523 5.88087398,45.1102841 L5.88087398,45.1102841 Z M18.7442683,19.6110227 L16.6911179,22.1614773 C16.464889,22.4528746 16.11115,22.6237873 15.7359959,22.6229545 L11.6568293,22.6229545 C11.2408918,22.6340287 10.8598664,22.3976185 10.6944715,22.0258523 C10.5238835,21.6445119 10.5889961,21.2020758 10.8627033,20.8827273 L12.9176626,18.3340341 C13.1425717,18.0420348 13.4961244,17.8708879 13.8709756,17.8725568 L17.9519512,17.8725568 C18.3672194,17.8604392 18.7479883,18.0964369 18.9125,18.4678977 C19.0839625,18.8491226 19.0187815,19.2920241 18.7442683,19.6110227 Z M25.618252,14.3022727 L27.6768293,11.7535795 C27.9015477,11.4611375 28.2550389,11.2893672 28.6301423,11.2903409 L32.7093089,11.2903409 C33.125386,11.2787749 33.5066707,11.515346 33.6716667,11.8874432 C33.8413875,12.2688971 33.7763426,12.7108735 33.503435,13.0305682 L31.4484756,15.5792614 C31.2233804,15.8712636 30.8701316,16.042916 30.4951626,16.0425 L26.4196138,16.0425 C26.0040479,16.0538282 25.6234152,15.8172169 25.459065,15.4453977 C25.2876025,15.0641728 25.3527836,14.6212714 25.6272967,14.3022727 L25.618252,14.3022727 Z M28.7169715,19.6110227 L26.6620122,22.1614773 C26.4365388,22.4528159 26.0833501,22.6237866 25.7086992,22.6229545 L21.6367683,22.6229545 C21.2214824,22.6333005 20.8413669,22.3970108 20.6762195,22.0258523 C20.5056315,21.6445119 20.570744,21.2020758 20.8444512,20.8827273 L22.8994106,18.3340341 C23.1246967,18.042476 23.4780061,17.8714469 23.8527236,17.8725568 L27.9336992,17.8725568 C28.3488277,17.860933 28.7293359,18.0967692 28.894248,18.4678977 C29.064836,18.8492381 28.9997234,19.2916742 28.7260163,19.6110227 L28.7169715,19.6110227 Z M38.6064634,19.6110227 L36.553313,22.1614773 C36.3274673,22.4523792 35.974518,22.623234 35.6,22.6229545 L31.5262602,22.6229545 C31.1109742,22.6333005 30.7308588,22.3970108 30.5657114,22.0258523 C30.3959906,21.6443983 30.4610354,21.202422 30.7339431,20.8827273 L32.7889024,18.3340341 C33.0141885,18.042476 33.367498,17.8714469 33.7422154,17.8725568 L37.8231911,17.8725568 C38.2384593,17.8604392 38.6192282,18.0964369 38.7837398,18.4678977 C38.9552023,18.8491226 38.8900213,19.2920241 38.6155081,19.6110227 L38.6064634,19.6110227 Z M36.300061,16.0425 C35.8846353,16.0533358 35.504262,15.8168858 35.3395122,15.4453977 C35.1697914,15.0639438 35.2348363,14.6219675 35.5077439,14.3022727 L37.571748,11.7535795 C37.7976056,11.4596376 38.1534771,11.2876896 38.5304878,11.2903409 L42.6114634,11.2903409 C43.0270293,11.2790127 43.4076621,11.515624 43.5720122,11.8874432 C43.7426002,12.2687835 43.6774877,12.7112196 43.4037805,13.0305682 L41.3506301,15.5792614 C41.1253476,15.8710448 40.7722191,16.0426388 40.3973171,16.0425 L36.300061,16.0425 Z M48.760061,19.6110227 L46.7069106,22.1614773 C46.4810649,22.4523792 46.1281156,22.623234 45.7535976,22.6229545 L41.6798577,22.6229545 C41.2645718,22.6333005 40.8844563,22.3970108 40.7193089,22.0258523 C40.5495881,21.6443983 40.614633,21.202422 40.8875407,20.8827273 L42.9425,18.3340341 C43.1677861,18.042476 43.5210955,17.8714469 43.895813,17.8725568 L47.9767886,17.8725568 C48.3920568,17.8604392 48.7728257,18.0964369 48.9373374,18.4678977 C49.1087999,18.8491226 49.0436189,19.2920241 48.7691057,19.6110227 L48.760061,19.6110227 Z M46.4536585,16.0425 C46.0382328,16.0533358 45.6578596,15.8168858 45.4931098,15.4453977 C45.3233889,15.0639438 45.3884338,14.6219675 45.6613415,14.3022727 L47.7163008,11.7535795 C47.9410192,11.4611375 48.2945105,11.2893672 48.6696138,11.2903409 L52.7505894,11.2903409 C53.1661553,11.2790127 53.5467881,11.515624 53.7111382,11.8874432 C53.8828567,12.2695443 53.8184526,12.7132862 53.5447154,13.0340909 L51.491565,15.5827841 C51.2662825,15.8745675 50.913154,16.0461615 50.538252,16.0460227 L46.4536585,16.0425 Z M58.9064228,19.6110227 L56.8532724,22.1614773 C56.6274267,22.4523792 56.2744774,22.623234 55.8999593,22.6229545 L51.8262195,22.6229545 C51.4109336,22.6333005 51.0308181,22.3970108 50.8656707,22.0258523 C50.6959499,21.6443983 50.7609948,21.202422 51.0339024,20.8827273 L53.0888618,18.3340341 C53.3141479,18.042476 53.6674573,17.8714469 54.0421748,17.8725568 L58.1231504,17.8725568 C58.5384186,17.8604392 58.9191875,18.0964369 59.0836992,18.4678977 C59.2551617,18.8491226 59.1899807,19.2920241 58.9154675,19.6110227 L58.9064228,19.6110227 Z M63.698313,13.0340909 L61.6451626,15.5827841 C61.4200673,15.8747863 61.0668186,16.0464387 60.6918496,16.0460227 L56.609065,16.0460227 C56.1937791,16.0563687 55.8136636,15.8200789 55.6485163,15.4489205 C55.4787954,15.0674665 55.5438403,14.6254902 55.816748,14.3057955 L57.8717073,11.7571023 C58.0968026,11.4651 58.4500514,11.2934476 58.8250203,11.2938636 L62.9059959,11.2938636 C63.3215618,11.2825355 63.7021946,11.5191468 63.8665447,11.8909659 C64.0371327,12.2723062 63.9720202,12.7147423 63.698313,13.0340909 Z M75.554126,49.2371591 C74.9861179,49.6880682 74.4518767,49.8917992 73.9514024,49.8483523 C73.2404847,49.7775317 72.594316,49.4148923 72.1750203,48.8514205 C71.7276084,48.2701705 71.4158672,47.357197 71.2397967,46.1125 C71.1890435,45.6199676 71.1890435,45.1237256 71.2397967,44.6311932 C71.2863923,44.193616 71.3778995,43.7616858 71.5129472,43.341875 C71.6248676,42.9900315 71.7842394,42.6542032 71.9868902,42.3431818 C72.1210449,42.1139195 72.3167789,41.9245515 72.5530894,41.7953977 C72.7540537,41.6840897 72.9632657,41.5875339 73.1789837,41.5065341 C73.4503252,41.3985038 73.7928184,41.4307955 74.2064634,41.6034091 L74.2715854,41.6034091 C74.7459991,41.8911345 75.1801393,42.2374817 75.5631707,42.6338068 C76.0986179,43.1492992 76.5653252,44.0939773 76.9632927,45.4678409 C76.9354837,45.5049068 76.9274257,45.552637 76.9415854,45.5964205 C76.9556871,45.6399736 76.9483435,45.6874269 76.921687,45.725 C76.9473046,45.7864294 76.9590273,45.8525125 76.9560569,45.91875 C76.9494305,45.9625558 76.9537747,46.007272 76.9687195,46.0490909 L76.9687195,46.4348295 C76.9706889,46.5426128 76.964036,46.6503817 76.9488211,46.7571591 C76.9651016,46.9332955 76.9831911,47.100625 76.9994715,47.2714773 C77.015752,47.4423295 77.0320325,47.6149432 77.050122,47.7875568 C76.6016871,48.3164706 76.1005782,48.8008592 75.554126,49.2336364 L75.554126,49.2371591 Z" id="Shape" fill="url(#linearGradient-1)"></path>
                <path d="M31.3960163,1.46193182 C31.7471918,1.02370276 32.2038385,0.6764634 32.7255894,0.450909091 C33.2460861,0.192937574 33.8203086,0.0543628056 34.4042886,0.0457954545 C34.9469715,0.0457954545 35.3087602,0.179659091 35.5005081,0.450909091 C35.6922561,0.722159091 35.6361789,1.05681818 35.3286585,1.46193182 L32.1087398,5.75261364 C31.7544234,6.1931505 31.2923183,6.54015147 30.7646951,6.761875 C30.2342231,7.01736138 29.6523744,7.15568971 29.0606707,7.16698864 C28.5179878,7.16698864 28.1561992,7.03488636 27.9897764,6.761875 C27.8233537,6.48886364 27.877622,6.15244318 28.1706707,5.75261364 L31.3905894,1.46193182 L31.3960163,1.46193182 Z" id="Path" fill="#111111"></path>
            </g>
        </g>
    </g>
</svg>