<?xml version="1.0" encoding="UTF-8"?>
<svg width="30px" height="20px" viewBox="0 0 30 20" version="1.1" xmlns="http://www.w3.org/2000/svg" xmlns:xlink="http://www.w3.org/1999/xlink">
    <!-- Generator: Sketch 53.2 (72643) - https://sketchapp.com -->
    <title>Path</title>
    <desc>Created with Sketch.</desc>
    <g id="Page-1" stroke="none" stroke-width="1" fill="none" fill-rule="evenodd">
        <g id="Landing-Page" transform="translate(-571.000000, -1004.000000)" fill="#1E201D" fill-rule="nonzero">
            <g id="Explore-Arrow" transform="translate(571.000000, 1004.000000)">
                <path d="M20.2016513,0.300785837 C19.7929501,-0.100261946 19.1127342,-0.100261946 18.6897428,0.300785837 C18.2810416,0.688284708 18.2810416,1.3332129 18.6897428,1.71980851 L26.355986,8.98834794 L1.05843125,8.98834794 C0.468720229,8.9892512 0,9.4336555 0,9.99277391 C0,10.5518923 0.468720229,11.0107488 1.05843125,11.0107488 L26.355986,11.0107488 L18.6897428,18.2657393 C18.2810416,18.6667871 18.2810416,19.3126186 18.6897428,19.6992142 C19.1127342,20.1002619 19.7939028,20.1002619 20.2016513,19.6992142 L29.6827564,10.709963 C30.1057479,10.3224641 30.1057479,9.6775359 29.6827564,9.29094029 L20.2016513,0.300785837 Z" id="Path"></path>
            </g>
        </g>
    </g>
</svg>