<?xml version="1.0" encoding="UTF-8"?>
<svg width="32px" height="58px" viewBox="0 0 32 58" version="1.1" xmlns="http://www.w3.org/2000/svg" xmlns:xlink="http://www.w3.org/1999/xlink">
    <!-- Generator: Sketch 53.2 (72643) - https://sketchapp.com -->
    <title>Lead management icon</title>
    <desc>Created with Sketch.</desc>
    <g id="Page-1" stroke="none" stroke-width="1" fill="none" fill-rule="evenodd">
        <g id="Management-Software" transform="translate(-560.000000, -4160.000000)" fill="#82C1C4" fill-rule="nonzero">
            <g id="Lead-management-icon" transform="translate(560.000000, 4160.000000)">
                <path d="M31.2967033,18.1554622 L24.8649377,18.1554622 C24.6070029,15.9337398 22.7934066,14.2623112 20.6406447,14.2623112 C18.4878828,14.2623112 16.6742865,15.9337398 16.4163516,18.1554622 L0.820512821,18.1554622 C0.566174911,18.1606478 0.332879685,18.3034372 0.205126267,18.5321125 C0.0773728476,18.7607878 0.0736853077,19.0421913 0.195399267,19.2743992 L11.4871795,38.0356933 L11.4871795,42.8948992 C11.4990569,43.1660906 11.6489965,43.4101732 11.880674,43.535458 L19.5143736,47.8938655 C19.6208942,47.9533573 19.7399435,47.9844633 19.8608645,47.9843992 C19.9786751,47.9841988 20.0939604,47.9488891 20.1930549,47.8826555 C20.401013,47.7479828 20.5231757,47.507408 20.5128205,47.2529412 L20.5128205,38.0356933 L31.8632088,19.2742773 C32.0036739,19.0518303 32.0167832,18.7676152 31.8974359,18.5322185 C31.779811,18.3006294 31.5486326,18.1556432 31.2967033,18.1554622 Z M20.6405861,15.7208025 C22.0119579,15.738897 23.1825227,16.7557703 23.4432234,18.1554622 L17.8377143,18.1554622 C18.098433,16.7556816 19.2691258,15.7387823 20.6405861,15.7208025 L20.6405861,15.7208025 Z M19.2430183,37.4275462 C19.1639175,37.5450023 19.1166695,37.6824159 19.1062271,37.8253824 L19.1062271,46.0164202 L12.8937729,42.4627017 L12.8937729,37.8253824 C12.9039008,37.6877867 12.8768205,37.549988 12.8155897,37.4275462 L5.92691575,25.9537815 L26.1903004,25.9537815 L19.2430183,37.4275462 Z M27.0725861,24.4915966 L5.04463004,24.4915966 L2.09183883,19.6176471 L30.0253773,19.6176471 L27.0725861,24.4915966 Z" id="Shape"></path>
                <path d="M19.6659341,8.92529832 C22.0158753,8.92529832 23.9208791,6.94500486 23.9208791,4.50218908 C23.9208791,2.05937329 22.0158753,0.0790798319 19.6659341,0.0790798319 C17.3159928,0.0790798319 15.410989,2.05937329 15.410989,4.50218908 C15.4139597,6.94372458 17.3172244,8.92221023 19.6659341,8.92529832 Z M19.6659341,1.54016807 C21.2390352,1.54016807 22.5142857,2.86581906 22.5142857,4.50109244 C22.5142857,6.13636581 21.2390352,7.46201681 19.6659341,7.46201681 C18.0928329,7.46201681 16.8175824,6.13636581 16.8175824,4.50109244 C16.8196488,2.86670963 18.0936896,1.5423161 19.6659341,1.54016807 Z" id="Shape"></path>
                <path d="M8.20782418,16.3105504 C10.5580891,16.3105504 12.4633553,14.3299842 12.4633553,11.8868319 C12.4633553,9.44367967 10.5580891,7.46311345 8.20782418,7.46311345 C5.85755923,7.46311345 3.95229304,9.44367967 3.95229304,11.8868319 C3.95494152,14.3288429 5.85865714,16.3077973 8.20782418,16.3105504 L8.20782418,16.3105504 Z M8.20782418,8.92529832 C9.78124904,8.92529832 11.0567619,10.2512221 11.0567619,11.8868319 C11.0567619,13.5224418 9.78124904,14.8483655 8.20782418,14.8483655 C6.63439931,14.8483655 5.35888645,13.5224418 5.35888645,11.8868319 C5.36063063,10.2519737 6.63512235,8.92711144 8.20782418,8.92529832 Z" id="Shape"></path>
                <path d="M11.6008791,53.2308403 C11.6008791,55.8217056 13.6213377,57.9220168 16.1136996,57.9220168 C18.6060616,57.9220168 20.6265201,55.8217056 20.6265201,53.2308403 C20.6236779,50.6411999 18.6048834,48.5426184 16.1136996,48.5396639 C13.6213377,48.5396639 11.6008791,50.6399751 11.6008791,53.2308403 Z M13.0074725,53.2308403 C13.0074725,51.4475175 14.3981778,50.0018487 16.1136996,50.0018487 C17.8292215,50.0018487 19.2199267,51.4475175 19.2199267,53.2308403 C19.2179888,55.0133281 17.8284181,56.4578174 16.1136996,56.4598319 C14.3981778,56.4598319 13.0074725,55.0141632 13.0074725,53.2308403 Z" id="Shape"></path>
            </g>
        </g>
    </g>
</svg>