<?xml version="1.0" encoding="UTF-8"?>
<svg width="418px" height="433px" viewBox="0 0 418 433" version="1.1" xmlns="http://www.w3.org/2000/svg" xmlns:xlink="http://www.w3.org/1999/xlink">
    <!-- Generator: Sketch 53.2 (72643) - https://sketchapp.com -->
    <title>Group 19</title>
    <desc>Created with Sketch.</desc>
    <g id="Page-1" stroke="none" stroke-width="1" fill="none" fill-rule="evenodd">
        <g id="Management-Software" transform="translate(-162.000000, -2937.000000)">
            <g id="Group-19" transform="translate(162.000000, 2937.000000)">
                <path d="M223,372 C322.411255,372 403,291.411255 403,192 C403,92.588745 322.411255,12 223,12 C123.588745,12 43,92.588745 43,192 C43,291.411255 123.588745,372 223,372 Z" id="Oval" stroke="#D1D1D6" stroke-dasharray="20"></path>
                <g id="Group-15" transform="translate(143.000000, 106.000000)" stroke="#8E8E93">
                    <rect id="Rectangle" x="11.5" y="0.5" width="149" height="169" rx="8"></rect>
                    <rect id="Rectangle" fill="#FFFFFF" x="0.5" y="5.5" width="149" height="169" rx="8"></rect>
                    <rect id="Rectangle" fill="#FFFFFF" x="6.5" y="10.5" width="149" height="169" rx="8"></rect>
                </g>
                <rect id="Rectangle" fill="#82C1C4" x="168" y="156" width="111" height="20" rx="10"></rect>
                <rect id="Rectangle" fill="#82C1C4" x="168" y="186" width="111" height="20" rx="10"></rect>
                <rect id="Rectangle" fill="#82C1C4" x="168" y="216" width="111" height="20" rx="10"></rect>
                <text id="Bookings" font-family="Helvetica" font-size="10" font-weight="normal" fill="#FFFFFF">
                    <tspan x="202" y="170">Bookings</tspan>
                </text>
                <g id="Group-14" transform="translate(313.000000, 0.000000)">
                    <rect id="Rectangle" stroke="#D1D1D6" fill="#FFFFFF" x="0.5" y="0.5" width="104" height="89" rx="8"></rect>
                    <path d="M1,11 L104.5,11" id="Line-3" stroke="#D1D1D6" stroke-linecap="square"></path>
                    <circle id="Oval" fill="#D1D1D6" cx="8" cy="6" r="2"></circle>
                    <circle id="Oval" fill="#D1D1D6" cx="16" cy="6" r="2"></circle>
                    <circle id="Oval" fill="#D1D1D6" cx="24" cy="6" r="2"></circle>
                </g>
                <text id="Assets" font-family="Helvetica" font-size="10" font-weight="normal" fill="#FFFFFF">
                    <tspan x="208" y="200">Assets</tspan>
                </text>
                <text id="Mantenance" font-family="Helvetica" font-size="10" font-weight="normal" fill="#FFFFFF">
                    <tspan x="196" y="230">Mantenance</tspan>
                </text>
                <g id="Group-13" transform="translate(0.000000, 36.000000)">
                    <rect id="Rectangle" stroke="#D1D1D6" fill="#FFFFFF" x="0.5" y="0.5" width="104" height="89" rx="8"></rect>
                    <path d="M1,11 L104.5,11" id="Line-3" stroke="#D1D1D6" stroke-linecap="square"></path>
                    <circle id="Oval" fill="#D1D1D6" cx="8" cy="6" r="2"></circle>
                    <circle id="Oval" fill="#D1D1D6" cx="16" cy="6" r="2"></circle>
                    <circle id="Oval" fill="#D1D1D6" cx="24" cy="6" r="2"></circle>
                </g>
                <g id="booking" transform="translate(26.000000, 59.000000)" fill="#D1D1D6" fill-rule="nonzero">
                    <path d="M47.6666667,6.93333333 L46.8,6.93333333 L46.8,2.6 C46.8,1.16653333 45.6334667,0 44.2,0 L42.4666667,0 C41.0332,0 39.8666667,1.16653333 39.8666667,2.6 L39.8666667,6.93333333 L12.1333333,6.93333333 L12.1333333,2.6 C12.1333333,1.16653333 10.9668,0 9.53333333,0 L7.8,0 C6.36653333,0 5.2,1.16653333 5.2,2.6 L5.2,6.93333333 L4.33333333,6.93333333 C1.94393333,6.93333333 0,8.87726667 0,11.2666667 L0,47.6666667 C0,50.0560667 1.94393333,52 4.33333333,52 L47.6666667,52 C50.0560667,52 52,50.0560667 52,47.6666667 L52,11.2666667 C52,8.87726667 50.0560667,6.93333333 47.6666667,6.93333333 Z M41.6,7.8 L41.6,2.6 C41.6,2.1216 41.9882667,1.73333333 42.4666667,1.73333333 L44.2,1.73333333 C44.6784,1.73333333 45.0666667,2.1216 45.0666667,2.6 L45.0666667,7.8 L45.0666667,11.2666667 C45.0666667,11.7450667 44.6784,12.1333333 44.2,12.1333333 L42.4666667,12.1333333 C41.9882667,12.1333333 41.6,11.7450667 41.6,11.2666667 L41.6,7.8 Z M6.93333333,7.8 L6.93333333,2.6 C6.93333333,2.1216 7.3216,1.73333333 7.8,1.73333333 L9.53333333,1.73333333 C10.0117333,1.73333333 10.4,2.1216 10.4,2.6 L10.4,7.8 L10.4,11.2666667 C10.4,11.7450667 10.0117333,12.1333333 9.53333333,12.1333333 L7.8,12.1333333 C7.3216,12.1333333 6.93333333,11.7450667 6.93333333,11.2666667 L6.93333333,7.8 Z M50.2666667,47.6666667 C50.2666667,49.1001333 49.1001333,50.2666667 47.6666667,50.2666667 L4.33333333,50.2666667 C2.89986667,50.2666667 1.73333333,49.1001333 1.73333333,47.6666667 L1.73333333,22.5333333 L50.2666667,22.5333333 L50.2666667,47.6666667 Z M50.2666667,20.8 L1.73333333,20.8 L1.73333333,11.2666667 C1.73333333,9.8332 2.89986667,8.66666667 4.33333333,8.66666667 L5.2,8.66666667 L5.2,11.2666667 C5.2,12.7001333 6.36653333,13.8666667 7.8,13.8666667 L9.53333333,13.8666667 C10.9668,13.8666667 12.1333333,12.7001333 12.1333333,11.2666667 L12.1333333,8.66666667 L39.8666667,8.66666667 L39.8666667,11.2666667 C39.8666667,12.7001333 41.0332,13.8666667 42.4666667,13.8666667 L44.2,13.8666667 C45.6334667,13.8666667 46.8,12.7001333 46.8,11.2666667 L46.8,8.66666667 L47.6666667,8.66666667 C49.1001333,8.66666667 50.2666667,9.8332 50.2666667,11.2666667 L50.2666667,20.8 Z" id="Shape"></path>
                    <path d="M35.5333333,11.2666667 L16.4666667,11.2666667 C15.9874,11.2666667 15.6,11.6540667 15.6,12.1333333 L15.6,17.3333333 C15.6,17.8126 15.9874,18.2 16.4666667,18.2 L35.5333333,18.2 C36.0126,18.2 36.4,17.8126 36.4,17.3333333 L36.4,12.1333333 C36.4,11.6540667 36.0126,11.2666667 35.5333333,11.2666667 Z M34.6666667,16.4666667 L17.3333333,16.4666667 L17.3333333,13 L34.6666667,13 L34.6666667,16.4666667 Z" id="Shape"></path>
                    <path d="M11.2666667,25.1333333 L6.06666667,25.1333333 C5.5874,25.1333333 5.2,25.5207333 5.2,26 L5.2,30.3333333 C5.2,30.8126 5.5874,31.2 6.06666667,31.2 L11.2666667,31.2 C11.7459333,31.2 12.1333333,30.8126 12.1333333,30.3333333 L12.1333333,26 C12.1333333,25.5207333 11.7459333,25.1333333 11.2666667,25.1333333 Z M10.4,29.4666667 L6.93333333,29.4666667 L6.93333333,26.8666667 L10.4,26.8666667 L10.4,29.4666667 Z" id="Shape"></path>
                    <path d="M22.5333333,25.1333333 L17.3333333,25.1333333 C16.8540667,25.1333333 16.4666667,25.5207333 16.4666667,26 L16.4666667,30.3333333 C16.4666667,30.8126 16.8540667,31.2 17.3333333,31.2 L22.5333333,31.2 C23.0126,31.2 23.4,30.8126 23.4,30.3333333 L23.4,26 C23.4,25.5207333 23.0126,25.1333333 22.5333333,25.1333333 Z M21.6666667,29.4666667 L18.2,29.4666667 L18.2,26.8666667 L21.6666667,26.8666667 L21.6666667,29.4666667 Z" id="Shape"></path>
                    <path d="M34.6666667,25.1333333 L29.4666667,25.1333333 C28.9874,25.1333333 28.6,25.5207333 28.6,26 L28.6,30.3333333 C28.6,30.8126 28.9874,31.2 29.4666667,31.2 L34.6666667,31.2 C35.1459333,31.2 35.5333333,30.8126 35.5333333,30.3333333 L35.5333333,26 C35.5333333,25.5207333 35.1459333,25.1333333 34.6666667,25.1333333 Z M33.8,29.4666667 L30.3333333,29.4666667 L30.3333333,26.8666667 L33.8,26.8666667 L33.8,29.4666667 Z" id="Shape"></path>
                    <path d="M45.9333333,25.1333333 L40.7333333,25.1333333 C40.2540667,25.1333333 39.8666667,25.5207333 39.8666667,26 L39.8666667,30.3333333 C39.8666667,30.8126 40.2540667,31.2 40.7333333,31.2 L45.9333333,31.2 C46.4126,31.2 46.8,30.8126 46.8,30.3333333 L46.8,26 C46.8,25.5207333 46.4126,25.1333333 45.9333333,25.1333333 Z M45.0666667,29.4666667 L41.6,29.4666667 L41.6,26.8666667 L45.0666667,26.8666667 L45.0666667,29.4666667 Z" id="Shape"></path>
                    <path d="M11.2666667,33.8 L6.06666667,33.8 C5.5874,33.8 5.2,34.1874 5.2,34.6666667 L5.2,39 C5.2,39.4792667 5.5874,39.8666667 6.06666667,39.8666667 L11.2666667,39.8666667 C11.7459333,39.8666667 12.1333333,39.4792667 12.1333333,39 L12.1333333,34.6666667 C12.1333333,34.1874 11.7459333,33.8 11.2666667,33.8 Z M10.4,38.1333333 L6.93333333,38.1333333 L6.93333333,35.5333333 L10.4,35.5333333 L10.4,38.1333333 Z" id="Shape"></path>
                    <path d="M22.5333333,33.8 L17.3333333,33.8 C16.8540667,33.8 16.4666667,34.1874 16.4666667,34.6666667 L16.4666667,39 C16.4666667,39.4792667 16.8540667,39.8666667 17.3333333,39.8666667 L22.5333333,39.8666667 C23.0126,39.8666667 23.4,39.4792667 23.4,39 L23.4,34.6666667 C23.4,34.1874 23.0126,33.8 22.5333333,33.8 Z M21.6666667,38.1333333 L18.2,38.1333333 L18.2,35.5333333 L21.6666667,35.5333333 L21.6666667,38.1333333 Z" id="Shape"></path>
                    <path d="M34.6666667,33.8 L29.4666667,33.8 C28.9874,33.8 28.6,34.1874 28.6,34.6666667 L28.6,39 C28.6,39.4792667 28.9874,39.8666667 29.4666667,39.8666667 L34.6666667,39.8666667 C35.1459333,39.8666667 35.5333333,39.4792667 35.5333333,39 L35.5333333,34.6666667 C35.5333333,34.1874 35.1459333,33.8 34.6666667,33.8 Z M33.8,38.1333333 L30.3333333,38.1333333 L30.3333333,35.5333333 L33.8,35.5333333 L33.8,38.1333333 Z" id="Shape"></path>
                    <path d="M45.9333333,33.8 L40.7333333,33.8 C40.2540667,33.8 39.8666667,34.1874 39.8666667,34.6666667 L39.8666667,39 C39.8666667,39.4792667 40.2540667,39.8666667 40.7333333,39.8666667 L45.9333333,39.8666667 C46.4126,39.8666667 46.8,39.4792667 46.8,39 L46.8,34.6666667 C46.8,34.1874 46.4126,33.8 45.9333333,33.8 Z M45.0666667,38.1333333 L41.6,38.1333333 L41.6,35.5333333 L45.0666667,35.5333333 L45.0666667,38.1333333 Z" id="Shape"></path>
                    <path d="M11.2666667,42.4666667 L6.06666667,42.4666667 C5.5874,42.4666667 5.2,42.8540667 5.2,43.3333333 L5.2,47.6666667 C5.2,48.1459333 5.5874,48.5333333 6.06666667,48.5333333 L11.2666667,48.5333333 C11.7459333,48.5333333 12.1333333,48.1459333 12.1333333,47.6666667 L12.1333333,43.3333333 C12.1333333,42.8540667 11.7459333,42.4666667 11.2666667,42.4666667 Z M10.4,46.8 L6.93333333,46.8 L6.93333333,44.2 L10.4,44.2 L10.4,46.8 Z" id="Shape"></path>
                    <path d="M22.5333333,42.4666667 L17.3333333,42.4666667 C16.8540667,42.4666667 16.4666667,42.8540667 16.4666667,43.3333333 L16.4666667,47.6666667 C16.4666667,48.1459333 16.8540667,48.5333333 17.3333333,48.5333333 L22.5333333,48.5333333 C23.0126,48.5333333 23.4,48.1459333 23.4,47.6666667 L23.4,43.3333333 C23.4,42.8540667 23.0126,42.4666667 22.5333333,42.4666667 Z M21.6666667,46.8 L18.2,46.8 L18.2,44.2 L21.6666667,44.2 L21.6666667,46.8 Z" id="Shape"></path>
                    <path d="M34.8677333,41.912 L31.1419333,46.3831333 L29.2127333,44.4539333 L27.9872667,45.6794 L30.5872667,48.2794 C30.7493333,48.4432 30.9703333,48.5333333 31.2,48.5333333 C31.213,48.5333333 31.226,48.5333333 31.239,48.5324667 C31.4825333,48.5212 31.7096,48.4085333 31.8664667,48.2222 L36.1998,43.0222 L34.8677333,41.912 Z" id="Path"></path>
                    <path d="M45.2677333,41.912 L41.5419333,46.3831333 L39.6127333,44.4539333 L38.3872667,45.6794 L40.9872667,48.2794 C41.1493333,48.4432 41.3703333,48.5333333 41.6,48.5333333 C41.613,48.5333333 41.626,48.5333333 41.639,48.5324667 C41.8825333,48.5212 42.1096,48.4085333 42.2664667,48.2222 L46.5998,43.0222 L45.2677333,41.912 Z" id="Path"></path>
                </g>
                <g id="Group-12" transform="translate(171.000000, 343.000000)">
                    <rect id="Rectangle" stroke="#D1D1D6" fill="#FFFFFF" x="0.5" y="0.5" width="104" height="89" rx="8"></rect>
                    <path d="M1,11 L104.5,11" id="Line-3" stroke="#D1D1D6" stroke-linecap="square"></path>
                    <circle id="Oval" fill="#D1D1D6" cx="8" cy="6" r="2"></circle>
                    <circle id="Oval" fill="#D1D1D6" cx="16" cy="6" r="2"></circle>
                    <circle id="Oval" fill="#D1D1D6" cx="24" cy="6" r="2"></circle>
                </g>
                <g id="tools" transform="translate(200.000000, 370.000000)" fill="#D1D1D6" fill-rule="nonzero">
                    <path d="M37.6728343,34.3101602 C35.8223431,34.3101602 34.3168967,35.8186367 34.3168967,37.6726523 C34.3168967,39.526668 35.8223431,41.0351445 37.6728343,41.0351445 C39.5233255,41.0351445 41.0287719,39.526668 41.0287719,37.6726523 C41.0287719,35.8186367 39.5233255,34.3101602 37.6728343,34.3101602 Z M37.6728343,39.2009844 C36.831653,39.2009844 36.1473918,38.5153867 36.1473918,37.6725625 C36.1473918,36.8297383 36.831653,36.1441406 37.6728343,36.1441406 C38.5140156,36.1441406 39.1982768,36.8297383 39.1982768,37.6725625 C39.1982768,38.5153867 38.5140156,39.2009844 37.6728343,39.2009844 Z" id="Shape"></path>
                    <path d="M8.38482261,4.96494531 C6.53433138,4.96494531 5.02888499,6.47342188 5.02888499,8.3274375 C5.02888499,10.1814531 6.53433138,11.6899297 8.38482261,11.6899297 C10.2353138,11.6899297 11.7407602,10.1814531 11.7407602,8.3274375 C11.7407602,6.47342188 10.2353138,4.96494531 8.38482261,4.96494531 Z M8.38482261,9.85576953 C7.54364133,9.85576953 6.85938012,9.17017188 6.85938012,8.32734766 C6.85938012,7.48452344 7.54364133,6.79892578 8.38482261,6.79892578 C9.2260039,6.79892578 9.91026511,7.48452344 9.91026511,8.32734766 C9.91026511,9.17017188 9.2260039,9.85576953 8.38482261,9.85576953 Z" id="Shape"></path>
                    <path d="M37.6728343,29.4192461 C36.6520468,29.4192461 35.6631813,29.6020781 34.7249786,29.9636094 L27.7748538,23 L34.7252476,16.0361211 C35.66354,16.3976523 36.6524055,16.5805742 37.672924,16.5805742 C37.6730136,16.5805742 37.6730136,16.5805742 37.673193,16.5805742 C39.8732125,16.5805742 41.9417778,15.7219375 43.4976179,14.1632383 C45.0534581,12.6043594 45.9102417,10.5318438 45.9103314,8.32734766 C45.9103314,7.08265234 45.6398908,5.88530469 45.1066316,4.76872656 C44.9784951,4.50036328 44.72823,4.31097266 44.4355517,4.26066016 C44.1430526,4.2104375 43.8440975,4.30576172 43.6339142,4.51608594 L39.3987758,8.75949609 L37.2414386,6.598125 L41.476577,2.35480469 C41.6865809,2.14421094 41.7816296,1.84494141 41.7315049,1.55160156 C41.6813801,1.25844141 41.4923587,1.00759766 41.2244288,0.879121094 C40.110117,0.344910156 38.9152827,0.0741210938 37.672924,0.0741210938 C33.1308499,0.0741210938 29.4356959,3.77649219 29.4356959,8.3274375 C29.4356959,9.35012891 29.6182612,10.3409258 29.9790877,11.2810508 L23.0288733,18.2448398 L16.0786589,11.2810508 C16.4396647,10.3409258 16.6220507,9.35021875 16.6220507,8.3274375 C16.6220507,3.77649219 12.9268967,0.0741210938 8.38482261,0.0741210938 C3.84274854,0.0741210938 0.147684211,3.77640234 0.147684211,8.32734766 C0.147684211,12.878293 3.84283821,16.5806641 8.38491228,16.5806641 C9.40569981,16.5806641 10.3945653,16.397832 11.332768,16.0363008 L18.2828031,23.0001797 L11.3337544,29.9627109 C10.3512554,29.5611992 9.31262378,29.3580625 8.23731774,29.3580625 C3.69533333,29.3581523 0,33.0605234 0,37.6113789 C0,38.8560742 0.270440546,40.0534219 0.803610136,41.17 C0.931746589,41.4383633 1.1820117,41.6277539 1.47477973,41.6780664 C1.76736842,41.7282891 2.06641326,41.6330547 2.27641715,41.4226406 L6.51155556,37.1792305 L8.66889279,39.3407813 L4.43375439,43.5841016 C4.22375049,43.7946953 4.12870175,44.0940547 4.17882651,44.3873047 C4.22895127,44.6805547 4.41797271,44.9313086 4.68590253,45.0597852 C5.80030409,45.5939961 6.99522807,45.8649648 8.23758674,45.8649648 C12.7796608,45.864875 16.4748148,42.1623242 16.4748148,37.6114688 C16.4748148,36.6474453 16.3108109,35.7083984 15.9865692,34.811668 L23.0291423,27.7553398 L29.9793567,34.7191289 C29.6185302,35.6592539 29.4359649,36.6499609 29.4359649,37.6727422 C29.4359649,42.2236875 33.1311189,45.9260586 37.673193,45.9260586 C42.2152671,45.9260586 45.9104211,42.2236875 45.9104211,37.6727422 C45.9103314,33.121707 42.2149084,29.4192461 37.6728343,29.4192461 Z M12.1884756,14.2999805 C11.9139103,14.0251484 11.4963236,13.9537227 11.1461676,14.1211914 C10.2805965,14.5362695 9.35153996,14.7465938 8.38482261,14.7465938 C4.85205848,14.7465938 1.97808967,11.866832 1.97808967,8.32734766 C1.97808967,4.78786328 4.85214815,1.90810156 8.38482261,1.90810156 C11.9175867,1.90810156 14.7915556,4.78786328 14.7915556,8.32734766 C14.7915556,9.29595313 14.5815517,10.2268242 14.1673723,11.0940859 C13.9997817,11.4448359 14.0713372,11.863418 14.3458129,12.1384297 L21.7344172,19.5417344 L19.5772593,21.7031055 L12.1884756,14.2999805 Z M14.2630487,33.9443164 C13.9936842,34.214207 13.9194386,34.6229062 14.0763587,34.9707813 C14.4529669,35.80525 14.6440507,36.6938047 14.6440507,37.6114688 C14.6440507,41.1509531 11.7700819,44.0307148 8.23731774,44.0308945 C7.72979337,44.0308945 7.23249123,43.9728555 6.74935673,43.8576758 L10.6102183,39.9892734 C10.9676374,39.6309766 10.9676374,39.0504961 10.6102183,38.6923789 L7.15860429,35.2340234 C6.80118519,34.8761758 6.22165692,34.8761758 5.86432749,35.2340234 L2.00346589,39.1026055 C1.88842105,38.6184375 1.83040546,38.1201641 1.83040546,37.6114687 C1.83040546,34.0719844 4.70455361,31.1923125 8.2371384,31.1923125 C9.24895906,31.1923125 10.2187251,31.4235703 11.1197154,31.8792578 C11.4727407,32.0578672 11.9000117,31.9890469 12.1794191,31.7091836 L31.7120234,12.1386094 C31.986499,11.8635977 32.0579649,11.4451055 31.8904639,11.0942656 C31.4761949,10.2268242 31.2661014,9.29604297 31.2661014,8.32752734 C31.2661014,4.78804297 34.1402495,1.90828125 37.6728343,1.90828125 C38.1803587,1.90828125 38.6776608,1.96632031 39.1607057,2.08141016 L35.2998441,5.9498125 C34.942425,6.30810938 34.942425,6.88858984 35.2998441,7.24670703 L38.7514581,10.7050625 C39.1088772,11.0630898 39.6884055,11.0630898 40.0457349,10.7050625 L43.9065965,6.83648047 C44.0215517,7.32055859 44.0794776,7.81883203 44.0794776,8.32734766 C44.0793879,10.0419258 43.4130604,11.6539922 42.2028031,12.8664336 C40.9927251,14.078875 39.3838012,14.7465039 37.6725653,14.7465039 C36.7060273,14.7465039 35.7770604,14.5359102 34.9113099,14.1209219 C34.561154,13.9532734 34.1434776,14.0246992 33.8690019,14.2997109 L14.2630487,33.9443164 Z M37.6728343,44.0918984 C34.1400702,44.0918984 31.2661014,41.2121367 31.2661014,37.6726523 C31.2661014,36.7040469 31.4761053,35.7731758 31.8902846,34.9059141 C32.0578752,34.5550742 31.9863197,34.136582 31.7118441,33.8615703 L24.3232398,26.4583555 L26.4803977,24.2969844 L33.8691813,31.7000195 C34.1437466,31.9750313 34.5615127,32.0465469 34.9114893,31.8788086 C35.7770604,31.4637305 36.706117,31.2534063 37.6728343,31.2534063 C41.2055984,31.2534063 44.0795673,34.133168 44.0795673,37.6726523 C44.0795673,41.2121367 41.2055984,44.0918984 37.6728343,44.0918984 Z" id="Shape"></path>
                </g>
                <g id="contract" transform="translate(346.000000, 24.000000)" fill="#D1D1D6" fill-rule="nonzero">
                    <path d="M40.6969565,10.1011875 L30.9224179,0.269841797 C30.7506932,0.0971191406 30.5175676,0 30.2745386,0 L0.950922705,0 C0.444859903,0 0.0345628019,0.412582031 0.0345628019,0.921685547 L0.0345628019,50.0783145 C0.0345628019,50.587418 0.444859903,51 0.950922705,51 L40.0489783,51 C40.5550411,51 40.9653382,50.587418 40.9653382,50.0783145 L40.9653382,10.7530312 C40.9654372,10.5085898 40.8688792,10.274209 40.6969565,10.1011875 Z M31.1908986,3.14675977 L37.8368599,9.8313457 L31.1908986,9.8313457 L31.1908986,3.14675977 Z M39.1327174,49.1566289 L1.86728261,49.1566289 L1.86728261,1.84337109 L29.3580797,1.84337109 L29.3580797,10.7530313 C29.3580797,11.2621348 29.7683768,11.6747168 30.2744396,11.6747168 L39.1326184,11.6747168 L39.1327174,49.1566289 L39.1327174,49.1566289 Z" id="Shape"></path>
                    <path d="M15.6127802,12.9035977 L15.9182005,12.9035977 L15.9182005,16.8975352 C15.9182005,17.4066387 16.3284976,17.8192207 16.8345604,17.8192207 L24.1654396,17.8192207 C24.6715024,17.8192207 25.0817995,17.4066387 25.0817995,16.8975352 L25.0817995,12.9035977 L25.3872198,12.9035977 C25.7579034,12.9035977 26.0919444,12.6790781 26.2338599,12.3346289 C26.3756763,11.9901797 26.2972415,11.593834 26.0351981,11.3300684 L21.1479783,6.41444531 C20.79007,6.05465625 20.2098309,6.05465625 19.8521208,6.41444531 L17.7509203,8.52775781 L17.7509203,8.29516992 C17.7509203,7.78606641 17.3406232,7.37348438 16.8345604,7.37348438 C16.3284976,7.37348438 15.9182005,7.78606641 15.9182005,8.29516992 L15.9182005,10.3711289 L14.9648019,11.330168 C14.7027585,11.5939336 14.6243237,11.9901797 14.7661401,12.3347285 C14.9079565,12.6790781 15.2419976,12.9035977 15.6127802,12.9035977 Z M20.5,8.36967773 L23.4815121,11.3685176 C23.3370217,11.5316777 23.2490797,11.7465352 23.2490797,11.9820117 L23.2490797,15.9759492 L17.7509203,15.9759492 L17.7509203,11.9820117 C17.7509203,11.7465352 17.6630773,11.5317773 17.5184879,11.3686172 L20.5,8.36967773 Z" id="Shape"></path>
                    <path d="M7.36544203,23.0421387 C7.36544203,23.5512422 7.77573913,23.9638242 8.28180193,23.9638242 L31.4963188,23.9638242 C32.0023816,23.9638242 32.4126787,23.5512422 32.4126787,23.0421387 C32.4126787,22.5330352 32.0023816,22.1204531 31.4963188,22.1204531 L8.28180193,22.1204531 C7.77573913,22.1204531 7.36544203,22.5330352 7.36544203,23.0421387 Z" id="Path"></path>
                    <path d="M7.36544203,26.7288809 C7.36544203,27.2379844 7.77573913,27.6505664 8.28180193,27.6505664 L32.718099,27.6505664 C33.2241618,27.6505664 33.6344589,27.2379844 33.6344589,26.7288809 C33.6344589,26.2197773 33.2241618,25.8071953 32.718099,25.8071953 L8.28190097,25.8071953 C7.77573913,25.8071953 7.36544203,26.2197773 7.36544203,26.7288809 Z" id="Path"></path>
                    <path d="M8.28190097,31.3373086 L20.5,31.3373086 C21.0060628,31.3373086 21.4163599,30.9247266 21.4163599,30.415623 C21.4163599,29.9065195 21.0060628,29.4939375 20.5,29.4939375 L8.28190097,29.4939375 C7.77583816,29.4939375 7.36554106,29.9065195 7.36554106,30.415623 C7.36544203,30.9248262 7.77573913,31.3373086 8.28190097,31.3373086 Z" id="Path"></path>
                    <path d="M8.28190097,36.2530313 L31.4964179,36.2530313 C32.0024807,36.2530313 32.4127778,35.8404492 32.4127778,35.3313457 C32.4127778,34.8222422 32.0024807,34.4096602 31.4964179,34.4096602 L8.28190097,34.4096602 C7.77583816,34.4096602 7.36554106,34.8222422 7.36554106,35.3313457 C7.36554106,35.8404492 7.77573913,36.2530313 8.28190097,36.2530313 Z" id="Path"></path>
                    <path d="M32.718099,38.0964023 L8.28190097,38.0964023 C7.77583816,38.0964023 7.36554106,38.5089844 7.36554106,39.0180879 C7.36554106,39.5271914 7.77583816,39.9397734 8.28190097,39.9397734 L32.7181981,39.9397734 C33.2242609,39.9397734 33.634558,39.5271914 33.634558,39.0180879 C33.634558,38.5088848 33.2242609,38.0964023 32.718099,38.0964023 Z" id="Path"></path>
                    <path d="M20.5,41.7831445 L8.28190097,41.7831445 C7.77583816,41.7831445 7.36554106,42.1957266 7.36554106,42.7048301 C7.36554106,43.2139336 7.77583816,43.6265156 8.28190097,43.6265156 L20.5,43.6265156 C21.0060628,43.6265156 21.4163599,43.2139336 21.4163599,42.7048301 C21.4163599,42.1957266 21.0060628,41.7831445 20.5,41.7831445 Z" id="Path"></path>
                </g>
            </g>
        </g>
    </g>
</svg>