<?xml version="1.0" encoding="UTF-8"?>
<svg width="51px" height="41px" viewBox="0 0 51 41" version="1.1" xmlns="http://www.w3.org/2000/svg" xmlns:xlink="http://www.w3.org/1999/xlink">
    <!-- Generator: Sketch 53.2 (72643) - https://sketchapp.com -->
    <title>Operator communication</title>
    <desc>Created with Sketch.</desc>
    <g id="Page-1" stroke="none" stroke-width="1" fill="none" fill-rule="evenodd">
        <g id="Management-Software" transform="translate(-560.000000, -5186.000000)" fill="#82C1C4" fill-rule="nonzero">
            <g id="Operator-communication" transform="translate(560.000000, 5186.000000)">
                <path d="M37.0835742,0.0754320388 L2.87183789,0.0754320388 C1.28824805,0.0754320388 0,1.36245388 0,2.94443689 L0,23.4500097 C0,25.0319927 1.28824805,26.3191141 2.87183789,26.3191141 L5.09023828,26.3191141 L5.09023828,33.9528762 C5.09023828,34.4389053 5.38328906,34.877267 5.83292578,35.0633592 C5.98174219,35.1250583 6.13812891,35.1549126 6.29312109,35.1549126 C6.60629297,35.1549126 6.91388672,35.0327087 7.14408398,34.8028301 L15.6358828,26.3192136 L17.3396016,26.3192136 C18.0040957,26.3192136 18.5426836,25.7811383 18.5426836,25.1172767 C18.5426836,24.4533155 18.0038965,23.9152403 17.3396016,23.9152403 C17.3396016,23.9152403 15.0794648,23.9168325 15.0558574,23.9192209 C14.7757559,23.9382282 14.500834,24.053466 14.2866738,24.2673228 L7.49640234,31.0511311 C7.49640234,31.0511311 7.49431055,25.0412476 7.49042578,25.0100995 C7.43613867,24.3964927 6.92095898,23.9152403 6.29272266,23.9152403 L2.87183789,23.9152403 C2.61504492,23.9152403 2.40626367,23.7065583 2.40626367,23.4501092 L2.40626367,2.94443689 C2.40626367,2.68788835 2.61514453,2.47930583 2.87183789,2.47930583 L37.0835742,2.47930583 C37.3403672,2.47930583 37.5491484,2.68798786 37.5491484,2.94443689 L37.5491484,10.8115607 C37.5491484,11.4754223 38.0879355,12.0134976 38.7522305,12.0134976 C39.4165254,12.0134976 39.9553125,11.4754223 39.9553125,10.8115607 L39.9553125,2.94443689 C39.9553125,1.36245388 38.6670645,0.0754320388 37.0835742,0.0754320388 Z" id="Path"></path>
                <path d="M48.1281621,14.7771165 L24.1805742,14.7771165 C22.597084,14.7771165 21.3087363,16.0641383 21.3087363,17.6462209 L21.3087363,31.634983 C21.3087363,33.216966 22.5969844,34.5040874 24.1805742,34.5040874 L39.1731797,34.5040874 L45.2473594,40.5724854 C45.4775566,40.8024636 45.78525,40.924568 46.0983223,40.924568 C46.2533145,40.924568 46.4097012,40.8946141 46.5585176,40.8330146 C47.0079551,40.6469223 47.3012051,40.2087597 47.3012051,39.7225316 L47.3012051,34.5039879 L48.1280625,34.5039879 C49.7115527,34.5039879 50.9999004,33.216966 50.9999004,31.6348835 L50.9999004,17.6461214 C51,16.0641383 49.711752,14.7771165 48.1281621,14.7771165 Z M48.5938359,31.634983 C48.5938359,31.891432 48.3849551,32.1001141 48.1282617,32.1001141 L46.0986211,32.1001141 C45.4655039,32.1001141 44.9477344,32.5889296 44.9002207,33.2094029 C44.8971328,33.2356748 44.8951406,36.8207864 44.8951406,36.8207864 L40.5268711,32.4565752 C40.5222891,32.4519976 40.5175078,32.4477184 40.5129258,32.4431408 C40.495793,32.4264223 40.4795566,32.4118932 40.4642168,32.3988568 C40.2524473,32.2133617 39.975832,32.1000146 39.6722227,32.1000146 L24.1805742,32.1000146 C23.9237813,32.1000146 23.715,31.8913325 23.715,31.6348835 L23.715,17.6461214 C23.715,17.3895728 23.9238809,17.1809903 24.1805742,17.1809903 L48.1282617,17.1809903 C48.3849551,17.1809903 48.5938359,17.3896723 48.5938359,17.6461214 L48.5938359,31.634983 L48.5938359,31.634983 Z" id="Shape"></path>
                <path d="M36.1546172,23.438665 C35.4905215,23.438665 34.9515352,23.9771383 34.9515352,24.6406019 C34.9515352,25.3040655 35.4905215,25.8425388 36.1546172,25.8425388 C36.8188125,25.8425388 37.3576992,25.3040655 37.3576992,24.6406019 C37.3576992,23.9771383 36.8187129,23.438665 36.1546172,23.438665 Z" id="Path"></path>
                <path d="M30.9259219,8.02196845 C30.9259219,8.02196845 9.02958984,8.02196845 9.02958984,8.02196845 C8.36519531,8.02196845 7.82650781,8.56004369 7.82650781,9.22390534 C7.82650781,9.88776699 8.36529492,10.4258422 9.02958984,10.4258422 L30.9259219,10.4258422 C31.5903164,10.4258422 32.1290039,9.88776699 32.1290039,9.22390534 C32.1290039,8.56004369 31.5903164,8.02196845 30.9259219,8.02196845 Z" id="Path"></path>
                <path d="M17.339502,15.9686044 L9.02958984,15.9686044 C8.36519531,15.9686044 7.82650781,16.5066796 7.82650781,17.1705413 C7.82650781,17.8344029 8.36529492,18.3724782 9.02958984,18.3724782 L17.339502,18.3724782 C18.0039961,18.3724782 18.542584,17.8344029 18.542584,17.1705413 C18.542584,16.5066796 18.0038965,15.9686044 17.339502,15.9686044 Z" id="Path"></path>
                <path d="M30.5638418,23.438665 C29.8998457,23.438665 29.3607598,23.9771383 29.3607598,24.6406019 C29.3607598,25.3040655 29.8998457,25.8425388 30.5638418,25.8425388 C31.2280371,25.8425388 31.7669238,25.3040655 31.7669238,24.6406019 C31.7669238,23.9771383 31.2280371,23.438665 30.5638418,23.438665 Z" id="Path"></path>
                <path d="M41.7441973,23.438665 C41.0801016,23.438665 40.5411152,23.9771383 40.5411152,24.6406019 C40.5411152,25.3040655 41.0801016,25.8425388 41.7441973,25.8425388 C42.4083926,25.8425388 42.9472793,25.3040655 42.9472793,24.6406019 C42.9472793,23.9771383 42.408293,23.438665 41.7441973,23.438665 Z" id="Path"></path>
            </g>
        </g>
    </g>
</svg>