<?xml version="1.0" encoding="UTF-8"?>
<svg width="37px" height="30px" viewBox="0 0 37 30" version="1.1" xmlns="http://www.w3.org/2000/svg" xmlns:xlink="http://www.w3.org/1999/xlink">
    <!-- Generator: Sketch 53.2 (72643) - https://sketchapp.com -->
    <title>Payment Manager Icon</title>
    <desc>Created with Sketch.</desc>
    <g id="Page-1" stroke="none" stroke-width="1" fill="none" fill-rule="evenodd">
        <g id="Management-Software" transform="translate(-968.000000, -3711.000000)" fill="#82C1C4" fill-rule="nonzero">
            <g id="Payment-Manager-Icon" transform="translate(968.000000, 3711.000000)">
                <path d="M19.6948908,20.7742482 L29.5423002,20.7742482 C29.9115789,20.7742482 30.1577407,20.5298807 30.1577407,20.1632936 L30.1577407,14.6644869 C30.1577407,14.2978998 29.9115789,14.0535322 29.5423002,14.0535322 L19.6948908,14.0535322 C19.3256121,14.0535322 19.0794503,14.2978998 19.0794503,14.6644869 L19.0794503,20.1632936 C19.0793782,20.5298091 19.3256121,20.7742482 19.6948908,20.7742482 Z M20.3103314,15.2754415 L28.9268596,15.2754415 L28.9268596,19.5522673 L20.3103314,19.5522673 L20.3103314,15.2754415 Z" id="Shape"></path>
                <path d="M3.07734698,12.8314797 L8.00108772,12.8314797 C8.37036647,12.8314797 8.61652827,12.5871122 8.61652827,12.2205251 C8.61652827,11.8539379 8.37036647,11.6095704 8.00108772,11.6095704 L3.07734698,11.6095704 C2.70806823,11.6095704 2.46190643,11.8539379 2.46190643,12.2205251 C2.46190643,12.5871122 2.70806823,12.8314797 3.07734698,12.8314797 Z" id="Path"></path>
                <path d="M10.462922,12.8314797 L15.3866628,12.8314797 C15.7559415,12.8314797 16.0021033,12.5871122 16.0021033,12.2205251 C16.0021033,11.8539379 15.7559415,11.6095704 15.3866628,11.6095704 L10.462922,11.6095704 C10.0936433,11.6095704 9.84748148,11.8539379 9.84748148,12.2205251 C9.84748148,12.5871122 10.0936433,12.8314797 10.462922,12.8314797 Z" id="Path"></path>
                <path d="M3.07734698,15.2754415 L11.0783626,15.2754415 C11.4476413,15.2754415 11.6938031,15.031074 11.6938031,14.6644869 C11.6938031,14.2978998 11.4476413,14.0535322 11.0783626,14.0535322 L3.07734698,14.0535322 C2.70806823,14.0535322 2.46190643,14.2978998 2.46190643,14.6644869 C2.46190643,15.031074 2.70806823,15.2754415 3.07734698,15.2754415 Z" id="Path"></path>
                <path d="M15.3865906,14.0534606 L13.5401969,14.0534606 C13.1709181,14.0534606 12.9247563,14.2978282 12.9247563,14.6644153 C12.9247563,15.0310024 13.1709181,15.2753699 13.5401969,15.2753699 L15.3865906,15.2753699 C15.7558694,15.2753699 16.0020312,15.0310024 16.0020312,14.6644153 C16.0020312,14.2978282 15.7558694,14.0534606 15.3865906,14.0534606 Z" id="Path"></path>
                <path d="M36.3739571,6.47735084 C35.9431559,5.92747017 35.3892378,5.62195704 34.7122027,5.56088305 L33.2350877,5.38317422 L33.2350877,3.66680191 L33.2350877,2.4448926 C33.2350877,1.10076372 32.1272515,0.00100238663 30.7732534,0.00100238663 L2.46183431,0.00100238663 C1.10783626,0.000930787589 0,1.10069212 0,2.4448926 L0,3.66687351 L0,8.55472554 L0,21.9962291 C0,23.0997852 0.746996101,24.0380907 1.76366667,24.3388067 C1.73265302,25.5747494 2.67467446,26.6477327 3.93902144,26.7618616 L32.3734854,29.938926 C32.4350078,29.938926 32.5581248,29.938926 32.6196472,29.938926 C33.8506004,29.938926 34.9584366,29.0224582 35.0814815,27.8616229 L36.9278752,8.24921241 C36.9893977,7.63818616 36.8047583,6.96608592 36.3739571,6.47735084 Z M1.23095322,4.27782816 L32.0042066,4.27782816 L32.0042066,5.86639618 L32.0042066,7.94369928 L1.23095322,7.94369928 L1.23095322,4.27782816 Z M2.46183431,1.22291169 L30.7731813,1.22291169 C31.4502164,1.22291169 32.0041345,1.77279236 32.0041345,2.4448926 L32.0041345,3.05584726 L1.23095322,3.05584726 L1.23095322,2.4448926 C1.23095322,1.77279236 1.78487135,1.22291169 2.46183431,1.22291169 Z M1.23095322,21.9961575 L1.23095322,9.16560859 L32.0042066,9.16560859 L32.0042066,21.9961575 C32.0042066,22.6682578 31.4502885,23.2181384 30.7732534,23.2181384 L2.52342885,23.2181384 L2.46190643,23.2181384 C1.78487135,23.2181384 1.23095322,22.6682578 1.23095322,21.9961575 Z M35.696922,8.00477327 L33.8505283,27.6171838 C33.7890058,28.289284 33.1734932,28.7780191 32.4965302,28.7169451 L4.12358869,25.5398807 C3.50814815,25.4788067 3.07727485,24.99 3.01575244,24.4401193 L30.7731813,24.4401193 C32.1271793,24.4401193 33.2350156,23.340358 33.2350156,21.9962291 L33.2350156,8.55465394 L33.2350156,6.53842482 L34.6506082,6.66064439 C34.9583645,6.66064439 35.2660487,6.84393795 35.4506881,7.08830549 C35.6353996,7.33267303 35.7585166,7.69926014 35.696922,8.00477327 Z" id="Shape"></path>
            </g>
        </g>
    </g>
</svg>