<?xml version="1.0" encoding="UTF-8"?>
<svg width="46px" height="33px" viewBox="0 0 46 33" version="1.1" xmlns="http://www.w3.org/2000/svg" xmlns:xlink="http://www.w3.org/1999/xlink">
    <!-- Generator: Sketch 53.2 (72643) - https://sketchapp.com -->
    <title>Resident Testimonials Icon</title>
    <desc>Created with Sketch.</desc>
    <g id="Page-1" stroke="none" stroke-width="1" fill="none" fill-rule="evenodd">
        <g id="Management-Software" transform="translate(-560.000000, -4481.000000)" fill="#82C1C4" fill-rule="nonzero">
            <g id="Resident-Testimonials-Icon" transform="translate(560.000000, 4481.000000)">
                <path d="M42.0344828,0 L3.96551724,0 C1.77635037,0.00272586168 0.00271080776,1.78621498 0,3.98753894 L0,23.9252336 C0.00271080776,26.1265576 1.77635037,27.9100467 3.96551724,27.9127726 L16.9270273,27.9127726 C17.5660022,27.913162 18.1774818,28.1721183 18.624377,28.6304517 L21.3208513,31.2024922 C21.6333616,31.5166063 22.1930778,31.9939508 23,32.6345256 C23.8091348,31.9912768 24.3666566,31.5182159 24.6725654,31.2153427 L27.8577586,28.1495327 C28.0056911,28.0003894 28.2059032,27.9151091 28.4154095,27.9127726 L42.0344828,27.9127726 C44.2236496,27.9100467 45.9972892,26.1265576 46,23.9252336 L46,3.98753894 C45.9972892,1.78621498 44.2236496,0.00272586168 42.0344828,0 Z M44.4137931,23.9252336 C44.4137931,25.2464953 43.3484476,26.317757 42.0344828,26.317757 L28.4154095,26.317757 C27.7899885,26.3146417 27.1893521,26.5623053 26.7459422,27.0058411 L23.5607489,30.0716511 C23.4518565,30.1786111 23.2649402,30.3769155 23,30.6665642 C22.7163995,30.3638554 22.5244488,30.1607484 22.424148,30.057243 L19.7315463,27.4852025 C18.9895609,26.7352025 17.9795932,26.3146417 16.9270273,26.317757 L3.96551724,26.317757 C2.65155242,26.317757 1.5862069,25.2464953 1.5862069,23.9252336 L1.5862069,3.98753894 C1.5862069,2.66627728 2.65155242,1.59501558 3.96551724,1.59501558 L42.0344828,1.59501558 C43.3484476,1.59501558 44.4137931,2.66627728 44.4137931,3.98753894 L44.4137931,23.9252336 Z" id="Shape"></path>
                <path d="M17.4482759,6.72235205 C15.964305,6.72235205 14.5399717,7.30957946 13.4827586,8.3570872 C12.4255456,7.30957946 11.0012123,6.72235205 9.51724138,6.72235205 C6.84942419,6.72235205 4.75862069,9.07398759 4.75862069,12.0767134 C4.75862069,14.1542056 5.84526541,18.1919782 13.1241581,21.9018692 C13.3487676,22.0155763 13.6136516,22.0155763 13.8382611,21.9018692 C21.1202518,18.1919782 22.2068966,14.1542056 22.2068966,12.0767134 C22.2068966,9.07398759 20.1160931,6.72235205 17.4482759,6.72235205 Z M13.4827586,20.2932243 C7.28315264,17.0299844 6.34482759,13.7538941 6.34482759,12.0790499 C6.34482759,9.93613707 7.70913594,8.31970402 9.51724138,8.31970402 C10.8226866,8.32632404 12.0479694,8.95404979 12.8205482,10.0120717 C12.9758385,10.2235203 13.2217471,10.3485203 13.4835331,10.3485203 C13.7453193,10.3485203 13.9912278,10.2235203 14.146518,10.0120717 C14.9198714,8.95521804 16.1436052,8.3271028 17.4482759,8.31736763 C19.2563813,8.31736763 20.6206897,9.93380067 20.6206897,12.0767134 C20.6206897,13.7562306 19.6823646,17.0299844 13.4827586,20.2932243 Z" id="Shape"></path>
                <path d="M40.4482759,8.77258567 L33.3103448,8.77258567 C32.8723565,8.77258567 32.5172414,9.12967287 32.5172414,9.57009346 C32.5172414,10.010514 32.8723565,10.3676012 33.3103448,10.3676012 L40.4482759,10.3676012 C40.8862642,10.3676012 41.2413793,10.010514 41.2413793,9.57009346 C41.2413793,9.12967287 40.8862642,8.77258567 40.4482759,8.77258567 Z" id="Path"></path>
                <path d="M40.4482759,11.9626168 L26.9655172,11.9626168 C26.5275289,11.9626168 26.1724138,12.319704 26.1724138,12.7601246 C26.1724138,13.2005452 26.5275289,13.5576324 26.9655172,13.5576324 L40.4482759,13.5576324 C40.8862642,13.5576324 41.2413793,13.2005452 41.2413793,12.7601246 C41.2413793,12.319704 40.8862642,11.9626168 40.4482759,11.9626168 Z" id="Path"></path>
                <path d="M40.4482759,15.152648 L26.9655172,15.152648 C26.5275289,15.152648 26.1724138,15.5097352 26.1724138,15.9501558 C26.1724138,16.3905763 26.5275289,16.7476636 26.9655172,16.7476636 L40.4482759,16.7476636 C40.8862642,16.7476636 41.2413793,16.3905763 41.2413793,15.9501558 C41.2413793,15.5097352 40.8862642,15.152648 40.4482759,15.152648 Z" id="Path"></path>
                <path d="M38.0689655,18.3426791 L26.9655172,18.3426791 C26.5275289,18.3426791 26.1724138,18.6997663 26.1724138,19.1401869 C26.1724138,19.5806075 26.5275289,19.9376947 26.9655172,19.9376947 L38.0689655,19.9376947 C38.5069538,19.9376947 38.862069,19.5806075 38.862069,19.1401869 C38.862069,18.6997663 38.5069538,18.3426791 38.0689655,18.3426791 Z" id="Path"></path>
            </g>
        </g>
    </g>
</svg>