<?xml version="1.0" encoding="UTF-8"?>
<svg width="41px" height="41px" viewBox="0 0 41 41" version="1.1" xmlns="http://www.w3.org/2000/svg" xmlns:xlink="http://www.w3.org/1999/xlink">
    <!-- Generator: Sketch 53.2 (72643) - https://sketchapp.com -->
    <title>Resident onboarding icon</title>
    <desc>Created with Sketch.</desc>
    <g id="Page-1" stroke="none" stroke-width="1" fill="none" fill-rule="evenodd">
        <g id="Management-Software" transform="translate(-120.000000, -4472.000000)" fill="#82C1C4" fill-rule="nonzero">
            <g id="Resident-onboarding-icon" transform="translate(140.500000, 4492.500000) scale(-1, 1) translate(-140.500000, -4492.500000) translate(120.000000, 4472.000000)">
                <path d="M26.8990791,0 C19.1675,0 12.8773221,6.21646484 12.8773221,13.8574395 C12.8773221,15.5561367 13.1827154,17.2068672 13.7857233,18.7744766 L0.378561265,32.0254844 C0.18693083,32.2149492 0.0792450593,32.4717598 0.0792450593,32.739541 L0.0792450593,39.9901348 C0.0792450593,40.5478789 0.536727273,41 1.10108498,41 L7.14704545,41 C7.41775889,41 7.67737154,40.8938965 7.86900198,40.704832 L9.90644269,38.6943105 C10.0984783,38.5048457 10.2063261,38.2477148 10.2063261,37.9796133 L10.2063261,35.5071211 L12.7049763,35.5071211 C13.269334,35.5071211 13.7268162,35.055 13.7268162,34.4972559 L13.7268162,33.5074902 L14.7283992,33.5074902 C15.2926759,33.5074902 15.7502391,33.0553691 15.7502391,32.497625 L15.7502391,30.324625 L17.9490059,30.324625 C18.2199625,30.324625 18.4798182,30.2182012 18.6715296,30.0288164 L21.9224407,26.816002 C23.5088814,27.4125039 25.1794289,27.7147187 26.898917,27.7147187 C34.630496,27.7147187 40.9206739,21.4982539 40.9206739,13.8572793 C40.9207549,6.21646484 34.6306581,0 26.8990791,0 Z M26.8990791,25.6949883 C25.2265059,25.6949883 23.6088696,25.3611426 22.0909783,24.7025801 C21.6984802,24.532334 21.2564743,24.6260254 20.9670435,24.9047773 C20.9638834,24.9077402 20.9608043,24.9101426 20.9577253,24.9132656 L17.5258794,28.3048945 L14.7285613,28.3048945 C14.1642036,28.3048945 13.7067213,28.7570156 13.7067213,29.3147598 L13.7067213,31.4877598 L12.7051383,31.4877598 C12.1408617,31.4877598 11.6832984,31.9398809 11.6832984,32.497625 L11.6832984,33.4873906 L9.18456719,33.4873906 C8.62029051,33.4873906 8.16272727,33.9395117 8.16272727,34.4972559 L8.16272727,37.5608047 L6.72424308,38.9801895 L2.12308696,38.9801895 L2.12308696,37.5531172 L14.6127727,25.209875 C14.9719684,24.8548887 14.9719684,24.2794473 14.6127727,23.924541 C14.2535771,23.5696348 13.6714743,23.5694746 13.3120356,23.924541 L2.12308696,34.9824492 L2.12308696,33.1579492 L15.7111028,19.728207 C15.7141818,19.7251641 15.7165316,19.7223613 15.7193676,19.7193984 C16.0015059,19.4335996 16.0966324,18.9967734 15.9243676,18.6085547 C15.2586443,17.1085312 14.9212451,15.5099316 14.9212451,13.8575195 C14.9212451,7.33019141 20.2945949,2.01981055 26.8993221,2.01981055 C33.5040494,2.01981055 38.8772372,7.33011133 38.8772372,13.8575195 C38.8770751,20.3846875 33.5036443,25.6949883 26.8990791,25.6949883 Z" id="Shape"></path>
                <path d="M31.1663202,5.85723438 C29.0557925,5.85723438 27.3388162,7.55408984 27.3388162,9.63988477 C27.3388162,11.7256797 29.0557925,13.4225352 31.1663202,13.4225352 C33.2768478,13.4225352 34.9938241,11.7256797 34.9938241,9.63988477 C34.9938241,7.55408984 33.2769289,5.85723438 31.1663202,5.85723438 Z M31.1663202,11.4028047 C30.1827253,11.4028047 29.382496,10.6119531 29.382496,9.63988477 C29.382496,8.66781641 30.1827253,7.87696484 31.1663202,7.87696484 C32.149915,7.87696484 32.9501443,8.66781641 32.9501443,9.63988477 C32.9501443,10.6119531 32.149915,11.4028047 31.1663202,11.4028047 Z" id="Shape"></path>
            </g>
        </g>
    </g>
</svg>