<?xml version="1.0" encoding="UTF-8"?>
<svg width="46px" height="46px" viewBox="0 0 46 46" version="1.1" xmlns="http://www.w3.org/2000/svg" xmlns:xlink="http://www.w3.org/1999/xlink">
    <!-- Generator: Sketch 53.2 (72643) - https://sketchapp.com -->
    <title>Testimonial replies Icon</title>
    <desc>Created with Sketch.</desc>
    <g id="Page-1" stroke="none" stroke-width="1" fill="none" fill-rule="evenodd">
        <g id="Management-Software" transform="translate(-968.000000, -4467.000000)" fill="#82C1C4" fill-rule="nonzero">
            <g id="Testimonial-replies-Icon" transform="translate(968.000000, 4467.000000)">
                <path d="M0.793103448,15.0689655 L26.6371228,15.0689655 L28.7840787,17.2159213 C29.0938847,17.5257274 29.5957705,17.5257274 29.9055765,17.2159213 L32.0525323,15.0689655 L38.0689655,15.0689655 C38.9449421,15.0689655 39.6551724,14.3587352 39.6551724,13.4827586 L39.6551724,5.55172414 C39.6551724,4.67574753 38.9449421,3.96551724 38.0689655,3.96551724 L34.8376886,3.96551724 C34.8706054,3.77963362 34.8899684,3.59142641 34.8965517,3.40244472 C34.9461207,2.52569365 34.6355402,1.66636923 34.0364527,1.02429618 C33.4377525,0.381835888 32.602438,0.0120050086 31.7241379,1.21837219e-17 C30.8632644,-0.00425983793 30.0256264,0.279599897 29.3448276,0.806657487 C28.6640288,0.279599897 27.8263908,-0.00425983793 26.9655172,1.21837219e-17 C26.0872171,0.0120050086 25.2519026,0.381835888 24.6532024,1.02429618 C24.054115,1.66636923 23.7435345,2.52569365 23.7931034,3.40244472 C23.7996868,3.59142641 23.8190497,3.77963362 23.8519666,3.96551724 L0.793103448,3.96551724 C0.355115142,3.96551724 0,4.32063238 0,4.75862069 L0,14.2758621 C0,14.7138504 0.355115142,15.0689655 0.793103448,15.0689655 Z M26.9655172,1.5862069 C27.631213,1.57729995 28.2667026,1.86309606 28.7015928,2.36730534 C28.8576576,2.5632577 29.0942719,2.6774986 29.3448276,2.6774986 C29.5953832,2.6774986 29.8319975,2.5632577 29.9880623,2.36730534 C30.4229526,1.8634833 31.0584422,1.57768718 31.7241379,1.5862069 C32.1822636,1.59782467 32.614443,1.80113486 32.9161167,2.14618135 C33.217403,2.49122775 33.360301,2.94702985 33.3103448,3.40244472 C33.3095704,3.76414332 33.2332806,4.12196929 33.08651,4.45268718 C32.6020508,5.61058728 31.3117087,6.77313438 29.3448276,7.82957296 C27.3779465,6.77313438 26.0876044,5.60903825 25.5996599,4.4445548 C25.4548256,4.1161604 25.3796976,3.76143249 25.3793103,3.40244472 C25.3293541,2.94702985 25.4722522,2.49122775 25.7735385,2.14618135 C26.0752121,1.80113486 26.5073915,1.59782467 26.9655172,1.5862069 L26.9655172,1.5862069 Z M1.5862069,5.55172414 L24.3751516,5.55172414 C24.386382,5.57069973 24.4007105,5.58967533 24.4107793,5.60903825 C24.4514413,5.67951908 24.499074,5.74922553 24.5424468,5.81970636 C24.6148639,5.93472182 24.6884429,6.04973739 24.7709287,6.16397829 C24.825532,6.24336606 24.8859443,6.31307252 24.9448074,6.3878132 C25.0303913,6.49469628 25.1175242,6.60196659 25.2120151,6.70497705 C25.2801724,6.78436492 25.3514278,6.85639478 25.423845,6.93113546 C25.5237574,7.03414601 25.6275424,7.13715657 25.7363618,7.238618 C25.8153624,7.31258421 25.8947502,7.38693766 25.9795596,7.46012931 C26.0961241,7.56159084 26.2177229,7.6622777 26.3443561,7.76219019 C26.4334253,7.83267102 26.5205583,7.90315194 26.6142746,7.97402009 C26.7513638,8.07703055 26.8973599,8.17849208 27.0441305,8.27917904 C27.1374596,8.34423831 27.2288524,8.40929757 27.3264413,8.47280781 C27.4952856,8.58317619 27.6745858,8.6916083 27.855435,8.79965318 C27.9433425,8.85270744 28.0266029,8.90576169 28.1172212,8.95804149 C28.3937231,9.11681713 28.6818427,9.27520544 28.9846781,9.42855943 C29.2108365,9.54357489 29.4788186,9.54357489 29.7049771,9.42855943 C30.0078125,9.27443087 30.2959321,9.11759159 30.5724339,8.95804149 C30.6638268,8.90576169 30.7478617,8.85115841 30.8365436,8.79965318 C31.0158439,8.69238286 31.1943696,8.58472522 31.3616649,8.47513131 C31.4623518,8.40929757 31.5560682,8.34268928 31.6521081,8.27685544 C31.7953933,8.17771751 31.9375169,8.07857958 32.0715079,7.97866719 C32.1690968,7.9050882 32.2620386,7.83112209 32.3545932,7.75676864 C32.4734813,7.66150323 32.5927566,7.56546336 32.7019632,7.46864903 C32.7925815,7.38926116 32.87894,7.31026062 32.9637493,7.23087284 C33.0644363,7.136382 33.1604761,7.04189116 33.2534179,6.94701309 C33.3324185,6.86375269 33.4118064,6.78010506 33.4911941,6.69684467 C33.575229,6.60196659 33.6499697,6.50670119 33.7289702,6.41066132 C33.8083581,6.31462145 33.8664467,6.240268 33.9280206,6.15390964 C33.9996633,6.05477171 34.0631735,5.95485922 34.127071,5.85455959 C34.1805126,5.77052462 34.2366649,5.68726433 34.2858466,5.6024549 C34.295528,5.58502834 34.3086947,5.56837624 34.3183762,5.55094967 L38.0689655,5.55094967 L38.0689655,13.4827586 L31.7241379,13.4827586 C31.5138571,13.4827586 31.3120959,13.5664062 31.163389,13.7151131 L29.3448276,15.5336746 L27.5262662,13.7151131 C27.3775593,13.5664062 27.1757981,13.4827586 26.9655172,13.4827586 L1.5862069,13.4827586 L1.5862069,5.55172414 Z" id="Shape"></path>
                <path d="M5.55172414,23 L11.1034483,23 C11.5414366,23 11.8965517,22.6448849 11.8965517,22.2068966 C11.8965517,21.7689082 11.5414366,21.4137931 11.1034483,21.4137931 L5.55172414,21.4137931 C5.11373583,21.4137931 4.75862069,21.7689082 4.75862069,22.2068966 C4.75862069,22.6448849 5.11373583,23 5.55172414,23 Z" id="Path"></path>
                <path d="M15.862069,25.3793103 C15.862069,24.941322 15.5069538,24.5862069 15.0689655,24.5862069 L5.55172414,24.5862069 C5.11373583,24.5862069 4.75862069,24.941322 4.75862069,25.3793103 C4.75862069,25.8172987 5.11373583,26.1724138 5.55172414,26.1724138 L15.0689655,26.1724138 C15.5069538,26.1724138 15.862069,25.8172987 15.862069,25.3793103 Z" id="Path"></path>
                <path d="M44.4137931,32.5172414 L42.2494107,32.5172414 L42.3582301,32.4119073 C42.5743197,32.2012392 42.6525458,31.8860115 42.5592168,31.5990537 C42.4662749,31.3117087 42.2180428,31.1025896 41.9194673,31.0588294 L39.1989831,30.6622777 L37.9872542,28.2035796 C37.8389346,27.9514749 37.5682415,27.7969592 37.2758621,27.7969592 C36.9834826,27.7969592 36.7127896,27.9514749 36.56447,28.2035796 L35.3527411,30.6622777 L32.6322568,31.0588294 C32.3336814,31.1025896 32.0854492,31.3117087 31.9925074,31.5990537 C31.8991783,31.8860115 31.9774044,32.2012392 32.1934941,32.4119073 L32.3023134,32.5172414 L0.793103448,32.5172414 C0.355115142,32.5172414 -5.68434189e-14,32.8723565 -5.68434189e-14,33.3103448 L-5.68434189e-14,42.8275862 C-5.68434189e-14,43.2655745 0.355115142,43.6206897 0.793103448,43.6206897 L32.9819504,43.6206897 L35.1289062,45.7676455 C35.4387123,46.0774515 35.9405981,46.0774515 36.2504041,45.7676455 L38.3973599,43.6206897 L44.4137931,43.6206897 C45.2897697,43.6206897 46,42.9104594 46,42.0344828 L46,34.1034483 C46,33.2274717 45.2897697,32.5172414 44.4137931,32.5172414 L44.4137931,32.5172414 Z M35.9959759,32.1683224 C36.2535022,32.1303711 36.4761753,31.9681102 36.591578,31.7345939 L37.2758621,30.3458883 L37.9601462,31.7345939 C38.0755489,31.9681102 38.298222,32.1303711 38.5557482,32.1683224 L40.1009059,32.3952552 L38.9840551,33.4776401 C38.7954607,33.6604256 38.7098768,33.9249226 38.7551859,34.1836106 L39.0192956,35.7070817 L37.6437568,34.9871699 C37.4133385,34.8663456 37.1383856,34.8663456 36.9079674,34.9871699 L35.5324286,35.7070817 L35.7965383,34.1836106 C35.8418474,33.9249226 35.7562635,33.6604256 35.567669,33.4776401 L34.4508183,32.3952552 L35.9959759,32.1683224 Z M44.4137931,42.0344828 L38.0689655,42.0344828 C37.8586846,42.0344828 37.6569235,42.1181304 37.5082166,42.2668373 L35.6896552,44.0853987 L33.8710937,42.2668373 C33.7223869,42.1181304 33.5206257,42.0344828 33.3103448,42.0344828 L1.5862069,42.0344828 L1.5862069,34.1034483 L33.933055,34.1034483 L34.1623114,34.3257342 L33.6941171,37.0222084 C33.6426117,37.3196221 33.7645979,37.6205212 34.0089574,37.7982725 C34.2529296,37.9764109 34.576677,38.0000337 34.8442719,37.8594592 L37.2758621,36.5849946 L39.7074522,37.8586846 C39.7694134,37.8912143 39.8356344,37.9144497 39.904179,37.9287783 C39.9262527,37.9326509 39.9483263,37.9357489 39.9707873,37.937298 C40.0052532,37.9438813 40.0404937,37.9481412 40.0753468,37.9500774 C40.084641,37.9489156 40.093548,37.9473667 40.1024549,37.9454303 C40.1539601,37.9423323 40.2050781,37.9345871 40.2546471,37.9214204 C40.2813678,37.9175478 40.3080887,37.9121262 40.3340349,37.9047683 C40.7050276,37.7823949 40.9288624,37.4055934 40.8599307,37.0214339 L40.3921235,34.3249596 L40.6209928,34.1026738 L44.4137931,34.1026738 L44.4137931,42.0344828 Z" id="Shape"></path>
                <path d="M5.55172414,37.2758621 L15.0689655,37.2758621 C15.5069538,37.2758621 15.862069,36.9207469 15.862069,36.4827586 C15.862069,36.0447703 15.5069538,35.6896552 15.0689655,35.6896552 L5.55172414,35.6896552 C5.11373583,35.6896552 4.75862069,36.0447703 4.75862069,36.4827586 C4.75862069,36.9207469 5.11373583,37.2758621 5.55172414,37.2758621 Z" id="Path"></path>
                <path d="M30.9310345,38.862069 L5.55172414,38.862069 C5.11373583,38.862069 4.75862069,39.2171841 4.75862069,39.6551724 C4.75862069,40.0931607 5.11373583,40.4482759 5.55172414,40.4482759 L30.9310345,40.4482759 C31.3690228,40.4482759 31.7241379,40.0931607 31.7241379,39.6551724 C31.7241379,39.2171841 31.3690228,38.862069 30.9310345,38.862069 Z" id="Path"></path>
                <path d="M5.55172414,8.72413793 L15.0689655,8.72413793 C15.5069538,8.72413793 15.862069,8.36902279 15.862069,7.93103448 C15.862069,7.49304618 15.5069538,7.13793103 15.0689655,7.13793103 L5.55172414,7.13793103 C5.11373583,7.13793103 4.75862069,7.49304618 4.75862069,7.93103448 C4.75862069,8.36902279 5.11373583,8.72413793 5.55172414,8.72413793 Z" id="Path"></path>
                <path d="M24.5862069,10.3103448 L5.55172414,10.3103448 C5.11373583,10.3103448 4.75862069,10.66546 4.75862069,11.1034483 C4.75862069,11.5414366 5.11373583,11.8965517 5.55172414,11.8965517 L24.5862069,11.8965517 C25.0241952,11.8965517 25.3793103,11.5414366 25.3793103,11.1034483 C25.3793103,10.66546 25.0241952,10.3103448 24.5862069,10.3103448 Z" id="Path"></path>
                <path d="M0.793103448,29.3448276 L9.18884698,29.3448276 L11.3358028,31.4917834 C11.6456088,31.8015894 12.1474946,31.8015894 12.4573006,31.4917834 L14.6042565,29.3448276 L21.4137931,29.3448276 C23.3086442,29.3490874 25.0737642,28.3848161 26.0941878,26.7881533 C27.1142241,25.1918777 27.247828,23.1843346 26.4477539,21.4668474 L27.5262662,20.3883351 C27.826778,20.0769801 27.8225182,19.5824522 27.5165847,19.2765187 C27.2106512,18.9705853 26.7161234,18.9663254 26.4047683,19.2668373 L25.5586106,20.1122205 C24.5087554,18.9237271 22.9996128,18.2421538 21.4137931,18.2413793 L0.793103448,18.2413793 C0.355115142,18.2413793 -2.84217094e-14,18.5964945 -2.84217094e-14,19.0344828 L-2.84217094e-14,28.5517241 C-2.84217094e-14,28.9897124 0.355115142,29.3448276 0.793103448,29.3448276 Z M1.5862069,19.8275862 L21.4137931,19.8275862 C22.5782766,19.8318461 23.6815733,20.3503839 24.4274314,21.2449488 L21.4137931,24.258587 L19.5952317,22.4400255 C19.2838766,22.1395137 18.7893488,22.1437735 18.4834152,22.4497071 C18.1774818,22.7556405 18.173222,23.2505557 18.4737338,23.5615234 L20.8530442,25.9408337 C21.1628502,26.2506398 21.664736,26.2506398 21.974542,25.9408337 L25.208917,22.7064587 C25.3165747,23.0588631 25.3738887,23.4248215 25.3793103,23.7931034 C25.3765995,25.9822703 23.60296,27.7559099 21.4137931,27.7586207 L14.2758621,27.7586207 C14.0655812,27.7586207 13.86382,27.8422683 13.7151131,27.9909752 L11.8965517,29.8095366 L10.0779903,27.9909752 C9.92928341,27.8422683 9.72752225,27.7586207 9.51724138,27.7586207 L1.5862069,27.7586207 L1.5862069,19.8275862 Z" id="Shape"></path>
            </g>
        </g>
    </g>
</svg>